{
.formatVersion = 3;
classes = (
{
code = "uni0622 uni0623 afii57412 uni0625 afii57414 uni0627 uni0628 uni0629 uni062A uni062B uni062C uni062D uni062E uni062F uni0630 uni0631 uni0632 uni0633 uni0634 uni0635 uni0636 uni0637 uni0638 uni0639 uni063A uni0641 uni0642 uni0643 uni0644 uni0645 uni0646 uni0647 uni0648 uni0649 uni064A uni066E uni066F afii57506 afii57507 afii57508 uni06A1 uni06A9 uni06AF afii57514 uni06C0 uni06CA uni06CC afii57534";
name = fina;
},
{
code = "uniFE82 uniFE84 uniFE86 uniFE88 uniFE8A uniFE8E uniFE90 uniFE94 uniFE96 uniFE9A uniFE9E uniFEA2 uniFEA6 uniFEAA uniFEAC uniFEAE uniFEB0 uniFEB2 uniFEB6 uniFEBA uniFEBE uniFEC2 uniFEC6 uniFECA uniFECE uniFED2 uniFED6 uniFEDA uniFEDE uniFEE2 uniFEE6 uniFEEA uniFEEE uniFEF0 uniFEF2 uni066E.fina uni066F.fina uniFB57 uniFB7B uniFB8B uni06A1.fina uniFB8F uniFB93 uniFB9F uniFBA5.fina uni06CA.fina uniFBFD uni06D5.fina";
name = fina2;
},
{
code = "uniFE8B uniFE91 uniFE97 uniFE9B uniFE9F uniFEA3 uniFEA7 uniFEB3 uniFEB7 uniFEBB uniFEBF uniFEC3 uniFEC7 uniFECB uniFECF uniFED3 uniFED7 uniFEDB uniFEDF uniFEE3 uniFEE7 uniFEEB uniFBE8 uniFEF3 uniFB58 uniFB7C uni06A1.init uniFB90 uniFB94 uniFBFE";
name = init;
},
{
code = "afii57414 uni0628 uni062A uni062B uni062C uni062D uni062E uni0633 uni0634 uni0635 uni0636 uni0637 uni0638 uni0639 uni063A uni0641 uni0642 uni0643 uni0644 uni0645 uni0646 uni0647 uni0649 uni064A afii57506 afii57507 uni06A1 uni06A9 uni06AF uni06CC";
name = init_medi;
},
{
code = "uniFE8C uniFE92 uniFE98 uniFE9C uniFEA0 uniFEA4 uniFEA8 uniFEB4 uniFEB8 uniFEBC uniFEC0 uniFEC4 uniFEC8 uniFECC uniFED0 uniFED4 uniFED8 uniFEDC uniFEE0 uniFEE4 uniFEE8 uniFEEC uniFBE9 uniFEF4 uniFB59 uniFB7D uni06A1.medi uniFB91 uniFB95 uniFBFF";
name = medi;
}
);
familyName = Sepehr;
customParameters = (
{
name = glyphOrder;
value = (
.notdef,
NULL,
CR,
uni0002,
uni0009,
space,
exclam,
quotedbl,
numbersign,
dollar,
percent,
ampersand,
quotesingle,
parenleft,
parenright,
asterisk,
plus,
comma,
hyphen,
period,
slash,
zero,
one,

glyphs = (
{
glyphname = exclam;
layers = (
{
layerId = "F74B8AD3-7B55-4203-B0B4-8E4700CE7707";
shapes = (
{
closed = 1;
nodes = (
(145,253,o),
(248,356,o),
(393,356,o),
(495,253,o),
(495,108,o),
(393,5,o),
(320,5,qs),
(300,5,o),
(261,14,o),
(225,32,o),
(209,45,qs),
(192,59,o),
(166,94,o),
(158,113,qs),
(145,145,o),
(145,180,qs)
);
},
{
closed = 1;
nodes = (
(213,1437,l),
(431,1437,l),
(472,1437,l),
(471,1396,l),
(446,488,l),
(445,449,l),
(406,449,l),
(239,449,l),
(200,449,l),
(199,488,l),
(173,1396,l),
(172,1437,l)
);
}
);
width = 641;
}
);
unicode = 33;
},
{
glyphname = quotedbl;
layers = (
{
layerId = "F74B8AD3-7B55-4203-B0B4-8E4700CE7707";
shapes = (
{
closed = 1;
nodes = (
(266,1398,l),
(226,987,l),
(64,987,l),
(64,1536,l),
(266,1536,l)
);
},
{
closed = 1;
nodes = (
(591,1398,l),
(552,987,l),
(390,987,l),
(390,1536,l),
(591,1536,l)
);
}
);
width = 657;
}
);
leftKerningGroup = minute2;
rightKerningGroup = minute;
unicode = 34;
},
{
glyphname = numbersign;
layers = (
{
layerId = "F74B8AD3-7B55-4203-B0B4-8E4700CE7707";
shapes = (
{
closed = 1;
nodes = (
(652,410,l),
(459,410,l),
(387,0,l),
(204,0,l),
(276,410,l),
(49,410,l),
(49,582,l),
(306,582,l),
(356,866,l),
(124,866,l),
(124,1040,l),
(387,1040,l),
(460,1456,l),
(642,1456,l),
(569,1040,l),
(763,1040,l),
(836,1456,l),
(1019,1456,l),
(946,1040,l),
(1165,1040,l),
(1165,866,l),
(915,866,l),
(865,582,l),
(1089,582,l),
(1089,410,l),
(835,410,l),
(763,0,l),
(580,0,l)
);
},
{
closed = 1;
nodes = (
(489,582,l),
(682,582,l),
(732,866,l),
(538,866,l)
);
}
);
width = 1220;
}
);
unicode = 35;
},
{
glyphname = dollar;
layers = (
{
layerId = "F74B8AD3-7B55-4203-B0B4-8E4700CE7707";
shapes = (
{
closed = 1;
nodes = (
(790,425,o),
(768,489,o),
(718,541,o),
(639,585,o),
(582,606,qs),
(484,643,o),
(324,724,o),
(210,830,o),
(147,972,o),
(147,1070,qs),
(147,1155,o),
(203,1295,o),
(307,1399,o),
(452,1464,o),
(542,1473,q),
(542,1687,l),
(702,1687,l),
(702,1470,l),
(788,1458,o),
(928,1384,o),
(1026,1266,o),
(1079,1105,o),
(1079,1005,q),
(790,1005,l),
(790,1125,o),
(691,1244,o),
(608,1244,qs),
(563,1244,o),
(498,1217,o),
(456,1170,o),
(436,1106,o),
(436,1069,qs),
(436,1032,o),
(456,972,o),
(505,921,o),
(586,876,o),
(646,852,qs),
(743,813,o),
(902,731,o),
(1016,624,o),
(1079,482,o),
(1079,385,qs),
(1079,297,o),
(1022,157,o),
(918,55,o),
(771,-7,o),
(681,-16,q),
(681,-215,l),
(522,-215,l),
(522,-17,l),
(439,-8,o),
(284,52,o),
(164,165,o),
(92,337,o),
(92,457,q),
(381,457,l),
(381,386,o),
(418,291,o),
(480,234,o),
(559,211,o),
(600,211,qs),
(647,211,o),
(718,237,o),
(766,283,o),
(790,346,o),
(790,383,qs)
);
}
);
width = 1175;
}
);
unicode = 36;
},
{
glyphname = percent;
layers = (
{
layerId = "F74B8AD3-7B55-4203-B0B4-8E4700CE7707";
shapes = (
{
closed = 1;
nodes = (
(95,1176,ls),
(95,1238,o),
(136,1347,o),
(216,1429,o),
(333,1477,o),
(410,1477,qs),
(488,1477,o),
(607,1429,o),
(687,1347,o),
(727,1238,o),
(727,1176,qs),
(727,1099,ls),
(727,1038,o),
(687,929,o),
(607,848,o),
(490,800,o),
(412,800,qs),
(335,800,o),
(216,848,o),
(136,929,o),
(95,1038,o),
(95,1099,qs)
);
},
{
closed = 1;
nodes = (
(287,1099,ls),
(287,1073,o),
(302,1025,o),
(334,988,o),
(380,966,o),
(412,966,qs),
(443,966,o),
(489,988,o),
(519,1025,o),
(534,1073,o),
(534,1099,qs),
(534,1176,ls),
(534,1202,o),
(519,1251,o),
(489,1288,o),
(442,1310,o),
(410,1310,qs),
(379,1310,o),
(333,1288,o),
(302,1251,o),
(287,1202,o),
(287,1176,qs)
);
},
{
closed = 1;
nodes = (
(791,357,ls),
(791,418,o),
(832,528,o),
(913,609,o),
(1030,657,o),
(1107,657,qs),
(1185,657,o),
(1304,609,o),
(1384,528,o),
(1424,418,o),
(1424,357,qs),
(1424,279,ls),
(1424,217,o),
(1384,109,o),
(1304,27,o),
(1187,-20,o),
(1109,-20,qs),
(1032,-20,o),
(913,27,o),
(832,109,o),
(791,217,o),
(791,279,qs)
);
},
{
closed = 1;
nodes = (
(983,279,ls),
(983,253,o),
(1001,205,o),
(1034,168,o),
(1080,146,o),
(1109,146,qs),
(1145,146,o),
(1192,168,o),
(1220,205,o),
(1231,253,o),
(1231,279,qs),
(1231,357,ls),
(1231,383,o),
(1216,431,o),
(1185,468,o),
(1138,490,o),
(1107,490,qs),
(1076,490,o),
(1029,468,o),
(998,431,o),
(983,383,o),
(983,357,qs)
);
},
{
closed = 1;
nodes = (
(469,109,l),
(328,185,l),
(1039,1323,l),
(1180,1247,l)
);
}
);
width = 1512;
}
);
unicode = 37;
},
{
glyphname = ampersand;
layers = (
{
layerId = "F74B8AD3-7B55-4203-B0B4-8E4700CE7707";
shapes = (
{
closed = 1;
nodes = (
(71,455,o),
(110,558,o),
(179,648,o),
(276,729,o),
(335,770,q),
(270,857,o),
(196,1010,o),
(196,1093,qs),
(196,1179,o),
(253,1320,o),
(356,1421,o),
(503,1476,o),
(593,1476,qs),
(678,1476,o),
(816,1422,o),
(913,1329,o),
(965,1206,o),
(965,1137,qs),
(965,1086,o),
(936,996,o),
(884,916,o),
(813,846,o),
(770,816,qs),
(677,749,l),
(928,457,l),
(956,512,o),
(987,640,o),
(987,713,q),
(1233,713,l),
(1233,579,o),
(1172,347,o),
(1102,253,q),
(1320,0,l),
(992,0,l),
(917,86,l),
(835,32,o),
(653,-20,o),
(547,-20,qs),
(437,-20,o),
(260,41,o),
(137,150,o),
(71,302,o),
(71,392,qs)
);
},
{
closed = 1;
nodes = (
(665,212,o),
(758,270,q),
(471,602,l),
(450,587,l),
(422,563,o),
(387,516,o),
(368,471,o),
(361,428,o),
(361,408,qs),
(361,366,o),
(389,294,o),
(442,241,o),
(516,212,o),
(561,212,qs)
);
},
{
closed = 1;
nodes = (
(455,1052,o),
(503,960,o),
(543,908,q),
(620,959,ls),
(651,979,o),
(692,1017,o),
(715,1056,o),
(724,1096,o),
(724,1119,qs),
(724,1142,o),
(706,1186,o),
(673,1221,o),
(623,1243,o),
(592,1243,qs),
(558,1243,o),
(507,1220,o),
(472,1180,o),
(455,1127,o),
(455,1097,qs)
);
}
);
width = 1344;
}
);
unicode = 38;
},
{
glyphname = quotesingle;
layers = (
{
layerId = "F74B8AD3-7B55-4203-B0B4-8E4700CE7707";
shapes = (
{
closed = 1;
nodes = (
(275,1389,l),
(246,985,l),
(63,985,l),
(63,1536,l),
(275,1536,l)
);
}
);
width = 331;
}
);
leftKerningGroup = minute2;
rightKerningGroup = minute;
unicode = 39;
},
{
glyphname = parenleft;
layers = (
{
layerId = "F74B8AD3-7B55-4203-B0B4-8E4700CE7707";
shapes = (
{
closed = 1;
nodes = (
(124,592,ls),
(124,733,o),
(167,980,o),
(240,1191,o),
(338,1364,o),
(449,1498,o),
(567,1591,o),
(623,1616,q),
(679,1460,l),
(622,1418,o),
(511,1274,o),
(423,1062,o),
(369,777,o),
(369,594,qs),
(369,567,ls),
(369,384,o),
(423,99,o),
(511,-114,o),
(622,-259,o),
(679,-302,q),
(623,-455,l),
(567,-430,o),
(449,-337,o),
(338,-203,o),
(240,-30,o),
(167,181,o),
(124,428,o),
(124,569,qs)
);
}
);
width = 719;
}
);
unicode = 40;
},
{
glyphname = parenright;
layers = (
{
layerId = "F74B8AD3-7B55-4203-B0B4-8E4700CE7707";
shapes = (
{
closed = 1;
nodes = (
(609,569,ls),
(609,433,o),
(565,190,o),
(490,-21,o),
(390,-197,o),
(276,-334,o),
(154,-430,o),
(96,-455,q),
(40,-302,l),
(96,-260,o),
(206,-115,o),
(294,98,o),
(349,384,o),
(349,567,qs),
(349,594,ls),
(349,777,o),
(293,1063,o),
(204,1276,o),
(94,1421,o),
(40,1463,q),
(96,1616,l),
(154,1591,o),
(276,1495,o),
(390,1358,o),
(490,1182,o),
(565,971,o),
(609,728,o),
(609,592,qs)
);
}
);
width = 722;
}
);
unicode = 41;
},
{
glyphname = asterisk;
layers = (
{
layerId = "F74B8AD3-7B55-4203-B0B4-8E4700CE7707";
shapes = (
{
closed = 1;
nodes = (
(341,962,l),
(27,1051,l),
(86,1232,l),
(397,1107,l),
(377,1456,l),
(573,1456,l),
(553,1100,l),
(856,1223,l),
(915,1040,l),
(595,951,l),
(805,685,l),
(646,572,l),
(464,864,l),
(284,582,l),
(125,690,l)
);
}
);
width = 928;
}
);
unicode = 42;
},
{
glyphname = plus;
layers = (
{
layerId = "F74B8AD3-7B55-4203-B0B4-8E4700CE7707";
shapes = (
{
closed = 1;
nodes = (
(694,815,l),
(1055,815,l),
(1055,554,l),
(694,554,l),
(694,146,l),
(419,146,l),
(419,554,l),
(57,554,l),
(57,815,l),
(419,815,l),
(419,1206,l),
(694,1206,l)
);
}
);
width = 1118;
}
);
unicode = 43;
},
{
glyphname = comma;
layers = (
{
layerId = "F74B8AD3-7B55-4203-B0B4-8E4700CE7707";
shapes = (
{
closed = 1;
nodes = (
(383,49,l),
(383,-7,o),
(354,-123,o),
(301,-232,o),
(229,-328,o),
(186,-365,q),
(35,-286,l),
(54,-252,o),
(91,-184,o),
(121,-108,o),
(140,-20,o),
(140,34,qs),
(140,246,l),
(384,246,l)
);
}
);
width = 500;
}
);
leftKerningGroup = comma2;
rightKerningGroup = comma;
unicode = 44;
},
{
glyphname = hyphen;
layers = (
{
layerId = "F74B8AD3-7B55-4203-B0B4-8E4700CE7707";
shapes = (
{
closed = 1;
nodes = (
(673,507,l),
(110,507,l),
(110,740,l),
(673,740,l)
);
}
);
width = 794;
}
);
leftKerningGroup = hyphen;
unicode = 45;
},
{
glyphname = period;
layers = (
{
layerId = "F74B8AD3-7B55-4203-B0B4-8E4700CE7707";
shapes = (
{
closed = 1;
nodes = (
(145,253,o),
(248,356,o),
(393,356,o),
(495,253,o),
(495,108,o),
(393,5,o),
(320,5,qs),
(300,5,o),
(261,14,o),
(225,32,o),
(209,45,qs),
(192,59,o),
(166,94,o),
(158,113,qs),
(145,145,o),
(145,180,qs)
);
}
);
width = 641;
}
);
leftKerningGroup = comma2;
rightKerningGroup = comma;
unicode = 46;
},
{
glyphname = slash;
layers = (
{
layerId = "F74B8AD3-7B55-4203-B0B4-8E4700CE7707";
shapes = (
{
closed = 1;
nodes = (
(202,-125,l),
(-13,-125,l),
(523,1456,l),
(738,1456,l)
);
}
);
width = 765;
}
);
unicode = 47;
},
{
glyphname = zero;
layers = (
{
layerId = "F74B8AD3-7B55-4203-B0B4-8E4700CE7707";
shapes = (
{
closed = 1;
nodes = (
(1079,602,ls),
(1079,438,o),
(1008,203,o),
(879,51,o),
(698,-20,o),
(588,-20,qs),
(478,-20,o),
(297,51,o),
(167,203,o),
(95,438,o),
(95,602,qs),
(95,855,ls),
(95,1019,o),
(166,1254,o),
(296,1405,o),
(476,1476,o),
(586,1476,qs),
(696,1476,o),
(877,1405,o),
(1007,1254,o),
(1079,1019,o),
(1079,855,qs)
);
},
{
closed = 1;
nodes = (
(790,896,ls),
(790,993,o),
(763,1125,o),
(710,1206,o),
(634,1242,o),
(586,1242,qs),
(538,1242,o),
(463,1206,o),
(411,1125,o),
(384,993,o),
(384,896,qs),
(384,564,ls),
(384,466,o),
(412,332,o),
(464,249,o),
(540,213,o),
(588,213,qs),
(636,213,o),
(712,249,o),
(763,332,o),
(790,466,o),
(790,564,qs)
);
}
);
width = 1175;
}
);
unicode = 48;
},
{
glyphname = one;
layers = (
{
layerId = "F74B8AD3-7B55-4203-B0B4-8E4700CE7707";
shapes = (
{
closed = 1;
nodes = (
(801,0,l),
(512,0,l),
(512,1114,l),
(167,1007,l),
(167,1242,l),
(770,1458,l),
(801,1458,l)
);
}
);
width = 1175;
}
);
unicode = 49;
},
{
glyphname = two;
layers = (
{
layerId = "F74B8AD3-7B55-4203-B0B4-8E4700CE7707";
shapes = (
{
closed = 1;
nodes = (
(1097,0,l),
(99,0,l),
(99,198,l),
(570,700,l),
(623,758,o),
(696,854,o),
(741,934,o),
(760,1003,o),
(760,1035,qs),
(760,1132,o),
(662,1243,o),
(571,1243,qs),
(520,1243,o),
(441,1206,o),
(388,1141,o),
(360,1051,o),
(360,998,q),
(70,998,l),
(70,1096,o),
(140,1270,o),
(272,1400,o),
(459,1476,o),
(576,1476,qs),
(691,1476,o),
(868,1419,o),
(988,1313,o),
(1050,1159,o),
(1050,1063,qs),
(1050,990,o),
(1004,854,o),
(920,718,o),
(801,579,o),
(728,504,q),
(471,233,l),
(1097,233,l)
);
}
);
width = 1175;
}
);
unicode = 50;
},
{
glyphname = three;
layers = (
{
layerId = "F74B8AD3-7B55-4203-B0B4-8E4700CE7707";
shapes = (
{
closed = 1;
nodes = (
(393,856,l),
(547,856,ls),
(657,856,o),
(763,966,o),
(763,1057,qs),
(763,1097,o),
(739,1166,o),
(690,1215,o),
(616,1243,o),
(566,1243,qs),
(526,1243,o),
(455,1220,o),
(402,1178,o),
(371,1117,o),
(371,1079,q),
(82,1079,l),
(82,1169,o),
(157,1316,o),
(286,1419,o),
(460,1476,o),
(559,1476,qs),
(669,1476,o),
(850,1423,o),
(980,1318,o),
(1052,1163,o),
(1052,1061,qs),
(1052,1014,o),
(1023,922,o),
(966,841,o),
(884,772,o),
(831,748,q),
(954,704,o),
(1075,528,o),
(1075,408,qs),
(1075,306,o),
(996,146,o),
(858,37,o),
(669,-20,o),
(559,-20,qs),
(466,-20,o),
(288,30,o),
(149,134,o),
(64,291,o),
(64,399,q),
(353,399,l),
(353,358,o),
(385,290,o),
(442,241,o),
(520,213,o),
(566,213,qs),
(617,213,o),
(699,241,o),
(756,294,o),
(786,367,o),
(786,412,qs),
(786,470,o),
(753,553,o),
(691,605,o),
(602,630,o),
(547,630,qs),
(393,630,l)
);
}
);
width = 1175;
}
);
unicode = 51;
},
{
glyphname = four;
layers = (
{
layerId = "F74B8AD3-7B55-4203-B0B4-8E4700CE7707";
shapes = (
{
closed = 1;
nodes = (
(954,548,l),
(1119,548,l),
(1119,315,l),
(954,315,l),
(954,0,l),
(665,0,l),
(665,315,l),
(68,315,l),
(55,497,l),
(662,1456,l),
(954,1456,l)
);
},
{
closed = 1;
nodes = (
(343,548,l),
(665,548,l),
(665,1062,l),
(646,1029,l)
);
}
);
width = 1175;
}
);
unicode = 52;
},
{
glyphname = five;
layers = (
{
layerId = "F74B8AD3-7B55-4203-B0B4-8E4700CE7707";
shapes = (
{
closed = 1;
nodes = (
(142,716,l),
(226,1456,l),
(1042,1456,l),
(1042,1215,l),
(463,1215,l),
(427,902,l),
(442,910,o),
(486,929,o),
(543,946,o),
(610,957,o),
(646,957,qs),
(751,957,o),
(916,890,o),
(1030,764,o),
(1090,582,o),
(1090,467,qs),
(1090,370,o),
(1030,194,o),
(908,60,o),
(723,-20,o),
(598,-20,qs),
(504,-20,o),
(328,37,o),
(192,146,o),
(108,304,o),
(105,405,q),
(391,405,l),
(400,314,o),
(509,213,o),
(597,213,qs),
(652,213,o),
(729,255,o),
(778,327,o),
(801,426,o),
(801,483,qs),
(801,540,o),
(773,635,o),
(715,702,o),
(627,739,o),
(567,739,qs),
(527,739,o),
(468,725,o),
(422,703,o),
(387,674,o),
(372,659,q)
);
}
);
width = 1175;
}
);
unicode = 53;
},
{
glyphname = six;
layers = (
{
layerId = "F74B8AD3-7B55-4203-B0B4-8E4700CE7707";
shapes = (
{
closed = 1;
nodes = (
(883,1471,l),
(883,1233,l),
(866,1233,ls),
(763,1233,o),
(599,1180,o),
(480,1082,o),
(407,942,o),
(395,855,q),
(448,909,o),
(595,974,o),
(689,974,qs),
(792,974,o),
(947,895,o),
(1051,760,o),
(1103,581,o),
(1103,480,qs),
(1103,374,o),
(1034,191,o),
(906,57,o),
(725,-20,o),
(613,-20,qs),
(496,-20,o),
(306,65,o),
(173,218,o),
(100,431,o),
(100,559,qs),
(100,671,ls),
(100,847,o),
(200,1141,o),
(390,1353,o),
(666,1471,o),
(842,1471,qs)
);
},
{
closed = 1;
nodes = (
(562,742,o),
(496,721,o),
(442,684,o),
(401,635,o),
(389,608,q),
(389,521,ls),
(389,444,o),
(421,328,o),
(478,251,o),
(559,213,o),
(607,213,qs),
(654,213,o),
(731,253,o),
(785,323,o),
(815,420,o),
(815,477,qs),
(815,535,o),
(786,632,o),
(730,703,o),
(651,742,o),
(601,742,qs)
);
}
);
width = 1174;
}
);
unicode = 54;
},
{
glyphname = seven;
layers = (
{
layerId = "F74B8AD3-7B55-4203-B0B4-8E4700CE7707";
shapes = (
{
closed = 1;
nodes = (
(1089,1294,l),
(526,0,l),
(221,0,l),
(785,1222,l),
(61,1222,l),
(61,1456,l),
(1089,1456,l)
);
}
);
width = 1175;
}
);
unicode = 55;
},
{
glyphname = eight;
layers = (
{
layerId = "F74B8AD3-7B55-4203-B0B4-8E4700CE7707";
shapes = (
{
closed = 1;
nodes = (
(1048,963,o),
(942,799,o),
(849,750,q),
(955,699,o),
(1079,520,o),
(1079,399,qs),
(1079,295,o),
(1005,139,o),
(874,33,o),
(694,-20,o),
(588,-20,qs),
(483,-20,o),
(302,33,o),
(170,139,o),
(95,295,o),
(95,399,qs),
(95,520,o),
(219,700,o),
(324,750,q),
(231,799,o),
(126,963,o),
(126,1069,qs),
(126,1168,o),
(195,1319,o),
(317,1423,o),
(486,1476,o),
(587,1476,qs),
(688,1476,o),
(857,1423,o),
(980,1319,o),
(1048,1168,o),
(1048,1069,qs)
);
},
{
closed = 1;
nodes = (
(789,468,o),
(760,546,o),
(707,600,o),
(632,629,o),
(586,629,qs),
(540,629,o),
(466,600,o),
(413,546,o),
(384,468,o),
(384,420,qs),
(384,372,o),
(413,295,o),
(466,241,o),
(541,213,o),
(588,213,qs),
(682,213,o),
(789,323,o),
(789,420,qs)
);
},
{
closed = 1;
nodes = (
(759,1140,o),
(669,1243,o),
(587,1243,qs),
(506,1243,o),
(416,1143,o),
(416,1055,qs),
(416,968,o),
(506,862,o),
(588,862,qs),
(670,862,o),
(759,968,o),
(759,1055,qs)
);
}
);
width = 1175;
}
);
unicode = 56;
},
{
glyphname = nine;
layers = (
{
layerId = "F74B8AD3-7B55-4203-B0B4-8E4700CE7707";
shapes = (
{
closed = 1;
nodes = (
(323,227,ls),
(433,227,o),
(595,274,o),
(706,364,o),
(767,496,o),
(775,582,q),
(723,531,o),
(588,471,o),
(511,471,qs),
(408,471,o),
(249,546,o),
(141,677,o),
(86,856,o),
(86,961,qs),
(86,1067,o),
(155,1254,o),
(282,1394,o),
(463,1476,o),
(575,1476,qs),
(687,1476,o),
(870,1390,o),
(998,1234,o),
(1068,1015,o),
(1068,882,qs),
(1068,781,ls),
(1068,602,o),
(976,309,o),
(791,100,o),
(513,-14,o),
(326,-14,qs),
(303,-14,l),
(303,227,l)
);
},
{
closed = 1;
nodes = (
(652,692,o),
(753,764,o),
(779,815,q),
(779,934,ls),
(779,1012,o),
(748,1128,o),
(692,1205,o),
(617,1243,o),
(573,1243,qs),
(525,1243,o),
(451,1196,o),
(400,1118,o),
(374,1018,o),
(374,964,qs),
(374,908,o),
(400,810,o),
(451,735,o),
(529,692,o),
(582,692,qs)
);
}
);
width = 1175;
}
);
unicode = 57;
},
{
glyphname = colon;
layers = (
{
layerId = "F74B8AD3-7B55-4203-B0B4-8E4700CE7707";
shapes = (
{
closed = 1;
nodes = (
(145,1123,o),
(196,1174,qs),
(222,1199,o),
(285,1226,o),
(320,1226,qs),
(393,1226,o),
(495,1123,o),
(495,978,o),
(393,875,o),
(320,875,qs),
(305,875,o),
(275,880,o),
(247,890,o),
(221,905,o),
(209,915,qs),
(174,944,o),
(158,983,qs),
(152,999,o),
(145,1033,o),
(145,1050,qs)
);
},
{
closed = 1;
nodes = (
(145,253,o),
(248,356,o),
(393,356,o),
(495,253,o),
(495,108,o),
(393,5,o),
(320,5,qs),
(300,5,o),
(261,14,o),
(225,32,o),
(209,45,qs),
(192,59,o),
(166,94,o),
(158,113,qs),
(145,145,o),
(145,180,qs)
);
}
);
width = 641;
}
);
unicode = 58;
},
{
glyphname = less;
layers = (
{
layerId = "F74B8AD3-7B55-4203-B0B4-8E4700CE7707";
shapes = (
{
closed = 1;
nodes = (
(345,618,l),
(915,417,l),
(915,137,l),
(54,502,l),
(54,738,l),
(915,1103,l),
(915,823,l)
);
}
);
width = 1042;
}
);
unicode = 60;
},
{
glyphname = equal;
layers = (
{
layerId = "F74B8AD3-7B55-4203-B0B4-8E4700CE7707";
shapes = (
{
closed = 1;
nodes = (
(1030,746,l),
(136,746,l),
(136,982,l),
(1030,982,l)
);
},
{
closed = 1;
nodes = (
(1030,313,l),
(136,313,l),
(136,549,l),
(1030,549,l)
);
}
);
width = 1172;
}
);
unicode = 61;
},
{
glyphname = greater;
layers = (
{
layerId = "F74B8AD3-7B55-4203-B0B4-8E4700CE7707";
shapes = (
{
closed = 1;
nodes = (
(701,621,l),
(120,824,l),
(120,1102,l),
(991,737,l),
(991,502,l),
(120,136,l),
(120,415,l)
);
}
);
width = 1058;
}
);
unicode = 62;
},
{
glyphname = question;
layers = (
{
layerId = "F74B8AD3-7B55-4203-B0B4-8E4700CE7707";
shapes = (
{
closed = 1;
nodes = (
(347,447,l),
(347,515,o),
(362,622,o),
(398,712,o),
(456,789,o),
(499,828,qs),
(533,858,o),
(591,915,o),
(633,972,o),
(656,1035,o),
(656,1071,qs),
(656,1156,o),
(577,1240,o),
(500,1240,qs),
(469,1240,o),
(410,1221,o),
(364,1179,o),
(336,1114,o),
(335,1069,q),
(45,1069,l),
(46,1174,o),
(118,1327,o),
(240,1427,o),
(405,1476,o),
(500,1476,qs),
(605,1476,o),
(771,1424,o),
(885,1325,o),
(946,1178,o),
(946,1084,qs),
(946,1018,o),
(906,912,o),
(838,818,o),
(750,731,o),
(701,686,qs),
(673,660,o),
(636,608,o),
(613,551,o),
(604,486,o),
(603,447,q)
);
},
{
closed = 1;
nodes = (
(318,173,o),
(341,229,o),
(383,270,o),
(443,294,o),
(480,294,qs),
(517,294,o),
(577,270,o),
(619,229,o),
(642,173,o),
(642,140,qs),
(642,108,o),
(619,52,o),
(577,11,o),
(517,-12,o),
(480,-12,qs),
(443,-12,o),
(383,11,o),
(341,52,o),
(318,108,o),
(318,140,qs)
);
}
);
width = 1019;
}
);
unicode = 63;
},
{
glyphname = at;
layers = (
{
layerId = "F74B8AD3-7B55-4203-B0B4-8E4700CE7707";
shapes = (
{
closed = 1;
nodes = (
(1743,468,o),
(1719,333,o),
(1673,209,o),
(1603,102,o),
(1508,24,o),
(1385,-21,o),
(1309,-21,qs),
(1223,-21,o),
(1098,53,o),
(1066,122,q),
(1016,52,o),
(883,-18,o),
(805,-18,qs),
(732,-18,o),
(617,46,o),
(541,163,o),
(509,328,o),
(519,430,q),
(533,558,o),
(616,765,o),
(739,911,o),
(896,990,o),
(984,990,qs),
(1042,990,o),
(1130,972,o),
(1201,942,o),
(1261,902,o),
(1291,881,q),
(1240,303,l),
(1234,253,o),
(1249,190,o),
(1281,154,o),
(1323,140,o),
(1345,140,qs),
(1394,140,o),
(1473,200,o),
(1531,305,o),
(1564,447,o),
(1567,529,q),
(1575,694,o),
(1510,961,o),
(1360,1150,o),
(1123,1253,o),
(960,1253,qs),
(807,1253,o),
(562,1134,o),
(387,923,o),
(288,633,o),
(280,463,qs),
(272,281,o),
(347,5,o),
(504,-183,o),
(741,-278,o),
(895,-278,qs),
(938,-278,o),
(1029,-268,o),
(1116,-250,o),
(1194,-225,o),
(1226,-210,q),
(1264,-364,l),
(1229,-387,o),
(1139,-420,o),
(1040,-442,o),
(937,-453,o),
(891,-453,qs),
(693,-453,o),
(384,-333,o),
(177,-101,o),
(75,241,o),
(84,463,qs),
(93,668,o),
(224,1017,o),
(452,1272,o),
(769,1416,o),
(964,1416,qs),
(1159,1416,o),
(1458,1289,o),
(1658,1058,o),
(1754,734,o),
(1746,536,qs)
);
},
{
closed = 1;
nodes = (
(730,298,o),
(798,161,o),
(874,161,qs),
(892,161,o),
(935,176,o),
(980,214,o),
(1022,278,o),
(1040,328,q),
(1082,801,l),
(1064,807,o),
(1024,814,o),
(1002,814,qs),
(887,814,o),
(760,618,o),
(741,430,q)
);
}
);
width = 1833;
}
);
unicode = 64;
},
{
glyphname = A;
layers = (
{
layerId = "F74B8AD3-7B55-4203-B0B4-8E4700CE7707";
shapes = (
{
closed = 1;
nodes = (
(952,300,l),
(426,300,l),
(326,0,l),
(7,0,l),
(549,1456,l),
(827,1456,l),
(1372,0,l),
(1053,0,l)
);
},
{
closed = 1;
nodes = (
(507,543,l),
(871,543,l),
(688,1088,l)
);
}
);
width = 1378;
}
);
leftKerningGroup = A2;
rightKerningGroup = A;
unicode = 65;
},
{
glyphname = B;
layers = (
{
layerId = "F74B8AD3-7B55-4203-B0B4-8E4700CE7707";
shapes = (
{
closed = 1;
nodes = (
(130,0,l),
(130,1456,l),
(640,1456,ls),
(767,1456,o),
(967,1408,o),
(1106,1309,o),
(1179,1159,o),
(1179,1057,qs),
(1179,1007,o),
(1154,915,o),
(1103,835,o),
(1025,770,o),
(971,749,q),
(1035,733,o),
(1126,668,o),
(1185,582,o),
(1212,481,o),
(1212,428,qs),
(1212,216,o),
(939,0,o),
(687,0,qs)
);
},
{
closed = 1;
nodes = (
(430,634,l),
(430,241,l),
(687,241,ls),
(745,241,o),
(829,270,o),
(885,321,o),
(912,390,o),
(912,431,qs),
(912,478,o),
(888,553,o),
(837,606,o),
(755,634,o),
(698,634,qs)
);
},
{
closed = 1;
nodes = (
(430,846,l),
(652,846,l),
(767,848,o),
(879,941,o),
(879,1027,qs),
(879,1126,o),
(764,1213,o),
(640,1213,qs),
(430,1213,l)
);
}
);
width = 1307;
}
);
unicode = 66;
},
{
glyphname = C;
layers = (
{
layerId = "F74B8AD3-7B55-4203-B0B4-8E4700CE7707";
shapes = (
{
closed = 1;
nodes = (
(1273,485,l),
(1265,374,o),
(1181,188,o),
(1033,55,o),
(822,-20,o),
(687,-20,qs),
(547,-20,o),
(324,77,o),
(169,259,o),
(86,518,o),
(86,679,qs),
(86,775,ls),
(86,936,o),
(172,1196,o),
(329,1378,o),
(553,1476,o),
(691,1476,qs),
(827,1476,o),
(1036,1399,o),
(1182,1262,o),
(1264,1073,o),
(1275,962,q),
(975,962,l),
(970,1027,o),
(935,1127,o),
(869,1195,o),
(765,1230,o),
(691,1230,qs),
(539,1230,o),
(390,1009,o),
(390,777,qs),
(390,679,ls),
(390,566,o),
(423,396,o),
(494,282,o),
(607,225,o),
(687,225,qs),
(758,225,o),
(861,257,o),
(930,322,o),
(968,420,o),
(973,485,q)
);
}
);
width = 1340;
}
);
leftKerningGroup = C;
unicode = 67;
},
{
glyphname = D;
layers = (
{
layerId = "F74B8AD3-7B55-4203-B0B4-8E4700CE7707";
shapes = (
{
closed = 1;
nodes = (
(130,0,l),
(130,1456,l),
(578,1456,ls),
(725,1456,o),
(970,1355,o),
(1145,1172,o),
(1243,916,o),
(1243,760,qs),
(1243,694,ls),
(1243,538,o),
(1146,283,o),
(969,100,o),
(723,0,o),
(575,0,qs)
);
},
{
closed = 1;
nodes = (
(430,1213,l),
(430,241,l),
(575,241,ls),
(753,241,o),
(939,476,o),
(939,694,qs),
(939,762,ls),
(939,984,o),
(755,1213,o),
(578,1213,qs)
);
}
);
width = 1331;
}
);
rightKerningGroup = D;
unicode = 68;
},
{
glyphname = E;
layers = (
{
layerId = "F74B8AD3-7B55-4203-B0B4-8E4700CE7707";
shapes = (
{
closed = 1;
nodes = (
(1006,631,l),
(430,631,l),
(430,241,l),
(1106,241,l),
(1106,0,l),
(130,0,l),
(130,1456,l),
(1104,1456,l),
(1104,1213,l),
(430,1213,l),
(430,866,l),
(1006,866,l)
);
}
);
width = 1152;
}
);
unicode = 69;
},
{
glyphname = F;
layers = (
{
layerId = "F74B8AD3-7B55-4203-B0B4-8E4700CE7707";
shapes = (
{
closed = 1;
nodes = (
(1006,595,l),
(430,595,l),
(430,0,l),
(130,0,l),
(130,1456,l),
(1078,1456,l),
(1078,1213,l),
(430,1213,l),
(430,837,l),
(1006,837,l)
);
}
);
width = 1122;
}
);
unicode = 70;
},
{
glyphname = G;
layers = (
{
layerId = "F74B8AD3-7B55-4203-B0B4-8E4700CE7707";
shapes = (
{
closed = 1;
nodes = (
(1282,184,l),
(1256,153,o),
(1166,82,o),
(1030,21,o),
(845,-20,o),
(725,-20,qs),
(584,-20,o),
(351,73,o),
(185,253,o),
(94,515,o),
(94,684,qs),
(94,770,ls),
(94,939,o),
(181,1202,o),
(340,1382,o),
(566,1476,o),
(704,1476,qs),
(846,1476,o),
(1053,1405,o),
(1192,1277,o),
(1270,1099,o),
(1282,993,q),
(990,993,l),
(981,1048,o),
(943,1137,o),
(877,1200,o),
(780,1234,o),
(713,1234,qs),
(559,1234,o),
(399,1001,o),
(399,772,qs),
(399,684,ls),
(399,455,o),
(573,221,o),
(741,221,qs),
(795,221,o),
(875,235,o),
(932,256,o),
(970,281,o),
(982,293,q),
(982,544,l),
(709,544,l),
(709,765,l),
(1282,765,l)
);
}
);
width = 1395;
}
);
leftKerningGroup = C;
unicode = 71;
},
{
glyphname = H;
layers = (
{
layerId = "F74B8AD3-7B55-4203-B0B4-8E4700CE7707";
shapes = (
{
closed = 1;
nodes = (
(1315,0,l),
(1015,0,l),
(1015,624,l),
(430,624,l),
(430,0,l),
(130,0,l),
(130,1456,l),
(430,1456,l),
(430,866,l),
(1015,866,l),
(1015,1456,l),
(1315,1456,l)
);
}
);
width = 1447;
}
);
rightKerningGroup = H;
unicode = 72;
},
{
glyphname = I;
layers = (
{
layerId = "F74B8AD3-7B55-4203-B0B4-8E4700CE7707";
shapes = (
{
closed = 1;
nodes = (
(449,0,l),
(149,0,l),
(149,1456,l),
(449,1456,l)
);
}
);
width = 597;
}
);
rightKerningGroup = H;
unicode = 73;
},
{
glyphname = J;
layers = (
{
layerId = "F74B8AD3-7B55-4203-B0B4-8E4700CE7707";
shapes = (
{
closed = 1;
nodes = (
(717,1456,l),
(1017,1456,l),
(1017,448,ls),
(1017,339,o),
(943,165,o),
(812,44,o),
(633,-20,o),
(529,-20,qs),
(422,-20,o),
(243,34,o),
(113,145,o),
(40,314,o),
(40,430,q),
(342,430,l),
(342,371,o),
(368,291,o),
(417,242,o),
(486,221,o),
(529,221,qs),
(615,221,o),
(717,339,o),
(717,448,qs)
);
}
);
width = 1144;
}
);
rightKerningGroup = J;
unicode = 74;
},
{
glyphname = K;
layers = (
{
layerId = "F74B8AD3-7B55-4203-B0B4-8E4700CE7707";
shapes = (
{
closed = 1;
nodes = (
(586,584,l),
(430,416,l),
(430,0,l),
(130,0,l),
(130,1456,l),
(430,1456,l),
(430,796,l),
(562,977,l),
(933,1456,l),
(1302,1456,l),
(785,809,l),
(1317,0,l),
(960,0,l)
);
}
);
width = 1300;
}
);
unicode = 75;
},
{
glyphname = L;
layers = (
{
layerId = "F74B8AD3-7B55-4203-B0B4-8E4700CE7707";
shapes = (
{
closed = 1;
nodes = (
(430,241,l),
(1067,241,l),
(1067,0,l),
(130,0,l),
(130,1456,l),
(430,1456,l)
);
}
);
width = 1109;
}
);
unicode = 76;
},
{
glyphname = M;
layers = (
{
layerId = "F74B8AD3-7B55-4203-B0B4-8E4700CE7707";
shapes = (
{
closed = 1;
nodes = (
(522,1456,l),
(896,400,l),
(1268,1456,l),
(1662,1456,l),
(1662,0,l),
(1361,0,l),
(1361,398,l),
(1391,1085,l),
(998,0,l),
(792,0,l),
(400,1084,l),
(430,398,l),
(430,0,l),
(130,0,l),
(130,1456,l)
);
}
);
width = 1794;
}
);
rightKerningGroup = H;
unicode = 77;
},
{
glyphname = N;
layers = (
{
layerId = "F74B8AD3-7B55-4203-B0B4-8E4700CE7707";
shapes = (
{
closed = 1;
nodes = (
(1314,0,l),
(1014,0,l),
(430,958,l),
(430,0,l),
(130,0,l),
(130,1456,l),
(430,1456,l),
(1015,496,l),
(1015,1456,l),
(1314,1456,l)
);
}
);
width = 1446;
}
);
rightKerningGroup = H;
unicode = 78;
},
{
glyphname = O;
layers = (
{
layerId = "F74B8AD3-7B55-4203-B0B4-8E4700CE7707";
shapes = (
{
closed = 1;
nodes = (
(1326,695,ls),
(1326,528,o),
(1236,263,o),
(1073,79,o),
(845,-20,o),
(708,-20,qs),
(571,-20,o),
(343,79,o),
(178,263,o),
(86,528,o),
(86,695,qs),
(86,759,ls),
(86,925,o),
(177,1191,o),
(341,1377,o),
(569,1476,o),
(706,1476,qs),
(843,1476,o),
(1071,1377,o),
(1235,1191,o),
(1326,925,o),
(1326,759,qs)
);
},
{
closed = 1;
nodes = (
(1022,761,ls),
(1022,990,o),
(858,1228,o),
(706,1228,qs),
(554,1228,o),
(390,990,o),
(390,761,qs),
(390,695,ls),
(390,581,o),
(433,406,o),
(514,287,o),
(632,226,o),
(708,226,qs),
(860,226,o),
(1022,466,o),
(1022,695,qs)
);
}
);
width = 1414;
}
);
leftKerningGroup = C;
rightKerningGroup = D;
unicode = 79;
},
{
glyphname = P;
layers = (
{
layerId = "F74B8AD3-7B55-4203-B0B4-8E4700CE7707";
shapes = (
{
closed = 1;
nodes = (
(430,513,l),
(430,0,l),
(130,0,l),
(130,1456,l),
(698,1456,ls),
(827,1456,o),
(1030,1384,o),
(1171,1255,o),
(1245,1078,o),
(1245,974,qs),
(1245,868,o),
(1171,698,o),
(1030,578,o),
(827,513,o),
(698,513,qs)
);
},
{
closed = 1;
nodes = (
(430,756,l),
(698,756,ls),
(762,756,o),
(855,788,o),
(914,845,o),
(942,925,o),
(942,972,qs),
(942,1019,o),
(914,1106,o),
(855,1173,o),
(762,1213,o),
(698,1213,qs),
(430,1213,l)
);
}
);
width = 1321;
}
);
unicode = 80;
},
{
glyphname = Q;
layers = (
{
layerId = "F74B8AD3-7B55-4203-B0B4-8E4700CE7707";
shapes = (
{
closed = 1;
nodes = (
(1324,695,ls),
(1324,491,o),
(1192,190,o),
(1075,99,q),
(1317,-91,l),
(1126,-260,l),
(816,-11,l),
(763,-20,o),
(706,-20,qs),
(569,-20,o),
(341,79,o),
(176,263,o),
(84,528,o),
(84,695,qs),
(84,759,ls),
(84,925,o),
(175,1191,o),
(339,1377,o),
(567,1476,o),
(704,1476,qs),
(841,1476,o),
(1069,1377,o),
(1233,1191,o),
(1324,925,o),
(1324,759,qs)
);
},
{
closed = 1;
nodes = (
(1020,761,ls),
(1020,990,o),
(856,1228,o),
(704,1228,qs),
(552,1228,o),
(388,990,o),
(388,761,qs),
(388,695,ls),
(388,581,o),
(431,406,o),
(512,287,o),
(630,226,o),
(706,226,qs),
(858,226,o),
(1020,466,o),
(1020,695,qs)
);
}
);
width = 1414;
}
);
leftKerningGroup = C;
unicode = 81;
},
{
glyphname = R;
layers = (
{
layerId = "F74B8AD3-7B55-4203-B0B4-8E4700CE7707";
shapes = (
{
closed = 1;
nodes = (
(669,533,l),
(430,533,l),
(430,0,l),
(130,0,l),
(130,1456,l),
(671,1456,ls),
(797,1456,o),
(997,1399,o),
(1135,1288,o),
(1209,1124,o),
(1209,1016,qs),
(1209,936,o),
(1173,809,o),
(1105,710,o),
(1009,636,o),
(949,609,q),
(1264,14,l),
(1264,0,l),
(942,0,l)
);
},
{
closed = 1;
nodes = (
(430,776,l),
(672,776,ls),
(731,776,o),
(820,807,o),
(879,864,o),
(909,943,o),
(909,992,qs),
(909,1095,o),
(792,1213,o),
(671,1213,qs),
(430,1213,l)
);
}
);
width = 1307;
}
);
unicode = 82;
},
{
glyphname = S;
layers = (
{
layerId = "F74B8AD3-7B55-4203-B0B4-8E4700CE7707";
shapes = (
{
closed = 1;
nodes = (
(885,420,o),
(863,481,o),
(800,533,o),
(689,583,o),
(601,611,qs),
(501,643,o),
(324,723,o),
(191,832,o),
(114,974,o),
(114,1069,qs),
(114,1160,o),
(193,1311,o),
(336,1417,o),
(533,1476,o),
(651,1476,qs),
(772,1476,o),
(970,1409,o),
(1110,1289,o),
(1186,1124,o),
(1186,1026,q),
(886,1026,l),
(886,1072,o),
(857,1150,o),
(797,1206,o),
(707,1237,o),
(646,1237,qs),
(587,1237,o),
(500,1211,o),
(443,1165,o),
(414,1103,o),
(414,1068,qs),
(414,996,o),
(561,899,o),
(703,857,q),
(822,820,o),
(1003,730,o),
(1124,616,o),
(1186,474,o),
(1186,384,qs),
(1186,288,o),
(1111,138,o),
(973,35,o),
(778,-20,o),
(658,-20,qs),
(586,-20,o),
(442,5,o),
(311,57,o),
(199,135,o),
(116,241,o),
(69,376,o),
(69,458,q),
(370,458,l),
(370,392,o),
(412,300,o),
(487,243,o),
(593,217,o),
(658,217,qs),
(716,217,o),
(802,242,o),
(858,286,o),
(885,347,o),
(885,382,qs)
);
}
);
width = 1259;
}
);
unicode = 83;
},
{
glyphname = T;
layers = (
{
layerId = "F74B8AD3-7B55-4203-B0B4-8E4700CE7707";
shapes = (
{
closed = 1;
nodes = (
(1226,1213,l),
(780,1213,l),
(780,0,l),
(480,0,l),
(480,1213,l),
(40,1213,l),
(40,1456,l),
(1226,1456,l)
);
}
);
width = 1267;
}
);
unicode = 84;
},
{
glyphname = U;
layers = (
{
layerId = "F74B8AD3-7B55-4203-B0B4-8E4700CE7707";
shapes = (
{
closed = 1;
nodes = (
(1232,1456,l),
(1232,495,ls),
(1232,369,o),
(1148,176,o),
(1000,46,o),
(795,-20,o),
(674,-20,qs),
(552,-20,o),
(347,46,o),
(199,176,o),
(116,369,o),
(116,495,qs),
(116,1456,l),
(416,1456,l),
(416,495,ls),
(416,352,o),
(553,221,o),
(674,221,qs),
(796,221,o),
(931,352,o),
(931,495,qs),
(931,1456,l)
);
}
);
width = 1348;
}
);
rightKerningGroup = J;
unicode = 85;
},
{
glyphname = V;
layers = (
{
layerId = "F74B8AD3-7B55-4203-B0B4-8E4700CE7707";
shapes = (
{
closed = 1;
nodes = (
(668,361,l),
(998,1456,l),
(1332,1456,l),
(825,0,l),
(512,0,l),
(7,1456,l),
(340,1456,l)
);
}
);
width = 1339;
}
);
unicode = 86;
},
{
glyphname = W;
layers = (
{
layerId = "F74B8AD3-7B55-4203-B0B4-8E4700CE7707";
shapes = (
{
closed = 1;
nodes = (
(1264,420,l),
(1460,1456,l),
(1759,1456,l),
(1436,0,l),
(1134,0,l),
(897,974,l),
(660,0,l),
(358,0,l),
(35,1456,l),
(334,1456,l),
(531,422,l),
(771,1456,l),
(1025,1456,l)
);
}
);
width = 1791;
}
);
unicode = 87;
},
{
glyphname = X;
layers = (
{
layerId = "F74B8AD3-7B55-4203-B0B4-8E4700CE7707";
shapes = (
{
closed = 1;
nodes = (
(651,954,l),
(924,1456,l),
(1269,1456,l),
(845,734,l),
(1280,0,l),
(931,0,l),
(651,510,l),
(371,0,l),
(22,0,l),
(457,734,l),
(33,1456,l),
(378,1456,l)
);
}
);
width = 1301;
}
);
unicode = 88;
},
{
glyphname = Y;
layers = (
{
layerId = "F74B8AD3-7B55-4203-B0B4-8E4700CE7707";
shapes = (
{
closed = 1;
nodes = (
(632,800,l),
(935,1456,l),
(1263,1456,l),
(785,528,l),
(785,0,l),
(480,0,l),
(480,528,l),
(2,1456,l),
(331,1456,l)
);
}
);
width = 1266;
}
);
unicode = 89;
},
{
glyphname = Z;
layers = (
{
layerId = "F74B8AD3-7B55-4203-B0B4-8E4700CE7707";
shapes = (
{
closed = 1;
nodes = (
(448,241,l),
(1182,241,l),
(1182,0,l),
(73,0,l),
(73,176,l),
(793,1213,l),
(74,1213,l),
(74,1456,l),
(1166,1456,l),
(1166,1284,l)
);
}
);
width = 1241;
}
);
unicode = 90;
},
{
glyphname = bracketleft;
layers = (
{
layerId = "F74B8AD3-7B55-4203-B0B4-8E4700CE7707";
shapes = (
{
closed = 1;
nodes = (
(552,1471,l),
(410,1471,l),
(410,-116,l),
(552,-116,l),
(552,-339,l),
(120,-339,l),
(120,1694,l),
(552,1694,l)
);
}
);
width = 569;
}
);
unicode = 91;
},
{
glyphname = backslash;
layers = (
{
layerId = "F74B8AD3-7B55-4203-B0B4-8E4700CE7707";
shapes = (
{
closed = 1;
nodes = (
(0,1456,l),
(295,1456,l),
(903,-125,l),
(607,-125,l)
);
}
);
width = 864;
}
);
unicode = 92;
},
{
glyphname = bracketright;
layers = (
{
layerId = "F74B8AD3-7B55-4203-B0B4-8E4700CE7707";
shapes = (
{
closed = 1;
nodes = (
(13,1694,l),
(445,1694,l),
(445,-339,l),
(13,-339,l),
(13,-116,l),
(156,-116,l),
(156,1471,l),
(13,1471,l)
);
}
);
width = 569;
}
);
unicode = 93;
},
{
glyphname = asciicircum;
layers = (
{
layerId = "F74B8AD3-7B55-4203-B0B4-8E4700CE7707";
shapes = (
{
closed = 1;
nodes = (
(448,1186,l),
(274,729,l),
(44,729,l),
(343,1456,l),
(553,1456,l),
(852,729,l),
(623,729,l)
);
}
);
width = 895;
}
);
unicode = 94;
},
{
glyphname = underscore;
layers = (
{
layerId = "F74B8AD3-7B55-4203-B0B4-8E4700CE7707";
shapes = (
{
closed = 1;
nodes = (
(912,-226,l),
(1,-226,l),
(1,0,l),
(912,0,l)
);
}
);
width = 914;
}
);
unicode = 95;
},
{
glyphname = grave;
layers = (
{
layerId = "F74B8AD3-7B55-4203-B0B4-8E4700CE7707";
shapes = (
{
closed = 1;
nodes = (
(565,1226,l),
(328,1226,l),
(52,1536,l),
(367,1536,l)
);
}
);
width = 677;
}
);
unicode = 96;
},
{
glyphname = a;
layers = (
{
layerId = "F74B8AD3-7B55-4203-B0B4-8E4700CE7707";
shapes = (
{
closed = 1;
nodes = (
(738,0,l),
(718,39,o),
(709,97,q),
(665,48,o),
(532,-20,o),
(436,-20,qs),
(358,-20,o),
(223,28,o),
(124,114,o),
(68,233,o),
(68,304,qs),
(68,389,o),
(131,521,o),
(257,613,o),
(444,661,o),
(568,661,qs),
(697,661,l),
(697,723,ls),
(697,798,o),
(620,888,o),
(537,888,qs),
(464,888,o),
(381,818,o),
(381,757,q),
(92,757,l),
(92,827,o),
(157,953,o),
(277,1047,o),
(447,1102,o),
(552,1102,qs),
(646,1102,o),
(806,1054,o),
(922,959,o),
(987,816,o),
(987,721,qs),
(987,263,ls),
(987,217,o),
(993,144,o),
(1003,85,o),
(1019,38,o),
(1030,17,q),
(1030,0,l)
);
},
{
closed = 1;
nodes = (
(536,201,o),
(599,219,o),
(649,248,o),
(686,286,o),
(697,306,q),
(697,492,l),
(578,492,ls),
(521,492,o),
(437,467,o),
(383,422,o),
(357,361,o),
(357,325,qs),
(357,271,o),
(433,201,o),
(499,201,qs)
);
}
);
width = 1098;
}
);
unicode = 97;
},
{
glyphname = b;
layers = (
{
layerId = "F74B8AD3-7B55-4203-B0B4-8E4700CE7707";
shapes = (
{
closed = 1;
nodes = (
(1086,531,ls),
(1086,409,o),
(1034,207,o),
(929,61,o),
(771,-20,o),
(665,-20,qs),
(571,-20,o),
(434,51,o),
(384,115,q),
(371,0,l),
(111,0,l),
(111,1536,l),
(400,1536,l),
(400,985,l),
(448,1041,o),
(577,1102,o),
(663,1102,qs),
(769,1102,o),
(928,1020,o),
(1034,874,o),
(1086,672,o),
(1086,552,qs)
);
},
{
closed = 1;
nodes = (
(797,552,ls),
(797,616,o),
(779,731,o),
(732,817,o),
(652,867,o),
(590,867,qs),
(517,867,o),
(425,808,o),
(400,754,q),
(400,327,l),
(425,273,o),
(517,213,o),
(592,213,qs),
(653,213,o),
(732,261,o),
(779,345,o),
(797,462,o),
(797,531,qs)
);
}
);
width = 1153;
}
);
rightKerningGroup = b;
unicode = 98;
},
{
glyphname = c;
layers = (
{
layerId = "F74B8AD3-7B55-4203-B0B4-8E4700CE7707";
shapes = (
{
closed = 1;
nodes = (
(601,213,o),
(667,236,o),
(715,278,o),
(742,337,o),
(743,374,q),
(1014,374,l),
(1013,288,o),
(943,143,o),
(823,38,o),
(660,-20,o),
(566,-20,qs),
(440,-20,o),
(252,65,o),
(128,212,o),
(66,411,o),
(66,526,qs),
(66,554,ls),
(66,669,o),
(128,869,o),
(252,1017,o),
(439,1102,o),
(564,1102,qs),
(664,1102,o),
(829,1043,o),
(947,933,o),
(1013,776,o),
(1014,679,q),
(743,679,l),
(742,718,o),
(717,787,o),
(671,838,o),
(603,868,o),
(559,868,qs),
(496,868,o),
(416,816,o),
(371,729,o),
(355,615,o),
(355,554,qs),
(355,526,ls),
(355,464,o),
(371,350,o),
(416,264,o),
(496,213,o),
(561,213,qs)
);
}
);
width = 1068;
}
);
leftKerningGroup = c;
unicode = 99;
},
{
glyphname = d;
layers = (
{
layerId = "F74B8AD3-7B55-4203-B0B4-8E4700CE7707";
shapes = (
{
closed = 1;
nodes = (
(66,549,ls),
(66,672,o),
(123,876,o),
(231,1022,o),
(389,1102,o),
(490,1102,qs),
(573,1102,o),
(702,1040,o),
(751,984,q),
(751,1536,l),
(1041,1536,l),
(1041,0,l),
(780,0,l),
(766,115,l),
(715,51,o),
(579,-20,o),
(488,-20,qs),
(388,-20,o),
(231,63,o),
(123,209,o),
(66,410,o),
(66,528,qs)
);
},
{
closed = 1;
nodes = (
(355,528,ls),
(355,462,o),
(377,348,o),
(426,263,o),
(505,214,o),
(562,214,qs),
(632,214,o),
(725,274,o),
(751,327,q),
(751,754,l),
(725,808,o),
(632,867,o),
(564,867,qs),
(507,867,o),
(427,818,o),
(378,732,o),
(355,616,o),
(355,549,qs)
);
}
);
width = 1154;
}
);
leftKerningGroup = c;
unicode = 100;
},
{
glyphname = e;
layers = (
{
layerId = "F74B8AD3-7B55-4203-B0B4-8E4700CE7707";
shapes = (
{
closed = 1;
nodes = (
(483,-20,o),
(284,62,o),
(145,204,o),
(72,395,o),
(72,504,qs),
(72,543,ls),
(72,666,o),
(143,871,o),
(274,1019,o),
(461,1102,o),
(577,1102,qs),
(694,1102,o),
(872,1025,o),
(993,886,o),
(1054,690,o),
(1054,570,qs),
(1054,447,l),
(365,447,l),
(372,394,o),
(415,308,o),
(482,247,o),
(572,213,o),
(628,213,qs),
(707,213,o),
(841,272,o),
(889,334,q),
(1031,175,l),
(1005,138,o),
(927,68,o),
(821,13,o),
(688,-20,o),
(609,-20,qs)
);
},
{
closed = 1;
nodes = (
(529,868,o),
(458,835,o),
(407,776,o),
(375,694,o),
(368,644,q),
(770,644,l),
(770,667,l),
(769,710,o),
(746,784,o),
(699,838,o),
(626,868,o),
(576,868,qs)
);
}
);
width = 1107;
}
);
leftKerningGroup = c;
unicode = 101;
},
{
glyphname = f;
layers = (
{
layerId = "F74B8AD3-7B55-4203-B0B4-8E4700CE7707";
shapes = (
{
closed = 1;
nodes = (
(190,0,l),
(190,870,l),
(29,870,l),
(29,1082,l),
(190,1082,l),
(190,1176,ls),
(190,1268,o),
(245,1410,o),
(348,1507,o),
(495,1557,o),
(587,1557,qs),
(626,1557,o),
(699,1545,o),
(734,1537,q),
(731,1313,l),
(695,1322,o),
(643,1322,qs),
(565,1322,o),
(480,1247,o),
(480,1176,qs),
(480,1082,l),
(695,1082,l),
(695,870,l),
(480,870,l),
(480,0,l)
);
}
);
width = 734;
}
);
unicode = 102;
},
{
glyphname = g;
layers = (
{
layerId = "F74B8AD3-7B55-4203-B0B4-8E4700CE7707";
shapes = (
{
closed = 1;
nodes = (
(69,549,ls),
(69,672,o),
(130,876,o),
(243,1022,o),
(405,1102,o),
(507,1102,qs),
(602,1102,o),
(737,1038,o),
(784,980,q),
(796,1082,l),
(1058,1082,l),
(1058,37,ls),
(1058,-74,o),
(982,-246,o),
(845,-365,o),
(654,-426,o),
(538,-426,qs),
(488,-426,o),
(376,-406,o),
(267,-364,o),
(169,-300,o),
(135,-256,q),
(263,-80,l),
(314,-137,o),
(445,-201,o),
(525,-201,qs),
(640,-201,o),
(768,-78,o),
(768,35,qs),
(768,93,l),
(720,39,o),
(590,-20,o),
(505,-20,qs),
(404,-20,o),
(243,63,o),
(130,209,o),
(69,410,o),
(69,528,qs)
);
},
{
closed = 1;
nodes = (
(358,528,ls),
(358,462,o),
(384,348,o),
(439,263,o),
(522,214,o),
(579,214,qs),
(648,214,o),
(741,266,o),
(768,313,q),
(768,768,l),
(740,816,o),
(649,867,o),
(581,867,qs),
(524,867,o),
(441,818,o),
(385,732,o),
(358,616,o),
(358,549,qs)
);
}
);
width = 1169;
}
);
leftKerningGroup = c;
unicode = 103;
},
{
glyphname = h;
layers = (
{
layerId = "F74B8AD3-7B55-4203-B0B4-8E4700CE7707";
shapes = (
{
closed = 1;
nodes = (
(393,964,l),
(447,1029,o),
(592,1102,o),
(682,1102,qs),
(762,1102,o),
(894,1057,o),
(988,956,o),
(1039,796,o),
(1039,682,qs),
(1039,0,l),
(750,0,l),
(750,684,ls),
(750,736,o),
(727,806,o),
(683,849,o),
(618,867,o),
(577,867,qs),
(509,867,o),
(419,814,o),
(393,769,q),
(393,0,l),
(104,0,l),
(104,1536,l),
(393,1536,l)
);
}
);
width = 1146;
}
);
rightKerningGroup = h;
unicode = 104;
},
{
glyphname = i;
layers = (
{
layerId = "F74B8AD3-7B55-4203-B0B4-8E4700CE7707";
shapes = (
{
closed = 1;
nodes = (
(416,0,l),
(126,0,l),
(126,1082,l),
(416,1082,l)
);
},
{
closed = 1;
nodes = (
(109,1427,o),
(196,1511,o),
(271,1511,qs),
(308,1511,o),
(368,1489,o),
(410,1449,o),
(433,1394,o),
(433,1362,qs),
(433,1329,o),
(410,1274,o),
(368,1234,o),
(308,1212,o),
(271,1212,qs),
(234,1212,o),
(174,1234,o),
(132,1274,o),
(109,1329,o),
(109,1362,qs)
);
}
);
width = 543;
}
);
unicode = 105;
},
{
glyphname = j;
layers = (
{
layerId = "F74B8AD3-7B55-4203-B0B4-8E4700CE7707";
shapes = (
{
closed = 1;
nodes = (
(417,1082,l),
(417,-60,ls),
(417,-151,o),
(367,-292,o),
(273,-388,o),
(136,-437,o),
(48,-437,qs),
(12,-437,o),
(-59,-429,o),
(-95,-420,q),
(-95,-191,l),
(-72,-195,o),
(-27,-200,o),
(-4,-200,qs),
(59,-200,o),
(127,-133,o),
(127,-60,qs),
(127,1082,l)
);
},
{
closed = 1;
nodes = (
(104,1427,o),
(191,1511,o),
(266,1511,qs),
(341,1511,o),
(428,1427,o),
(428,1362,qs),
(428,1329,o),
(405,1274,o),
(363,1234,o),
(303,1212,o),
(266,1212,qs),
(229,1212,o),
(169,1234,o),
(127,1274,o),
(104,1329,o),
(104,1362,qs)
);
}
);
width = 532;
}
);
unicode = 106;
},
{
glyphname = k;
layers = (
{
layerId = "F74B8AD3-7B55-4203-B0B4-8E4700CE7707";
shapes = (
{
closed = 1;
nodes = (
(504,434,l),
(400,330,l),
(400,0,l),
(111,0,l),
(111,1536,l),
(400,1536,l),
(400,685,l),
(456,757,l),
(733,1082,l),
(1080,1082,l),
(689,631,l),
(1114,0,l),
(782,0,l)
);
}
);
width = 1094;
}
);
unicode = 107;
},
{
glyphname = l;
layers = (
{
layerId = "F74B8AD3-7B55-4203-B0B4-8E4700CE7707";
shapes = (
{
closed = 1;
nodes = (
(416,0,l),
(126,0,l),
(126,1536,l),
(416,1536,l)
);
}
);
width = 543;
}
);
unicode = 108;
},
{
glyphname = m;
layers = (
{
layerId = "F74B8AD3-7B55-4203-B0B4-8E4700CE7707";
shapes = (
{
closed = 1;
nodes = (
(382,1082,l),
(391,961,l),
(445,1027,o),
(600,1102,o),
(702,1102,qs),
(799,1102,o),
(948,1024,o),
(989,937,q),
(1042,1014,o),
(1203,1102,o),
(1314,1102,qs),
(1393,1102,o),
(1522,1058,o),
(1613,960,o),
(1662,803,o),
(1662,689,qs),
(1662,0,l),
(1372,0,l),
(1372,689,ls),
(1372,743,o),
(1349,813,o),
(1307,852,o),
(1247,867,o),
(1209,867,qs),
(1142,867,o),
(1052,800,o),
(1029,743,q),
(1029,738,o),
(1030,726,o),
(1030,721,qs),
(1030,0,l),
(741,0,l),
(741,687,ls),
(741,741,o),
(719,811,o),
(677,851,o),
(616,867,o),
(578,867,qs),
(514,867,o),
(426,813,o),
(400,765,q),
(400,0,l),
(111,0,l),
(111,1082,l)
);
}
);
width = 1773;
}
);
leftKerningGroup = m;
rightKerningGroup = h;
unicode = 109;
},
{
glyphname = n;
layers = (
{
layerId = "F74B8AD3-7B55-4203-B0B4-8E4700CE7707";
shapes = (
{
closed = 1;
nodes = (
(377,1082,l),
(386,957,l),
(442,1027,o),
(600,1102,o),
(697,1102,qs),
(774,1102,o),
(900,1059,o),
(990,961,o),
(1039,803,o),
(1039,688,qs),
(1039,0,l),
(750,0,l),
(750,690,ls),
(750,742,o),
(727,810,o),
(683,850,o),
(619,867,o),
(577,867,qs),
(513,867,o),
(422,811,o),
(394,763,q),
(394,0,l),
(105,0,l),
(105,1082,l)
);
}
);
width = 1147;
}
);
leftKerningGroup = m;
rightKerningGroup = h;
unicode = 110;
},
{
glyphname = o;
layers = (
{
layerId = "F74B8AD3-7B55-4203-B0B4-8E4700CE7707";
shapes = (
{
closed = 1;
nodes = (
(66,551,ls),
(66,669,o),
(134,871,o),
(264,1018,o),
(455,1102,o),
(577,1102,qs),
(700,1102,o),
(892,1018,o),
(1023,871,o),
(1091,669,o),
(1091,551,qs),
(1091,530,ls),
(1091,411,o),
(1023,210,o),
(892,63,o),
(702,-20,o),
(579,-20,qs),
(456,-20,o),
(265,63,o),
(134,210,o),
(66,411,o),
(66,530,qs)
);
},
{
closed = 1;
nodes = (
(355,530,ls),
(355,464,o),
(379,348,o),
(432,263,o),
(517,213,o),
(579,213,qs),
(639,213,o),
(724,263,o),
(778,348,o),
(802,464,o),
(802,530,qs),
(802,551,ls),
(802,615,o),
(778,730,o),
(724,817,o),
(638,868,o),
(577,868,qs),
(517,868,o),
(432,817,o),
(379,730,o),
(355,615,o),
(355,551,qs)
);
}
);
width = 1158;
}
);
unicode = 111;
},
{
glyphname = p;
layers = (
{
layerId = "F74B8AD3-7B55-4203-B0B4-8E4700CE7707";
shapes = (
{
closed = 1;
nodes = (
(1085,531,ls),
(1085,413,o),
(1030,211,o),
(924,64,o),
(767,-20,o),
(665,-20,qs),
(579,-20,o),
(448,40,o),
(400,94,q),
(400,-416,l),
(111,-416,l),
(111,1082,l),
(379,1082,l),
(389,976,l),
(439,1036,o),
(572,1102,o),
(663,1102,qs),
(766,1102,o),
(924,1023,o),
(1030,878,o),
(1085,675,o),
(1085,552,qs)
);
},
{
closed = 1;
nodes = (
(796,552,ls),
(796,619,o),
(773,734,o),
(723,819,o),
(644,867,o),
(587,867,qs),
(516,867,o),
(425,814,o),
(400,763,q),
(400,320,l),
(425,270,o),
(516,213,o),
(589,213,qs),
(646,213,o),
(725,263,o),
(774,350,o),
(796,466,o),
(796,531,qs)
);
}
);
width = 1153;
}
);
leftKerningGroup = m;
rightKerningGroup = b;
unicode = 112;
},
{
glyphname = q;
layers = (
{
layerId = "F74B8AD3-7B55-4203-B0B4-8E4700CE7707";
shapes = (
{
closed = 1;
nodes = (
(66,551,ls),
(66,674,o),
(122,877,o),
(230,1022,o),
(388,1102,o),
(491,1102,qs),
(583,1102,o),
(719,1032,o),
(768,969,q),
(787,1082,l),
(1041,1082,l),
(1041,-416,l),
(751,-416,l),
(751,93,l),
(703,39,o),
(574,-20,o),
(489,-20,qs),
(387,-20,o),
(230,63,o),
(122,210,o),
(66,412,o),
(66,530,qs)
);
},
{
closed = 1;
nodes = (
(355,530,ls),
(355,464,o),
(377,349,o),
(427,263,o),
(506,213,o),
(563,213,qs),
(634,213,o),
(725,269,o),
(751,319,q),
(751,766,l),
(725,815,o),
(634,868,o),
(565,868,qs),
(508,868,o),
(429,819,o),
(378,734,o),
(355,618,o),
(355,551,qs)
);
}
);
width = 1157;
}
);
leftKerningGroup = c;
unicode = 113;
},
{
glyphname = r;
layers = (
{
layerId = "F74B8AD3-7B55-4203-B0B4-8E4700CE7707";
shapes = (
{
closed = 1;
nodes = (
(719,811,l),
(697,814,o),
(638,819,o),
(615,819,qs),
(530,819,o),
(425,762,o),
(400,708,q),
(400,0,l),
(111,0,l),
(111,1082,l),
(384,1082,l),
(392,953,l),
(433,1023,o),
(553,1102,o),
(633,1102,qs),
(656,1102,o),
(707,1094,o),
(723,1089,q)
);
}
);
width = 747;
}
);
unicode = 114;
},
{
glyphname = s;
layers = (
{
layerId = "F74B8AD3-7B55-4203-B0B4-8E4700CE7707";
shapes = (
{
closed = 1;
nodes = (
(697,322,o),
(679,360,o),
(629,393,o),
(543,423,o),
(475,437,qs),
(392,455,o),
(251,509,o),
(148,589,o),
(90,695,o),
(90,765,qs),
(90,833,o),
(149,955,o),
(260,1048,o),
(421,1102,o),
(522,1102,qs),
(627,1102,o),
(795,1050,o),
(912,957,o),
(975,829,o),
(975,753,q),
(686,753,l),
(686,815,o),
(606,896,o),
(521,896,qs),
(448,896,o),
(368,830,o),
(368,779,qs),
(368,755,o),
(389,718,o),
(436,687,o),
(513,661,o),
(569,650,qs),
(657,633,o),
(807,583,o),
(916,504,o),
(978,391,o),
(978,311,qs),
(978,239,o),
(914,118,o),
(795,30,o),
(627,-20,o),
(523,-20,qs),
(409,-20,o),
(235,44,o),
(116,148,o),
(56,278,o),
(56,344,q),
(330,344,l),
(332,302,o),
(365,241,o),
(419,203,o),
(490,185,o),
(529,185,qs),
(612,185,o),
(697,248,o),
(697,299,qs)
);
}
);
width = 1053;
}
);
unicode = 115;
},
{
glyphname = t;
layers = (
{
layerId = "F74B8AD3-7B55-4203-B0B4-8E4700CE7707";
shapes = (
{
closed = 1;
nodes = (
(457,1348,l),
(457,1082,l),
(642,1082,l),
(642,870,l),
(457,870,l),
(457,330,ls),
(457,296,o),
(471,252,o),
(499,227,o),
(540,218,o),
(568,218,qs),
(594,218,o),
(637,222,o),
(653,225,q),
(653,6,l),
(617,-5,o),
(532,-20,o),
(478,-20,qs),
(407,-20,o),
(293,15,o),
(212,91,o),
(168,213,o),
(168,299,qs),
(168,870,l),
(10,870,l),
(10,1082,l),
(168,1082,l),
(168,1348,l)
);
}
);
width = 692;
}
);
unicode = 116;
},
{
glyphname = u;
layers = (
{
layerId = "F74B8AD3-7B55-4203-B0B4-8E4700CE7707";
shapes = (
{
closed = 1;
nodes = (
(759,110,l),
(708,48,o),
(562,-20,o),
(463,-20,qs),
(383,-20,o),
(251,25,o),
(156,122,o),
(104,275,o),
(104,382,qs),
(104,1082,l),
(393,1082,l),
(393,380,ls),
(393,335,o),
(416,271,o),
(457,232,o),
(513,214,o),
(547,214,qs),
(625,214,o),
(723,268,o),
(749,316,q),
(749,1082,l),
(1039,1082,l),
(1039,0,l),
(767,0,l)
);
}
);
width = 1146;
}
);
unicode = 117;
},
{
glyphname = v;
layers = (
{
layerId = "F74B8AD3-7B55-4203-B0B4-8E4700CE7707";
shapes = (
{
closed = 1;
nodes = (
(516,353,l),
(717,1082,l),
(1019,1082,l),
(654,0,l),
(378,0,l),
(13,1082,l),
(315,1082,l)
);
}
);
width = 1035;
}
);
leftKerningGroup = v2;
rightKerningGroup = v;
unicode = 118;
},
{
glyphname = w;
layers = (
{
layerId = "F74B8AD3-7B55-4203-B0B4-8E4700CE7707";
shapes = (
{
closed = 1;
nodes = (
(1052,393,l),
(1194,1082,l),
(1473,1082,l),
(1197,0,l),
(955,0,l),
(750,681,l),
(545,0,l),
(304,0,l),
(28,1082,l),
(307,1082,l),
(448,394,l),
(646,1082,l),
(855,1082,l)
);
}
);
width = 1505;
}
);
unicode = 119;
},
{
glyphname = x;
layers = (
{
layerId = "F74B8AD3-7B55-4203-B0B4-8E4700CE7707";
shapes = (
{
closed = 1;
nodes = (
(523,759,l),
(705,1082,l),
(1014,1082,l),
(706,552,l),
(1027,0,l),
(717,0,l),
(524,340,l),
(332,0,l),
(21,0,l),
(342,552,l),
(35,1082,l),
(345,1082,l)
);
}
);
width = 1042;
}
);
unicode = 120;
},
{
glyphname = y;
layers = (
{
layerId = "F74B8AD3-7B55-4203-B0B4-8E4700CE7707";
shapes = (
{
closed = 1;
nodes = (
(515,409,l),
(715,1082,l),
(1025,1082,l),
(592,-162,l),
(577,-203,o),
(530,-299,o),
(450,-382,o),
(332,-437,o),
(246,-437,qs),
(226,-437,o),
(194,-434,o),
(164,-430,o),
(135,-423,o),
(118,-418,q),
(118,-199,l),
(129,-199,o),
(152,-200,o),
(162,-200,qs),
(205,-200,o),
(266,-187,o),
(310,-158,o),
(340,-114,o),
(351,-84,qs),
(382,-3,l),
(3,1082,l),
(314,1082,l)
);
}
);
width = 1028;
}
);
leftKerningGroup = v2;
rightKerningGroup = v;
unicode = 121;
},
{
glyphname = z;
layers = (
{
layerId = "F74B8AD3-7B55-4203-B0B4-8E4700CE7707";
shapes = (
{
closed = 1;
nodes = (
(443,233,l),
(972,233,l),
(972,0,l),
(74,0,l),
(74,176,l),
(583,848,l),
(89,848,l),
(89,1082,l),
(956,1082,l),
(956,911,l)
);
}
);
width = 1042;
}
);
unicode = 122;
},
{
glyphname = braceleft;
layers = (
{
layerId = "F74B8AD3-7B55-4203-B0B4-8E4700CE7707";
shapes = (
{
closed = 1;
nodes = (
(586,-360,l),
(483,-331,o),
(345,-237,o),
(261,-116,o),
(226,27,o),
(226,106,qs),
(226,309,ls),
(226,403,o),
(142,515,o),
(48,515,q),
(48,722,l),
(95,722,o),
(163,751,o),
(206,805,o),
(226,881,o),
(226,929,qs),
(226,1132,ls),
(226,1211,o),
(261,1354,o),
(345,1475,o),
(483,1568,o),
(586,1597,q),
(642,1436,l),
(596,1419,o),
(536,1360,o),
(500,1281,o),
(486,1185,o),
(486,1132,qs),
(486,929,ls),
(486,829,o),
(401,667,o),
(307,619,q),
(400,571,o),
(486,408,o),
(486,309,qs),
(486,106,ls),
(486,53,o),
(500,-43,o),
(536,-122,o),
(596,-182,o),
(642,-198,q)
);
}
);
width = 676;
}
);
unicode = 123;
},
{
glyphname = bar;
layers = (
{
layerId = "F74B8AD3-7B55-4203-B0B4-8E4700CE7707";
shapes = (
{
closed = 1;
nodes = (
(348,-270,l),
(173,-270,l),
(173,1456,l),
(348,1456,l)
);
}
);
width = 518;
}
);
unicode = 124;
},
{
glyphname = braceright;
layers = (
{
layerId = "F74B8AD3-7B55-4203-B0B4-8E4700CE7707";
shapes = (
{
closed = 1;
nodes = (
(34,-198,l),
(79,-182,o),
(139,-122,o),
(175,-43,o),
(190,53,o),
(190,106,qs),
(190,309,ls),
(190,359,o),
(211,451,o),
(256,531,o),
(325,595,o),
(373,618,q),
(277,664,o),
(190,828,o),
(190,929,qs),
(190,1132,ls),
(190,1185,o),
(175,1281,o),
(139,1360,o),
(79,1419,o),
(34,1436,q),
(90,1597,l),
(193,1568,o),
(331,1475,o),
(415,1354,o),
(450,1211,o),
(450,1132,qs),
(450,929,ls),
(450,881,o),
(470,805,o),
(513,751,o),
(581,722,o),
(628,722,q),
(628,515,l),
(581,515,o),
(513,486,o),
(470,432,o),
(450,356,o),
(450,309,qs),
(450,106,ls),
(450,27,o),
(415,-116,o),
(331,-237,o),
(193,-331,o),
(90,-360,q)
);
}
);
width = 676;
}
);
unicode = 125;
},
{
glyphname = asciitilde;
layers = (
{
layerId = "F74B8AD3-7B55-4203-B0B4-8E4700CE7707";
shapes = (
{
closed = 1;
nodes = (
(1221,793,l),
(1221,698,o),
(1171,544,o),
(1083,435,o),
(961,375,o),
(888,375,qs),
(847,375,o),
(777,391,o),
(710,423,o),
(645,473,o),
(609,507,qs),
(567,548,o),
(493,591,o),
(451,591,qs),
(421,591,o),
(373,564,o),
(339,516,o),
(321,451,o),
(321,413,q),
(106,415,l),
(106,511,o),
(155,664,o),
(242,770,o),
(364,827,o),
(437,827,qs),
(518,827,o),
(650,762,o),
(718,696,qs),
(761,654,o),
(833,612,o),
(873,612,qs),
(903,612,o),
(952,640,o),
(987,689,o),
(1007,755,o),
(1007,794,q)
);
}
);
width = 1328;
}
);
unicode = 126;
},
{
glyphname = exclamdown;
layers = (
{
layerId = "F74B8AD3-7B55-4203-B0B4-8E4700CE7707";
shapes = (
{
closed = 1;
nodes = (
(170,639,l),
(411,639,l),
(444,-369,l),
(137,-369,l)
);
},
{
closed = 1;
nodes = (
(452,916,o),
(429,860,o),
(387,819,o),
(327,795,o),
(290,795,qs),
(253,795,o),
(193,819,o),
(151,860,o),
(128,916,o),
(128,948,qs),
(128,981,o),
(151,1037,o),
(193,1078,o),
(253,1101,o),
(290,1101,qs),
(327,1101,o),
(387,1078,o),
(429,1037,o),
(452,981,o),
(452,948,qs)
);
}
);
width = 578;
}
);
unicode = 161;
},
{
glyphname = cent;
layers = (
{
layerId = "F74B8AD3-7B55-4203-B0B4-8E4700CE7707";
shapes = (
{
closed = 1;
nodes = (
(634,213,o),
(700,236,o),
(748,278,o),
(775,337,o),
(776,374,q),
(1047,374,l),
(1046,299,o),
(994,171,o),
(901,71,o),
(774,3,o),
(699,-11,q),
(699,-245,l),
(499,-245,l),
(499,-12,l),
(398,4,o),
(248,99,o),
(148,242,o),
(99,423,o),
(99,526,qs),
(99,554,ls),
(99,657,o),
(149,839,o),
(248,982,o),
(398,1078,o),
(499,1094,q),
(499,1318,l),
(699,1318,l),
(699,1093,l),
(777,1079,o),
(905,1010,o),
(996,903,o),
(1046,763,o),
(1047,679,q),
(776,679,l),
(775,718,o),
(750,787,o),
(704,838,o),
(636,868,o),
(592,868,qs),
(529,868,o),
(449,816,o),
(404,729,o),
(388,615,o),
(388,554,qs),
(388,526,ls),
(388,464,o),
(404,350,o),
(449,264,o),
(529,213,o),
(594,213,qs)
);
}
);
width = 1179;
}
);
unicode = 162;
},
{
glyphname = sterling;
layers = (
{
layerId = "F74B8AD3-7B55-4203-B0B4-8E4700CE7707";
shapes = (
{
closed = 1;
nodes = (
(564,576,l),
(570,437,l),
(570,377,o),
(541,280,o),
(508,241,q),
(1161,241,l),
(1161,0,l),
(102,0,l),
(102,241,l),
(194,241,l),
(218,247,o),
(246,283,o),
(261,332,o),
(266,391,o),
(266,420,q),
(261,576,l),
(99,576,l),
(99,812,l),
(253,812,l),
(246,1039,l),
(246,1142,o),
(312,1305,o),
(432,1416,o),
(599,1475,o),
(700,1475,qs),
(809,1475,o),
(978,1415,o),
(1094,1305,o),
(1154,1152,o),
(1154,1058,q),
(867,1058,l),
(867,1107,o),
(840,1174,o),
(794,1215,o),
(733,1233,o),
(699,1233,qs),
(633,1233,o),
(546,1135,o),
(546,1039,q),
(555,812,l),
(864,812,l),
(864,576,l)
);
}
);
width = 1217;
}
);
unicode = 163;
},
{
glyphname = currency;
layers = (
{
layerId = "F74B8AD3-7B55-4203-B0B4-8E4700CE7707";
shapes = (
{
closed = 1;
nodes = (
(1073,107,l),
(998,47,o),
(815,-20,o),
(712,-20,qs),
(609,-20,o),
(426,46,o),
(351,106,q),
(222,-26,l),
(81,118,l),
(216,255,l),
(168,330,o),
(116,508,o),
(116,608,qs),
(116,712,o),
(173,896,o),
(225,973,q),
(81,1120,l),
(222,1264,l),
(364,1119,l),
(438,1174,o),
(614,1234,o),
(712,1234,qs),
(810,1234,o),
(987,1173,o),
(1061,1117,q),
(1205,1265,l),
(1347,1120,l),
(1199,969,l),
(1250,893,o),
(1306,711,o),
(1306,608,qs),
(1306,509,o),
(1255,334,o),
(1208,259,q),
(1347,118,l),
(1205,-27,l)
);
},
{
closed = 1;
nodes = (
(302,516,o),
(366,356,o),
(477,238,o),
(626,170,o),
(712,170,qs),
(797,170,o),
(946,238,o),
(1057,356,o),
(1121,516,o),
(1121,608,qs),
(1121,700,o),
(1057,860,o),
(946,977,o),
(797,1044,o),
(712,1044,qs),
(626,1044,o),
(477,977,o),
(366,860,o),
(302,700,o),
(302,608,qs)
);
}
);
width = 1418;
}
);
unicode = 164;
},
{
glyphname = yen;
layers = (
{
layerId = "F74B8AD3-7B55-4203-B0B4-8E4700CE7707";
shapes = (
{
closed = 1;
nodes = (
(626,850,l),
(903,1456,l),
(1232,1456,l),
(857,742,l),
(1091,742,l),
(1091,567,l),
(772,567,l),
(772,452,l),
(1091,452,l),
(1091,278,l),
(772,278,l),
(772,0,l),
(472,0,l),
(472,278,l),
(136,278,l),
(136,452,l),
(472,452,l),
(472,567,l),
(136,567,l),
(136,742,l),
(396,742,l),
(20,1456,l),
(350,1456,l)
);
}
);
width = 1254;
}
);
unicode = 165;
},
{
glyphname = brokenbar;
layers = (
{
layerId = "F74B8AD3-7B55-4203-B0B4-8E4700CE7707";
shapes = (
{
closed = 1;
nodes = (
(128,-270,l),
(128,525,l),
(388,525,l),
(388,-270,l)
);
},
{
closed = 1;
nodes = (
(388,698,l),
(128,698,l),
(128,1456,l),
(388,1456,l)
);
}
);
width = 516;
}
);
unicode = 166;
},
{
glyphname = section;
layers = (
{
layerId = "F74B8AD3-7B55-4203-B0B4-8E4700CE7707";
shapes = (
{
closed = 1;
nodes = (
(1180,388,o),
(1096,253,o),
(1018,210,q),
(1084,160,o),
(1153,22,o),
(1153,-78,qs),
(1153,-168,o),
(1079,-308,o),
(944,-403,o),
(753,-452,o),
(636,-452,qs),
(568,-452,o),
(435,-435,o),
(314,-395,o),
(211,-332,o),
(135,-239,o),
(92,-115,o),
(92,-35,q),
(381,-34,l),
(381,-90,o),
(426,-161,o),
(498,-202,o),
(589,-218,o),
(636,-218,qs),
(748,-218,o),
(864,-143,o),
(864,-80,qs),
(864,-48,o),
(836,2,o),
(769,46,o),
(657,88,o),
(572,112,q),
(460,142,o),
(282,213,o),
(159,311,o),
(94,443,o),
(94,534,qs),
(94,625,o),
(178,762,o),
(256,807,q),
(190,857,o),
(120,995,o),
(120,1095,qs),
(120,1181,o),
(194,1322,o),
(329,1422,o),
(521,1476,o),
(640,1476,qs),
(760,1476,o),
(953,1420,o),
(1087,1311,o),
(1159,1152,o),
(1159,1049,q),
(870,1049,l),
(870,1089,o),
(841,1160,o),
(783,1213,o),
(697,1243,o),
(640,1243,qs),
(579,1243,o),
(492,1220,o),
(436,1180,o),
(410,1127,o),
(410,1097,qs),
(410,1061,o),
(434,1008,o),
(499,965,o),
(611,926,o),
(699,903,qs),
(814,873,o),
(993,802,o),
(1116,704,o),
(1180,571,o),
(1180,481,qs)
);
},
{
closed = 1;
nodes = (
(561,671,o),
(490,693,o),
(458,704,q),
(419,682,o),
(383,609,o),
(383,563,qs),
(383,524,o),
(407,468,o),
(471,422,o),
(583,380,o),
(672,354,qs),
(710,343,o),
(780,323,o),
(812,312,q),
(852,335,o),
(894,407,o),
(894,452,qs),
(894,487,o),
(866,542,o),
(798,590,o),
(684,635,o),
(599,660,qs)
);
}
);
width = 1287;
}
);
unicode = 167;
},
{
glyphname = dieresis;
layers = (
{
layerId = "F74B8AD3-7B55-4203-B0B4-8E4700CE7707";
shapes = (
{
closed = 1;
nodes = (
(93,1392,o),
(113,1438,o),
(150,1473,o),
(201,1492,o),
(231,1492,qs),
(261,1492,o),
(312,1473,o),
(348,1438,o),
(369,1392,o),
(369,1365,qs),
(369,1338,o),
(348,1292,o),
(312,1258,o),
(261,1239,o),
(231,1239,qs),
(201,1239,o),
(150,1258,o),
(113,1292,o),
(93,1338,o),
(93,1365,qs)
);
},
{
closed = 1;
nodes = (
(580,1392,o),
(601,1438,o),
(637,1472,o),
(688,1492,o),
(718,1492,qs),
(748,1492,o),
(799,1472,o),
(836,1438,o),
(857,1392,o),
(857,1365,qs),
(857,1338,o),
(836,1292,o),
(799,1257,o),
(748,1238,o),
(718,1238,qs),
(688,1238,o),
(637,1257,o),
(601,1292,o),
(580,1338,o),
(580,1365,qs)
);
}
);
width = 956;
}
);
unicode = 168;
},
{
glyphname = copyright;
layers = (
{
layerId = "F74B8AD3-7B55-4203-B0B4-8E4700CE7707";
shapes = (
{
closed = 1;
nodes = (
(1117,596,l),
(1117,517,o),
(1070,399,o),
(983,321,o),
(859,282,o),
(782,282,qs),
(701,282,o),
(572,338,o),
(482,440,o),
(433,583,o),
(433,669,qs),
(433,788,ls),
(433,874,o),
(482,1016,o),
(572,1118,o),
(701,1175,o),
(782,1175,qs),
(859,1175,o),
(984,1136,o),
(1071,1057,o),
(1118,939,o),
(1118,861,q),
(962,861,l),
(962,957,o),
(870,1040,o),
(782,1040,qs),
(734,1040,o),
(661,1003,o),
(613,936,o),
(588,844,o),
(588,789,qs),
(588,669,ls),
(588,613,o),
(613,520,o),
(661,454,o),
(734,417,o),
(782,417,qs),
(871,417,o),
(961,498,o),
(961,596,q)
);
},
{
closed = 1;
nodes = (
(208,597,o),
(300,368,o),
(460,200,o),
(674,104,o),
(796,104,qs),
(877,104,o),
(1027,148,o),
(1157,228,o),
(1265,341,o),
(1341,480,o),
(1383,641,o),
(1383,729,qs),
(1383,817,o),
(1341,978,o),
(1265,1116,o),
(1157,1228,o),
(1027,1308,o),
(877,1351,o),
(796,1351,qs),
(674,1351,o),
(460,1256,o),
(300,1089,o),
(208,861,o),
(208,729,qs)
);
},
{
closed = 1;
nodes = (
(86,835,o),
(137,1028,o),
(229,1194,o),
(359,1329,o),
(517,1424,o),
(698,1476,o),
(796,1476,qs),
(894,1476,o),
(1075,1424,o),
(1233,1329,o),
(1363,1194,o),
(1455,1028,o),
(1506,835,o),
(1506,729,qs),
(1506,570,o),
(1394,297,o),
(1201,95,o),
(943,-20,o),
(796,-20,qs),
(698,-20,o),
(517,32,o),
(359,128,o),
(229,264,o),
(137,430,o),
(86,623,o),
(86,729,qs)
);
}
);
width = 1606;
}
);
unicode = 169;
},
{
glyphname = ordfeminine;
layers = (
{
layerId = "F74B8AD3-7B55-4203-B0B4-8E4700CE7707";
shapes = (
{
closed = 1;
nodes = (
(604,705,l),
(598,721,o),
(590,755,o),
(587,773,q),
(555,739,o),
(457,691,o),
(386,691,qs),
(326,691,o),
(233,723,o),
(170,783,o),
(137,867,o),
(137,919,qs),
(137,1029,o),
(305,1150,o),
(478,1150,qs),
(580,1150,l),
(580,1201,ls),
(580,1263,o),
(523,1328,o),
(464,1328,qs),
(399,1328,o),
(326,1277,o),
(326,1229,q),
(153,1243,l),
(153,1294,o),
(197,1379,o),
(279,1441,o),
(393,1476,o),
(464,1476,qs),
(529,1476,o),
(636,1441,o),
(713,1372,o),
(755,1269,o),
(755,1200,qs),
(755,886,ls),
(755,837,o),
(767,749,o),
(781,705,q)
);
},
{
closed = 1;
nodes = (
(469,835,o),
(553,872,o),
(580,897,q),
(580,1033,l),
(479,1033,ls),
(435,1033,o),
(372,1015,o),
(332,985,o),
(312,945,o),
(312,923,qs),
(312,881,o),
(369,835,o),
(429,835,qs)
);
}
);
width = 909;
}
);
unicode = 170;
},
{
glyphname = guillemotleft;
layers = (
{
layerId = "F74B8AD3-7B55-4203-B0B4-8E4700CE7707";
shapes = (
{
closed = 1;
nodes = (
(414,18,ls),
(234,286,o),
(96,515,o),
(95,564,q),
(95,618,o),
(240,831,o),
(417,1053,qs),
(429,1068,l),
(448,1068,l),
(648,1068,l),
(731,1068,l),
(680,1003,ls),
(542,829,o),
(381,589,o),
(377,563,q),
(383,536,o),
(543,266,o),
(679,63,qs),
(721,1,l),
(646,1,l),
(448,1,l),
(426,1,l)
);
},
{
closed = 1;
nodes = (
(843,18,ls),
(663,285,o),
(523,515,o),
(523,564,qs),
(523,618,o),
(668,831,o),
(845,1053,qs),
(857,1068,l),
(877,1068,l),
(1077,1068,l),
(1159,1068,l),
(1108,1003,ls),
(1016,886,o),
(875,690,o),
(809,584,o),
(806,567,q),
(811,540,o),
(971,267,o),
(1108,63,qs),
(1149,1,l),
(1074,1,l),
(876,1,l),
(855,1,l)
);
}
);
width = 1184;
}
);
unicode = 171;
},
{
glyphname = logicalnot;
layers = (
{
layerId = "F74B8AD3-7B55-4203-B0B4-8E4700CE7707";
shapes = (
{
closed = 1;
nodes = (
(961,374,l),
(761,374,l),
(761,634,l),
(126,634,l),
(126,805,l),
(961,805,l)
);
}
);
width = 1129;
}
);
unicode = 172;
},
{
glyphname = registered;
layers = (
{
layerId = "F74B8AD3-7B55-4203-B0B4-8E4700CE7707";
shapes = (
{
closed = 1;
nodes = (
(86,835,o),
(137,1028,o),
(229,1194,o),
(359,1329,o),
(517,1424,o),
(698,1476,o),
(796,1476,qs),
(894,1476,o),
(1075,1424,o),
(1233,1329,o),
(1363,1194,o),
(1455,1028,o),
(1506,835,o),
(1506,729,qs),
(1506,570,o),
(1394,297,o),
(1201,95,o),
(943,-20,o),
(796,-20,qs),
(698,-20,o),
(517,32,o),
(359,128,o),
(229,264,o),
(137,430,o),
(86,623,o),
(86,729,qs)
);
},
{
closed = 1;
nodes = (
(208,597,o),
(300,368,o),
(460,200,o),
(674,104,o),
(796,104,qs),
(877,104,o),
(1027,148,o),
(1157,228,o),
(1265,341,o),
(1341,480,o),
(1383,641,o),
(1383,729,qs),
(1383,817,o),
(1341,978,o),
(1265,1116,o),
(1157,1228,o),
(1027,1308,o),
(877,1351,o),
(796,1351,qs),
(674,1351,o),
(460,1256,o),
(300,1089,o),
(208,861,o),
(208,729,qs)
);
},
{
closed = 1;
nodes = (
(652,653,l),
(652,316,l),
(501,316,l),
(501,1166,l),
(782,1166,ls),
(856,1166,o),
(976,1132,o),
(1061,1066,o),
(1107,968,o),
(1107,903,qs),
(1107,845,o),
(1049,759,o),
(994,729,q),
(1055,698,o),
(1104,586,o),
(1104,515,qs),
(1104,459,ls),
(1104,421,o),
(1111,355,o),
(1121,332,q),
(1121,316,l),
(966,316,l),
(961,329,o),
(956,369,o),
(953,411,o),
(953,449,o),
(953,460,qs),
(953,514,ls),
(953,585,o),
(888,653,o),
(810,653,qs)
);
},
{
closed = 1;
nodes = (
(652,787,l),
(788,787,ls),
(821,787,o),
(883,802,o),
(929,831,o),
(957,874,o),
(957,903,qs),
(957,939,o),
(939,989,o),
(898,1020,o),
(831,1033,o),
(782,1033,qs),
(652,1033,l)
);
}
);
width = 1606;
}
);
unicode = 174;
},
{
glyphname = macron;
layers = (
{
layerId = "F74B8AD3-7B55-4203-B0B4-8E4700CE7707";
shapes = (
{
closed = 1;
nodes = (
(878,1290,l),
(148,1290,l),
(148,1457,l),
(878,1457,l)
);
}
);
width = 1026;
}
);
unicode = 175;
},
{
glyphname = degree;
layers = (
{
layerId = "F74B8AD3-7B55-4203-B0B4-8E4700CE7707";
shapes = (
{
closed = 1;
nodes = (
(126,1257,o),
(169,1357,o),
(244,1432,o),
(342,1476,o),
(398,1476,qs),
(453,1476,o),
(551,1432,o),
(624,1357,o),
(666,1257,o),
(666,1200,qs),
(666,1143,o),
(624,1044,o),
(551,971,o),
(453,928,o),
(398,928,qs),
(342,928,o),
(244,971,o),
(169,1044,o),
(126,1143,o),
(126,1200,qs)
);
},
{
closed = 1;
nodes = (
(273,1173,o),
(293,1128,o),
(327,1095,o),
(372,1076,o),
(398,1076,qs),
(424,1076,o),
(468,1094,o),
(501,1127,o),
(520,1173,o),
(520,1200,qs),
(520,1227,o),
(501,1274,o),
(468,1309,o),
(424,1328,o),
(398,1328,qs),
(372,1328,o),
(327,1309,o),
(293,1274,o),
(273,1227,o),
(273,1200,qs)
);
}
);
width = 795;
}
);
unicode = 176;
},
{
glyphname = plusminus;
layers = (
{
layerId = "F74B8AD3-7B55-4203-B0B4-8E4700CE7707";
shapes = (
{
closed = 1;
nodes = (
(678,943,l),
(1006,943,l),
(1006,702,l),
(678,702,l),
(678,337,l),
(424,337,l),
(424,702,l),
(90,702,l),
(90,943,l),
(424,943,l),
(424,1286,l),
(678,1286,l)
);
},
{
closed = 1;
nodes = (
(977,1,l),
(114,1,l),
(114,237,l),
(977,237,l)
);
}
);
width = 1101;
}
);
unicode = 177;
},
{
glyphname = twosuperior;
layers = (
{
layerId = "F74B8AD3-7B55-4203-B0B4-8E4700CE7707";
shapes = (
{
closed = 1;
nodes = (
(693,667,l),
(73,667,l),
(73,805,l),
(360,1062,l),
(416,1111,o),
(465,1195,o),
(465,1218,qs),
(465,1256,o),
(418,1302,o),
(370,1302,qs),
(343,1302,o),
(302,1284,o),
(275,1254,o),
(261,1215,o),
(261,1193,q),
(55,1193,l),
(55,1249,o),
(98,1348,o),
(177,1423,o),
(290,1467,o),
(361,1467,qs),
(509,1467,o),
(670,1338,o),
(670,1219,qs),
(670,1175,o),
(644,1102,o),
(590,1032,o),
(508,960,o),
(453,917,qs),
(342,831,l),
(693,831,l)
);
}
);
width = 763;
}
);
unicode = 178;
},
{
glyphname = threesuperior;
layers = (
{
layerId = "F74B8AD3-7B55-4203-B0B4-8E4700CE7707";
shapes = (
{
closed = 1;
nodes = (
(273,1136,l),
(361,1136,ls),
(418,1136,o),
(474,1184,o),
(474,1224,qs),
(474,1238,o),
(463,1265,o),
(438,1287,o),
(397,1301,o),
(368,1301,qs),
(326,1301,o),
(267,1270,o),
(267,1241,q),
(62,1241,l),
(62,1296,o),
(111,1381,o),
(194,1437,o),
(302,1466,o),
(362,1466,qs),
(432,1466,o),
(548,1437,o),
(632,1380,o),
(678,1295,o),
(678,1240,qs),
(678,1179,o),
(605,1094,o),
(543,1071,q),
(613,1052,o),
(693,965,o),
(693,887,qs),
(693,831,o),
(642,745,o),
(553,686,o),
(432,655,o),
(362,655,qs),
(306,655,o),
(194,681,o),
(104,740,o),
(48,834,o),
(48,902,q),
(254,902,l),
(254,886,o),
(271,856,o),
(302,833,o),
(346,819,o),
(374,819,qs),
(434,819,o),
(487,872,o),
(487,907,qs),
(487,958,o),
(421,1000,o),
(361,1000,qs),
(273,1000,l)
);
}
);
width = 763;
}
);
unicode = 179;
},
{
glyphname = acute;
layers = (
{
layerId = "F74B8AD3-7B55-4203-B0B4-8E4700CE7707";
shapes = (
{
closed = 1;
nodes = (
(298,1536,l),
(613,1536,l),
(336,1226,l),
(101,1226,l)
);
}
);
width = 679;
}
);
unicode = 180;
},
{
glyphname = mu;
layers = (
{
layerId = "F74B8AD3-7B55-4203-B0B4-8E4700CE7707";
shapes = (
{
closed = 1;
nodes = (
(428,1082,l),
(428,462,ls),
(428,385,o),
(454,289,o),
(501,234,o),
(567,214,o),
(608,214,qs),
(688,214,o),
(787,270,o),
(813,319,q),
(813,1082,l),
(1102,1082,l),
(1102,0,l),
(833,0,l),
(827,68,l),
(784,25,o),
(672,-21,o),
(602,-21,qs),
(500,-21,o),
(428,24,q),
(428,-416,l),
(139,-416,l),
(139,1082,l)
);
}
);
width = 1261;
}
);
unicode = 181;
},
{
glyphname = paragraph;
layers = (
{
layerId = "F74B8AD3-7B55-4203-B0B4-8E4700CE7707";
shapes = (
{
closed = 1;
nodes = (
(650,0,l),
(650,520,l),
(567,520,ls),
(448,520,o),
(264,590,o),
(139,715,o),
(75,887,o),
(75,988,qs),
(75,1088,o),
(139,1260,o),
(264,1385,o),
(448,1456,o),
(567,1456,qs),
(869,1456,l),
(869,0,l)
);
}
);
width = 1003;
}
);
unicode = 182;
},
{
glyphname = periodcentered;
layers = (
{
layerId = "F74B8AD3-7B55-4203-B0B4-8E4700CE7707";
shapes = (
{
closed = 1;
nodes = (
(140,730,o),
(163,787,o),
(205,828,o),
(265,852,o),
(303,852,qs),
(340,852,o),
(401,828,o),
(444,787,o),
(467,730,o),
(467,697,qs),
(467,664,o),
(444,608,o),
(401,567,o),
(340,543,o),
(303,543,qs),
(265,543,o),
(205,567,o),
(163,608,o),
(140,664,o),
(140,697,qs)
);
}
);
width = 617;
}
);
unicode = 183;
},
{
glyphname = cedilla;
layers = (
{
layerId = "F74B8AD3-7B55-4203-B0B4-8E4700CE7707";
shapes = (
{
closed = 1;
nodes = (
(345,7,l),
(334,-51,l),
(362,-56,o),
(416,-79,o),
(458,-120,o),
(484,-181,o),
(484,-224,qs),
(484,-277,o),
(439,-365,o),
(351,-428,o),
(221,-462,o),
(135,-462,q),
(128,-295,l),
(177,-295,o),
(240,-258,o),
(240,-214,qs),
(240,-172,o),
(173,-141,o),
(98,-136,q),
(129,7,l)
);
}
);
width = 548;
}
);
unicode = 184;
},
{
glyphname = onesuperior;
layers = (
{
layerId = "F74B8AD3-7B55-4203-B0B4-8E4700CE7707";
shapes = (
{
closed = 1;
nodes = (
(528,668,l),
(324,668,l),
(324,1216,l),
(135,1175,l),
(135,1333,l),
(509,1454,l),
(528,1454,l)
);
}
);
width = 749;
}
);
unicode = 185;
},
{
glyphname = ordmasculine;
layers = (
{
layerId = "F74B8AD3-7B55-4203-B0B4-8E4700CE7707";
shapes = (
{
closed = 1;
nodes = (
(118,1121,ls),
(118,1199,o),
(166,1329,o),
(256,1423,o),
(384,1476,o),
(464,1476,qs),
(545,1476,o),
(673,1423,o),
(763,1329,o),
(811,1199,o),
(811,1121,qs),
(811,1044,ls),
(811,966,o),
(763,836,o),
(674,742,o),
(546,690,o),
(466,690,qs),
(386,690,o),
(257,742,o),
(167,836,o),
(118,966,o),
(118,1044,qs)
);
},
{
closed = 1;
nodes = (
(293,1044,ls),
(293,999,o),
(314,923,o),
(357,868,o),
(422,836,o),
(466,836,qs),
(509,836,o),
(573,868,o),
(615,923,o),
(636,999,o),
(636,1044,qs),
(636,1121,ls),
(636,1165,o),
(615,1241,o),
(572,1296,o),
(507,1328,o),
(464,1328,qs),
(421,1328,o),
(357,1296,o),
(314,1241,o),
(293,1165,o),
(293,1121,qs)
);
}
);
width = 936;
}
);
unicode = 186;
},
{
glyphname = guillemotright;
layers = (
{
layerId = "F74B8AD3-7B55-4203-B0B4-8E4700CE7707";
shapes = (
{
closed = 1;
nodes = (
(736,1,l),
(538,1,l),
(463,1,l),
(505,63,ls),
(640,266,o),
(801,536,o),
(807,563,q),
(805,575,o),
(765,646,o),
(692,754,o),
(575,913,o),
(504,1003,qs),
(453,1068,l),
(535,1068,l),
(736,1068,l),
(755,1068,l),
(767,1053,ls),
(944,831,o),
(1089,618,o),
(1089,564,q),
(1088,515,o),
(950,286,o),
(770,18,qs),
(758,1,l)
);
},
{
closed = 1;
nodes = (
(308,1,l),
(110,1,l),
(35,1,l),
(76,63,ls),
(133,147,o),
(231,301,o),
(300,415,o),
(351,504,o),
(376,557,o),
(378,567,q),
(373,594,o),
(212,830,o),
(76,1003,qs),
(25,1068,l),
(107,1068,l),
(307,1068,l),
(327,1068,l),
(339,1053,ls),
(515,832,o),
(661,618,o),
(661,564,qs),
(661,515,o),
(522,286,o),
(341,18,qs),
(329,1,l)
);
}
);
width = 1184;
}
);
unicode = 187;
},
{
glyphname = questiondown;
layers = (
{
layerId = "F74B8AD3-7B55-4203-B0B4-8E4700CE7707";
shapes = (
{
closed = 1;
nodes = (
(666,643,l),
(666,575,o),
(651,470,o),
(617,382,o),
(561,305,o),
(518,266,qs),
(484,234,o),
(426,176,o),
(383,116,o),
(359,49,o),
(359,8,qs),
(359,-73,o),
(442,-149,o),
(513,-149,qs),
(547,-149,o),
(608,-129,o),
(654,-88,o),
(682,-23,o),
(683,22,q),
(972,22,l),
(971,-82,o),
(900,-236,o),
(778,-336,o),
(613,-385,o),
(518,-385,qs),
(413,-385,o),
(246,-334,o),
(130,-235,o),
(69,-89,o),
(69,6,qs),
(69,72,o),
(111,181,o),
(181,277,o),
(271,366,o),
(319,411,qs),
(347,436,o),
(382,486,o),
(401,541,o),
(409,604,o),
(410,643,q)
);
},
{
closed = 1;
nodes = (
(702,917,o),
(679,861,o),
(637,820,o),
(577,796,o),
(540,796,qs),
(503,796,o),
(443,820,o),
(401,861,o),
(378,917,o),
(378,949,qs),
(378,982,o),
(401,1038,o),
(443,1079,o),
(503,1102,o),
(540,1102,qs),
(577,1102,o),
(637,1079,o),
(679,1038,o),
(702,982,o),
(702,949,qs)
);
}
);
width = 1019;
}
);
unicode = 191;
},
{
glyphname = circumflex;
layers = (
{
layerId = "F74B8AD3-7B55-4203-B0B4-8E4700CE7707";
shapes = (
{
closed = 1;
nodes = (
(887,1256,l),
(887,1244,l),
(657,1244,l),
(503,1389,l),
(349,1244,l),
(123,1244,l),
(123,1260,l),
(419,1536,l),
(587,1536,l)
);
}
);
width = 1015;
}
);
unicode = 710;
},
{
glyphname = caron;
layers = (
{
layerId = "F74B8AD3-7B55-4203-B0B4-8E4700CE7707";
shapes = (
{
closed = 1;
nodes = (
(479,1394,l),
(625,1537,l),
(872,1537,l),
(872,1526,l),
(570,1245,l),
(387,1245,l),
(85,1528,l),
(85,1537,l),
(332,1537,l)
);
}
);
width = 964;
}
);
unicode = 711;
},
{
glyphname = breve;
layers = (
{
layerId = "F74B8AD3-7B55-4203-B0B4-8E4700CE7707";
shapes = (
{
closed = 1;
nodes = (
(798,1526,l),
(798,1460,o),
(749,1351,o),
(659,1273,o),
(531,1229,o),
(452,1229,qs),
(372,1229,o),
(244,1273,o),
(154,1351,o),
(106,1460,o),
(106,1526,q),
(311,1526,l),
(311,1500,o),
(326,1452,o),
(360,1416,o),
(413,1394,o),
(452,1394,qs),
(490,1394,o),
(543,1416,o),
(576,1452,o),
(591,1500,o),
(591,1526,q)
);
}
);
width = 909;
}
);
unicode = 728;
},
{
glyphname = dotaccent;
layers = (
{
layerId = "F74B8AD3-7B55-4203-B0B4-8E4700CE7707";
shapes = (
{
closed = 1;
nodes = (
(118,1404,o),
(139,1454,o),
(178,1491,o),
(232,1511,o),
(266,1511,qs),
(335,1511,o),
(414,1434,o),
(414,1374,qs),
(414,1314,o),
(335,1238,o),
(266,1238,qs),
(198,1238,o),
(118,1314,o),
(118,1374,qs)
);
}
);
width = 543;
}
);
unicode = 729;
},
{
glyphname = ring;
layers = (
{
layerId = "F74B8AD3-7B55-4203-B0B4-8E4700CE7707";
shapes = (
{
closed = 1;
nodes = (
(119,1367,o),
(153,1442,o),
(212,1497,o),
(294,1530,o),
(342,1530,qs),
(390,1530,o),
(472,1497,o),
(532,1442,o),
(565,1367,o),
(565,1325,qs),
(565,1283,o),
(532,1210,o),
(472,1155,o),
(390,1124,o),
(342,1124,qs),
(294,1124,o),
(212,1155,o),
(153,1210,o),
(119,1283,o),
(119,1325,qs)
);
},
{
closed = 1;
nodes = (
(234,1281,o),
(292,1218,o),
(342,1218,qs),
(392,1218,o),
(450,1281,o),
(450,1325,qs),
(450,1347,o),
(435,1387,o),
(407,1417,o),
(367,1434,o),
(342,1434,qs),
(317,1434,o),
(277,1417,o),
(249,1387,o),
(234,1347,o),
(234,1325,qs)
);
}
);
width = 682;
}
);
unicode = 730;
},
{
glyphname = ogonek;
layers = (
{
layerId = "F74B8AD3-7B55-4203-B0B4-8E4700CE7707";
shapes = (
{
closed = 1;
nodes = (
(404,0,l),
(330,-42,o),
(250,-123,o),
(250,-176,qs),
(250,-205,o),
(280,-241,o),
(316,-241,qs),
(344,-241,o),
(382,-227,o),
(396,-221,q),
(425,-378,l),
(400,-393,o),
(321,-422,o),
(260,-422,qs),
(213,-422,o),
(130,-395,o),
(68,-343,o),
(33,-264,o),
(33,-213,qs),
(33,-176,o),
(55,-102,o),
(106,-33,o),
(192,31,o),
(256,60,q)
);
}
);
width = 616;
}
);
unicode = 731;
},
{
glyphname = tilde;
layers = (
{
layerId = "F74B8AD3-7B55-4203-B0B4-8E4700CE7707";
shapes = (
{
closed = 1;
nodes = (
(870,1524,l),
(870,1469,o),
(836,1372,o),
(775,1300,o),
(692,1258,o),
(643,1258,qs),
(595,1258,o),
(527,1285,o),
(468,1317,o),
(408,1344,o),
(369,1344,qs),
(334,1344,o),
(285,1294,o),
(285,1248,q),
(117,1258,l),
(117,1312,o),
(151,1409,o),
(211,1482,o),
(294,1525,o),
(343,1525,qs),
(383,1525,o),
(451,1498,o),
(515,1467,o),
(579,1440,o),
(617,1440,qs),
(652,1440,o),
(703,1489,o),
(703,1535,q)
);
}
);
width = 985;
}
);
unicode = 732;
},
{
glyphname = hungarumlaut;
layers = (
{
layerId = "F74B8AD3-7B55-4203-B0B4-8E4700CE7707";
shapes = (
{
closed = 1;
nodes = (
(634,1535,l),
(893,1535,l),
(627,1234,l),
(409,1234,l)
);
},
{
closed = 1;
nodes = (
(243,1535,l),
(498,1535,l),
(269,1234,l),
(57,1234,l)
);
}
);
width = 840;
}
);
unicode = 733;
},
{
glyphname = uni02F3;
layers = (
{
layerId = "F74B8AD3-7B55-4203-B0B4-8E4700CE7707";
shapes = (
{
closed = 1;
nodes = (
(142,-193,o),
(171,-130,o),
(222,-83,o),
(291,-57,o),
(330,-57,qs),
(369,-57,o),
(437,-83,o),
(486,-130,o),
(515,-193,o),
(515,-230,qs),
(515,-267,o),
(486,-329,o),
(437,-374,o),
(369,-399,o),
(330,-399,qs),
(291,-399,o),
(222,-374,o),
(171,-329,o),
(142,-267,o),
(142,-230,qs)
);
},
{
closed = 1;
nodes = (
(255,-262,o),
(298,-304,o),
(330,-304,qs),
(362,-304,o),
(402,-262,o),
(402,-230,qs),
(402,-196,o),
(362,-153,o),
(330,-153,qs),
(298,-153,o),
(255,-196,o),
(255,-230,qs)
);
}
);
width = 643;
}
);
unicode = 755;
},
{
glyphname = gravecomb;
layers = (
{
layerId = "F74B8AD3-7B55-4203-B0B4-8E4700CE7707";
shapes = (
{
closed = 1;
nodes = (
(-425,1241,l),
(-601,1241,l),
(-776,1535,l),
(-546,1535,l)
);
}
);
width = 0;
}
);
unicode = 768;
},
{
glyphname = acutecomb;
layers = (
{
layerId = "F74B8AD3-7B55-4203-B0B4-8E4700CE7707";
shapes = (
{
closed = 1;
nodes = (
(-510,1535,l),
(-281,1535,l),
(-467,1242,l),
(-639,1242,l)
);
}
);
width = 0;
}
);
unicode = 769;
},
{
glyphname = hook;
layers = (
{
layerId = "F74B8AD3-7B55-4203-B0B4-8E4700CE7707";
shapes = (
{
closed = 1;
nodes = (
(-718,1267,l),
(-733,1401,l),
(-660,1405,o),
(-595,1434,o),
(-595,1466,qs),
(-595,1486,o),
(-616,1512,o),
(-654,1528,o),
(-706,1535,o),
(-737,1535,q),
(-730,1670,l),
(-542,1670,o),
(-351,1566,o),
(-351,1475,qs),
(-351,1441,o),
(-377,1390,o),
(-419,1356,o),
(-473,1335,o),
(-501,1331,q),
(-501,1267,l)
);
}
);
width = 0;
}
);
unicode = 777;
},
{
glyphname = uni030F;
layers = (
{
layerId = "F74B8AD3-7B55-4203-B0B4-8E4700CE7707";
shapes = (
{
closed = 1;
nodes = (
(-509,1252,l),
(-748,1252,l),
(-1040,1518,l),
(-754,1518,l)
);
},
{
closed = 1;
nodes = (
(-170,1252,l),
(-403,1252,l),
(-648,1518,l),
(-368,1518,l)
);
}
);
width = 0;
}
);
unicode = 783;
},
{
glyphname = dotbelow;
layers = (
{
layerId = "F74B8AD3-7B55-4203-B0B4-8E4700CE7707";
shapes = (
{
closed = 1;
nodes = (
(-761,-205,o),
(-738,-154,o),
(-696,-117,o),
(-637,-96,o),
(-600,-96,qs),
(-563,-96,o),
(-503,-117,o),
(-461,-154,o),
(-438,-205,o),
(-438,-234,qs),
(-438,-264,o),
(-461,-314,o),
(-503,-352,o),
(-563,-373,o),
(-600,-373,qs),
(-637,-373,o),
(-696,-352,o),
(-738,-314,o),
(-761,-264,o),
(-761,-234,qs)
);
}
);
width = 148;
}
);
unicode = 803;
},
{
glyphname = tonos;
layers = (
{
layerId = "F74B8AD3-7B55-4203-B0B4-8E4700CE7707";
shapes = (
{
closed = 1;
nodes = (
(291,1601,l),
(553,1601,l),
(390,1256,l),
(218,1256,l)
);
}
);
width = 690;
}
);
unicode = 900;
},
{
glyphname = dieresistonos;
layers = (
{
layerId = "F74B8AD3-7B55-4203-B0B4-8E4700CE7707";
shapes = (
{
closed = 1;
nodes = (
(507,1751,l),
(766,1751,l),
(612,1419,l),
(464,1419,l)
);
},
{
closed = 1;
nodes = (
(102,1392,o),
(123,1438,o),
(160,1473,o),
(211,1492,o),
(241,1492,qs),
(271,1492,o),
(322,1473,o),
(358,1438,o),
(379,1392,o),
(379,1365,qs),
(379,1338,o),
(358,1292,o),
(322,1258,o),
(271,1239,o),
(241,1239,qs),
(211,1239,o),
(160,1258,o),
(123,1292,o),
(102,1338,o),
(102,1365,qs)
);
},
{
closed = 1;
nodes = (
(719,1392,o),
(740,1438,o),
(776,1472,o),
(827,1492,o),
(857,1492,qs),
(887,1492,o),
(938,1472,o),
(975,1438,o),
(996,1392,o),
(996,1365,qs),
(996,1338,o),
(975,1292,o),
(938,1257,o),
(887,1238,o),
(857,1238,qs),
(827,1238,o),
(776,1257,o),
(740,1292,o),
(719,1338,o),
(719,1365,qs)
);
}
);
width = 1123;
}
);
unicode = 901;
},
{
glyphname = Delta;
layers = (
{
layerId = "F74B8AD3-7B55-4203-B0B4-8E4700CE7707";
shapes = (
{
closed = 1;
nodes = (
(601,1456,l),
(912,1456,l),
(1485,0,l),
(20,0,l)
);
},
{
closed = 1;
nodes = (
(427,241,l),
(1080,241,l),
(755,1109,l)
);
}
);
width = 1497;
}
);
leftKerningGroup = A2;
rightKerningGroup = A;
unicode = 916;
},
{
glyphname = Omega;
layers = (
{
layerId = "F74B8AD3-7B55-4203-B0B4-8E4700CE7707";
shapes = (
{
closed = 1;
nodes = (
(735,248,l),
(777,266,o),
(845,343,o),
(895,471,o),
(922,653,o),
(922,775,qs),
(922,862,ls),
(922,1045,o),
(794,1230,o),
(679,1230,qs),
(566,1230,o),
(437,1045,o),
(437,862,qs),
(437,775,ls),
(437,652,o),
(465,469,o),
(516,342,o),
(587,265,o),
(631,248,q),
(631,0,l),
(119,0,l),
(119,244,l),
(336,244,l),
(285,290,o),
(199,407,o),
(137,542,o),
(102,694,o),
(102,775,qs),
(102,860,ls),
(102,995,o),
(186,1221,o),
(338,1384,o),
(550,1475,o),
(679,1475,qs),
(807,1475,o),
(1020,1384,o),
(1173,1221,o),
(1257,995,o),
(1257,860,qs),
(1257,775,ls),
(1257,693,o),
(1222,541,o),
(1159,406,o),
(1074,290,o),
(1023,244,q),
(1239,244,l),
(1239,0,l),
(735,0,l)
);
}
);
width = 1376;
}
);
unicode = 937;
},
{
color = (255, 153, 153, 255);
glyphname = afii57388;
layers = (
{
layerId = "F74B8AD3-7B55-4203-B0B4-8E4700CE7707";
shapes = (
{
closed = 1;
nodes = (
(584,49,o),
(494,-23,o),
(393,-23,cs),
(248,-23,o),
(184,101,o),
(184,227,cs),
(184,401,o),
(313,567,o),
(448,697,c),
(571,633,l),
(487,543,o),
(419,444,o),
(388,345,c),
(486,345,o),
(584,274,o),
(584,157,cs)
);
}
);
width = 739;
}
);
unicode = 1548;
},
{
color = (255, 153, 153, 255);
glyphname = uni0615;
layers = (
{
anchors = (
{
name = _t.uni0615;
position = "{658, 1624}";
},
{
name = t.uni0615;
position = "{672, 2447}";
},
{
name = _t.uni0615_2;
position = "{658, 1624}";
},
{
name = _t.uni0615_3;
position = "{658, 1624}";
}
);
layerId = "F74B8AD3-7B55-4203-B0B4-8E4700CE7707";
shapes = (
{
closed = 1;
nodes = (
(375,1826,l),
(403,1822,o),
(432,1818,o),
(460,1816,c),
(477,1841,o),
(495,1866,o),
(513,1891,c),
(502,2274,l),
(611,2343,l),
(611,1991,l),
(658,2028,o),
(717,2061,o),
(778,2061,cs),
(879,2061,o),
(970,1980,o),
(970,1877,cs),
(970,1701,o),
(761,1698,o),
(633,1698,cs),
(551,1698,o),
(469,1703,o),
(387,1711,c)
);
},
{
closed = 1;
nodes = (
(688,1951,o),
(605,1867,o),
(556,1811,c),
(584,1810,o),
(611,1810,o),
(639,1810,cs),
(686,1810,o),
(873,1810,o),
(873,1879,cs),
(873,1930,o),
(810,1951,o),
(768,1951,cs)
);
}
);
width = 0;
}
);
unicode = 1557;
},
{
color = (255, 153, 153, 255);
glyphname = uni061B;
layers = (
{
layerId = "F74B8AD3-7B55-4203-B0B4-8E4700CE7707";
shapes = (
{
closed = 1;
nodes = (
(226,232,o),
(300,312,o),
(397,312,cs),
(494,312,o),
(568,233,o),
(568,141,cs),
(568,49,o),
(494,-31,o),
(397,-31,cs),
(300,-31,o),
(226,48,o),
(226,140,cs)
);
},
{
closed = 1;
nodes = (
(581,482,o),
(491,410,o),
(390,410,cs),
(245,410,o),
(181,534,o),
(181,660,cs),
(181,834,o),
(310,1000,o),
(445,1130,c),
(568,1066,l),
(484,976,o),
(416,877,o),
(385,778,c),
(390,778,l),
(488,778,o),
(581,707,o),
(581,590,cs)
);
}
);
width = 739;
}
);
unicode = 1563;
},
{
color = (255, 153, 153, 255);
glyphname = uni061F;
layers = (
{
layerId = "F74B8AD3-7B55-4203-B0B4-8E4700CE7707";
shapes = (
{
closed = 1;
nodes = (
(466,352,l),
(466,639,ls),
(466,793,o),
(84,790,o),
(84,1113,cs),
(84,1328,o),
(267,1467,o),
(472,1467,cs),
(707,1467,o),
(847,1233,o),
(869,1023,c),
(666,1023,l),
(656,1118,o),
(595,1223,o),
(488,1223,cs),
(419,1223,o),
(300,1188,o),
(300,1102,cs),
(300,1002,o),
(569,922,o),
(629,808,cs),
(657,754,o),
(663,686,o),
(663,626,cs),
(663,352,l)
);
},
{
closed = 1;
nodes = (
(408,194,o),
(475,265,o),
(553,265,cs),
(632,265,o),
(698,196,o),
(698,118,cs),
(698,41,o),
(631,-30,o),
(553,-30,cs),
(474,-30,o),
(408,39,o),
(408,117,cs)
);
}
);
width = 974;
}
);
unicode = 1567;
},
{
color = (255, 153, 153, 255);
glyphname = uni0621;
layers = (
{
anchors = (
{
name = b.uni064D_3;
position = "{471, -55}";
},
{
name = t.uni0615_3;
position = "{467, 1221}";
}
);
layerId = "F74B8AD3-7B55-4203-B0B4-8E4700CE7707";
shapes = (
{
closed = 1;
nodes = (
(108,223,l),
(210,276,l),
(170,344,o),
(143,420,o),
(143,499,cs),
(143,660,o),
(257,845,o),
(433,845,cs),
(542,845,o),
(635,768,o),
(699,686,c),
(631,575,l),
(572,586,o),
(513,601,o),
(452,601,cs),
(409,601,o),
(337,585,o),
(337,530,cs),
(337,476,o),
(395,414,o),
(435,383,c),
(543,427,o),
(657,453,o),
(770,480,c),
(747,243,l),
(532,171,o),
(321,87,o),
(121,-19,c)
);
}
);
width = 868;
}
);
unicode = 1569;
},
{
color = (255, 153, 153, 255);
glyphname = uni0627;
layers = (
{
anchors = (
{
name = b.uni064D_3;
position = "{243, -196}";
},
{
name = t.uni0615_3;
position = "{239, 1533}";
}
);
layerId = "F74B8AD3-7B55-4203-B0B4-8E4700CE7707";
shapes = (
{
closed = 1;
nodes = (
(147,-50,l),
(113,1344,l),
(352,1506,l),
(352,85,l)
);
}
);
width = 487;
}
);
unicode = 1575;
},
{
color = (255, 153, 153, 255);
glyphname = uni062D;
layers = (
{
anchors = (
{
name = b.uni064D_3;
position = "{580, -770}";
},
{
name = t.uni0615_3;
position = "{649, 1302}";
}
);
layerId = "F74B8AD3-7B55-4203-B0B4-8E4700CE7707";
shapes = (
{
closed = 1;
nodes = (
(314,-377,o),
(601,-437,o),
(815,-437,cs),
(961,-437,o),
(1107,-412,o),
(1249,-381,c),
(1208,-641,l),
(1077,-673,o),
(944,-697,o),
(809,-697,cs),
(473,-697,o),
(109,-540,o),
(109,-154,cs),
(109,242,o),
(427,466,o),
(767,585,c),
(675,624,o),
(517,686,o),
(418,686,cs),
(330,686,o),
(239,597,o),
(186,534,c),
(56,642,l),
(136,779,o),
(272,937,o),
(445,937,cs),
(734,937,o),
(988,693,o),
(1313,687,c),
(1218,427,l),
(1191,427,o),
(1163,429,o),
(1136,429,cs),
(855,429,o),
(314,232,o),
(314,-109,cs)
);
}
);
width = 1386;
}
);
unicode = 1581;
},
{
color = (255, 153, 153, 255);
glyphname = uni062F;
layers = (
{
anchors = (
{
name = b.uni064D_3;
position = "{437, -199}";
},
{
name = t.uni0615_3;
position = "{396, 1271}";
}
);
layerId = "F74B8AD3-7B55-4203-B0B4-8E4700CE7707";
shapes = (
{
closed = 1;
nodes = (
(715,424,o),
(572,625,o),
(371,826,c),
(529,1024,l),
(758,788,o),
(916,502,o),
(916,323,cs),
(916,104,o),
(699,-30,o),
(344,-30,cs),
(257,-30,o),
(166,-20,o),
(71,0,c),
(71,260,l),
(195,237,o),
(296,227,o),
(389,227,cs),
(583,227,o),
(715,274,o),
(715,343,cs)
);
}
);
width = 994;
}
);
unicode = 1583;
},
{
color = (255, 153, 153, 255);
glyphname = uni0631;
layers = (
{
anchors = (
{
name = b.uni064D_3;
position = "{322, -607}";
},
{
name = t.uni0615_3;
position = "{507, 966}";
}
);
layerId = "F74B8AD3-7B55-4203-B0B4-8E4700CE7707";
shapes = (
{
closed = 1;
nodes = (
(-15,-280,l),
(191,-261,o),
(535,-171,o),
(535,89,cs),
(535,188,o),
(482,372,o),
(452,470,c),
(660,571,l),
(694,417,o),
(744,261,o),
(744,102,cs),
(744,-293,o),
(370,-503,o),
(15,-514,c)
);
}
);
width = 826;
}
);
unicode = 1585;
},
{
color = (255, 153, 153, 255);
glyphname = uni0633;
layers = (
{
anchors = (
{
name = b.uni064D_3;
position = "{681, -716}";
},
{
name = t.uni0615_3;
position = "{1818, 1177}";
}
);
layerId = "F74B8AD3-7B55-4203-B0B4-8E4700CE7707";
shapes = (
{
closed = 1;
nodes = (
(2224,367,o),
(2141,525,o),
(2100,595,c),
(2290,750,l),
(2351,617,o),
(2419,447,o),
(2419,299,cs),
(2419,91,o),
(2298,-30,o),
(2090,-30,cs),
(1971,-30,o),
(1868,-7,o),
(1794,94,c),
(1723,15,o),
(1619,-30,o),
(1513,-30,cs),
(1454,-30,o),
(1396,-18,o),
(1341,2,c),
(1341,-351,o),
(972,-547,o),
(657,-547,cs),
(299,-547,o),
(73,-340,o),
(73,23,cs),
(73,191,o),
(127,360,o),
(178,519,c),
(338,442,l),
(299,329,o),
(259,201,o),
(259,81,cs),
(259,-172,o),
(434,-288,o),
(671,-288,cs),
(903,-288,o),
(1137,-172,o),
(1137,89,cs),
(1137,231,o),
(1096,370,o),
(1066,507,c),
(1270,572,l),
(1313,395,ls),
(1340,284,o),
(1372,230,o),
(1496,230,cs),
(1595,230,o),
(1697,267,o),
(1697,383,cs),
(1697,529,l),
(1906,616,l),
(1906,552,o),
(1905,488,o),
(1905,424,cs),
(1905,280,o),
(1942,230,o),
(2090,230,cs),
(2130,230,o),
(2224,230,o),
(2224,289,cs)
);
}
);
width = 2506;
}
);
unicode = 1587;
},
{
color = (255, 153, 153, 255);
glyphname = uni0635;
layers = (
{
anchors = (
{
name = b.uni064D_3;
position = "{681, -716}";
},
{
name = t.uni0615_3;
position = "{2066, 1276}";
}
);
layerId = "F74B8AD3-7B55-4203-B0B4-8E4700CE7707";
shapes = (
{
closed = 1;
nodes = (
(336,430,l),
(296,310,o),
(259,186,o),
(259,71,cs),
(259,-176,o),
(435,-298,o),
(670,-298,cs),
(919,-298,o),
(1137,-168,o),
(1137,99,cs),
(1137,224,o),
(1102,364,o),
(1065,499,c),
(1268,563,l),
(1286,484,o),
(1308,395,o),
(1328,317,cs),
(1334,291,o),
(1343,254,o),
(1359,232,c),
(1523,504,o),
(1749,829,o),
(2105,829,cs),
(2338,829,o),
(2521,628,o),
(2521,401,cs),
(2521,-52,o),
(1988,-54,o),
(1667,-54,cs),
(1553,-54,o),
(1440,-55,o),
(1331,-11,c),
(1277,-374,o),
(1020,-557,o),
(651,-557,cs),
(297,-557,o),
(73,-343,o),
(73,14,cs),
(73,170,o),
(129,348,o),
(178,509,c)
);
},
{
closed = 1;
nodes = (
(1853,577,o),
(1681,381,o),
(1553,210,c),
(1591,209,o),
(1629,208,o),
(1667,208,cs),
(1838,208,ls),
(1968,208,o),
(2310,208,o),
(2310,381,cs),
(2310,497,o),
(2180,577,o),
(2072,577,cs)
);
}
);
width = 2607;
}
);
unicode = 1589;
},
{
color = (255, 153, 153, 255);
glyphname = uni0637;
layers = (
{
anchors = (
{
name = b.uni064D_3;
position = "{641, -196}";
},
{
name = t.uni0615_3;
position = "{471, 1536}";
}
);
layerId = "F74B8AD3-7B55-4203-B0B4-8E4700CE7707";
shapes = (
{
closed = 1;
nodes = (
(66,259,l),
(96,256,ls),
(152,250,o),
(216,243,o),
(258,240,c),
(301,313,o),
(339,367,o),
(381,420,c),
(357,1343,l),
(596,1507,l),
(596,657,l),
(726,764,o),
(864,829,o),
(989,829,cs),
(1223,829,o),
(1424,627,o),
(1424,392,cs),
(1424,-31,o),
(938,-33,o),
(651,-33,cs),
(642,-33,ls),
(495,-33,o),
(316,-23,o),
(94,3,c)
);
},
{
closed = 1;
nodes = (
(822,577,o),
(641,450,o),
(465,229,c),
(519,228,o),
(579,226,o),
(654,226,cs),
(666,226,ls),
(815,226,o),
(1211,231,o),
(1211,397,cs),
(1211,496,o),
(1100,577,o),
(965,577,cs)
);
}
);
width = 1490;
}
);
unicode = 1591;
},
{
color = (255, 153, 153, 255);
glyphname = uni0639;
layers = (
{
anchors = (
{
name = b.uni064D_3;
position = "{580, -770}";
},
{
name = t.uni0615_3;
position = "{723, 1406}";
}
);
layerId = "F74B8AD3-7B55-4203-B0B4-8E4700CE7707";
shapes = (
{
closed = 1;
nodes = (
(337,947,o),
(485,1106,o),
(690,1106,cs),
(796,1106,o),
(936,1043,o),
(1058,944,c),
(1005,807,l),
(880,838,o),
(789,856,o),
(727,856,cs),
(598,856,o),
(527,818,o),
(527,746,cs),
(527,669,o),
(586,577,o),
(688,509,c),
(1134,564,l),
(1047,297,l),
(601,290,o),
(265,95,o),
(265,-156,cs),
(265,-355,o),
(473,-472,o),
(825,-472,cs),
(925,-472,o),
(1074,-455,o),
(1266,-420,c),
(1152,-701,l),
(1032,-728,o),
(919,-739,o),
(812,-739,cs),
(359,-739,o),
(81,-524,o),
(74,-186,c),
(77,62,o),
(182,253,o),
(429,422,c),
(375,517,o),
(337,637,o),
(337,728,cs)
);
}
);
width = 1330;
}
);
unicode = 1593;
},
{
color = (255, 153, 153, 255);
glyphname = afii57440;
layers = (
{
anchors = (
{
name = b.uni064D_3;
position = "{147, -194}";
},
{
name = t.uni0615_3;
position = "{143, 1416}";
}
);
layerId = "F74B8AD3-7B55-4203-B0B4-8E4700CE7707";
shapes = (
{
closed = 1;
nodes = (
(-15,-30,l),
(-15,230,l),
(301,230,l),
(301,-30,l)
);
}
);
width = 286;
}
);
unicode = 1600;
},
{
color = (255, 153, 153, 255);
glyphname = uni0643;
layers = (
{
anchors = (
{
name = b.uni064D_3;
position = "{750, -196}";
},
{
name = t.uni0615_3;
position = "{978, 1522}";
}
);
layerId = "F74B8AD3-7B55-4203-B0B4-8E4700CE7707";
shapes = (
{
closed = 1;
nodes = (
(78,538,o),
(96,641,o),
(115,743,c),
(287,726,l),
(271,651,o),
(257,574,o),
(257,497,cs),
(257,198,o),
(549,196,o),
(772,196,cs),
(1257,196,ls),
(1399,196,o),
(1621,199,o),
(1621,394,cs),
(1621,1396,l),
(1840,1484,l),
(1840,454,ls),
(1840,-9,o),
(1522,-65,o),
(1137,-65,cs),
(1014,-65,o),
(891,-64,o),
(768,-64,cs),
(402,-64,o),
(78,-11,o),
(78,434,cs)
);
},
{
closed = 1;
nodes = (
(684,867,l),
(778,867,o),
(933,889,o),
(995,911,c),
(903,952,o),
(782,990,o),
(782,1112,cs),
(782,1212,o),
(978,1342,o),
(1168,1368,c),
(1123,1169,l),
(1059,1161,o),
(992,1139,o),
(963,1118,c),
(1056,1086,o),
(1181,1051,o),
(1181,930,cs),
(1181,842,o),
(1068,745,o),
(913,703,cs),
(855,687,o),
(797,679,o),
(741,678,c)
);
}
);
width = 1971;
}
);
unicode = 1603;
},
{
color = (255, 153, 153, 255);
glyphname = uni0644;
layers = (
{
anchors = (
{
name = b.uni064D_3;
position = "{681, -716}";
},
{
name = t.uni0615_3;
position = "{593, 1241}";
}
);
layerId = "F74B8AD3-7B55-4203-B0B4-8E4700CE7707";
shapes = (
{
closed = 1;
nodes = (
(1305,140,ls),
(1305,-311,o),
(1200,-545,o),
(701,-545,cs),
(283,-545,o),
(75,-353,o),
(75,28,cs),
(75,135,o),
(103,282,o),
(166,520,c),
(325,452,l),
(278,275,o),
(254,160,o),
(254,83,cs),
(254,-205,o),
(447,-285,o),
(720,-285,cs),
(1016,-285,o),
(1094,-171,o),
(1094,-15,c),
(1095,1387,l),
(1305,1488,l),
(1305,378,l)
);
}
);
width = 1441;
}
);
unicode = 1604;
},
{
color = (255, 153, 153, 255);
glyphname = uni0645;
layers = (
{
anchors = (
{
name = b.uni064D_3;
position = "{724, -296}";
},
{
name = t.uni0615_3;
position = "{769, 1174}";
}
);
layerId = "F74B8AD3-7B55-4203-B0B4-8E4700CE7707";
shapes = (
{
closed = 1;
nodes = (
(999,725,o),
(1158,520,o),
(1158,305,cs),
(1158,109,o),
(1050,-36,o),
(902,-36,cs),
(803,-36,o),
(638,36,o),
(462,160,c),
(356,154,o),
(306,90,o),
(297,-4,c),
(289,-685,l),
(79,-786,l),
(79,-14,ls),
(79,203,o),
(206,348,o),
(417,380,c),
(489,516,o),
(648,725,o),
(833,725,cs)
);
},
{
closed = 1;
nodes = (
(942,224,o),
(949,232,o),
(949,247,cs),
(949,349,o),
(863,473,o),
(792,473,cs),
(752,473,o),
(701,425,o),
(649,341,c),
(782,261,o),
(868,224,o),
(929,224,cs)
);
}
);
width = 1242;
}
);
unicode = 1605;
},
{
color = (255, 153, 153, 255);
glyphname = uni0647;
layers = (
{
anchors = (
{
name = b.uni064D_3;
position = "{450, -200}";
},
{
name = t.uni0615_3;
position = "{424, 1251}";
}
);
layerId = "F74B8AD3-7B55-4203-B0B4-8E4700CE7707";
shapes = (
{
closed = 1;
nodes = (
(269,843,l),
(429,1005,l),
(611,820,o),
(855,564,o),
(855,314,cs),
(855,83,o),
(687,-24,o),
(474,-24,cs),
(274,-24,o),
(82,80,o),
(82,306,cs),
(82,483,o),
(214,642,o),
(336,778,c)
);
},
{
closed = 1;
nodes = (
(276,261,o),
(392,232,o),
(465,232,cs),
(549,232,o),
(653,249,o),
(653,345,cs),
(653,432,o),
(543,561,o),
(465,640,c),
(386,557,o),
(276,423,o),
(276,347,cs)
);
}
);
width = 942;
}
);
unicode = 1607;
},
{
color = (255, 153, 153, 255);
glyphname = uni0648;
layers = (
{
anchors = (
{
name = b.uni064D_3;
position = "{392, -607}";
},
{
name = t.uni0615_3;
position = "{453, 1152}";
}
);
layerId = "F74B8AD3-7B55-4203-B0B4-8E4700CE7707";
shapes = (
{
closed = 1;
nodes = (
(38,-310,l),
(336,-260,o),
(552,-156,o),
(609,-30,c),
(531,-30,ls),
(222,-30,o),
(87,71,o),
(87,302,cs),
(87,537,o),
(252,758,o),
(428,758,cs),
(642,758,o),
(831,460,o),
(831,119,cs),
(831,-260,o),
(584,-474,o),
(85,-521,c)
);
},
{
closed = 1;
nodes = (
(287,269,o),
(354,230,o),
(487,230,cs),
(611,230,l),
(576,398,o),
(492,504,o),
(400,504,cs),
(340,504,o),
(287,429,o),
(287,344,cs)
);
}
);
width = 900;
}
);
unicode = 1608;
},
{
color = (255, 153, 153, 255);
glyphname = uni0649;
layers = (
{
anchors = (
{
name = b.uni064D_3;
position = "{681, -676}";
},
{
name = t.uni0615_3;
position = "{737, 996}";
}
);
layerId = "F74B8AD3-7B55-4203-B0B4-8E4700CE7707";
shapes = (
{
closed = 1;
nodes = (
(1255,-78,o),
(1200,-70,o),
(1139,-62,c),
(970,-35,o),
(753,-3,o),
(753,244,cs),
(753,490,o),
(1010,738,o),
(1280,738,cs),
(1359,738,o),
(1409,720,o),
(1488,680,c),
(1398,469,l),
(1346,485,o),
(1334,490,o),
(1289,490,cs),
(1118,490,o),
(939,375,o),
(939,280,cs),
(939,241,o),
(1025,220,o),
(1114,200,c),
(1269,163,o),
(1440,122,o),
(1440,-62,cs),
(1440,-293,o),
(1111,-524,o),
(655,-524,cs),
(258,-524,o),
(73,-363,o),
(73,26,cs),
(73,158,o),
(101,292,o),
(178,540,c),
(337,462,l),
(285,297,o),
(259,187,o),
(259,81,cs),
(259,-182,o),
(471,-240,o),
(693,-249,c),
(977,-237,o),
(1255,-149,o),
(1255,-79,c)
);
}
);
width = 1524;
}
);
unicode = 1609;
},
{
color = (255, 153, 153, 255);
glyphname = uni064B;
layers = (
{
anchors = (
{
name = _t.uni0615;
position = "{593, 1113}";
},
{
name = t.uni0615;
position = "{553, 1596}";
},
{
name = _t.uni0615_2;
position = "{593, 1113}";
},
{
name = _t.uni0615_3;
position = "{593, 1113}";
}
);
layerId = "F74B8AD3-7B55-4203-B0B4-8E4700CE7707";
shapes = (
{
closed = 1;
nodes = (
(798,1462,l),
(307,1272,l),
(311,1401,l),
(802,1591,l)
);
},
{
closed = 1;
nodes = (
(798,1250,l),
(307,1060,l),
(311,1189,l),
(802,1379,l)
);
}
);
width = 0;
}
);
unicode = 1611;
},
{
color = (255, 153, 153, 255);
glyphname = uni064C;
layers = (
{
anchors = (
{
name = _t.uni0615;
position = "{680, 1218}";
},
{
name = t.uni0615;
position = "{571, 1915}";
},
{
name = _t.uni0615_2;
position = "{680, 1218}";
},
{
name = _t.uni0615_3;
position = "{680, 1218}";
}
);
layerId = "F74B8AD3-7B55-4203-B0B4-8E4700CE7707";
shapes = (
{
closed = 1;
nodes = (
(350,1341,l),
(372,1349,o),
(394,1357,o),
(415,1366,c),
(412,1376,o),
(400,1420,o),
(387,1420,cs),
(371,1420,o),
(331,1374,o),
(321,1361,c),
(257,1449,l),
(289,1478,o),
(344,1524,o),
(389,1524,cs),
(452,1524,o),
(488,1458,o),
(504,1406,c),
(519,1414,o),
(534,1423,o),
(548,1432,c),
(502,1471,o),
(461,1525,o),
(461,1588,cs),
(461,1682,o),
(552,1747,o),
(640,1747,cs),
(726,1747,o),
(787,1687,o),
(787,1601,cs),
(787,1423,o),
(533,1300,o),
(390,1247,c)
);
},
{
closed = 1;
nodes = (
(654,1513,o),
(684,1550,o),
(684,1592,cs),
(684,1623,o),
(665,1643,o),
(634,1643,cs),
(604,1643,o),
(565,1623,o),
(565,1589,cs),
(565,1552,o),
(596,1509,o),
(624,1486,c)
);
}
);
width = 0;
}
);
unicode = 1612;
},
{
color = (255, 153, 153, 255);
glyphname = uni064D;
layers = (
{
anchors = (
{
name = _b.uni064D;
position = "{546, 61}";
},
{
name = b.uni064D;
position = "{592, -407}";
},
{
name = _b.uni064D_2;
position = "{546, 61}";
},
{
name = _b.uni064D_3;
position = "{546, 61}";
}
);
layerId = "F74B8AD3-7B55-4203-B0B4-8E4700CE7707";
shapes = (
{
closed = 1;
nodes = (
(803,-64,l),
(312,-254,l),
(316,-125,l),
(807,65,l)
);
},
{
closed = 1;
nodes = (
(803,-276,l),
(312,-466,l),
(316,-337,l),
(807,-147,l)
);
}
);
width = 0;
}
);
unicode = 1613;
},
{
color = (255, 153, 153, 255);
glyphname = uni064E;
layers = (
{
anchors = (
{
name = _t.uni0615;
position = "{581, 1364}";
},
{
name = t.uni0615;
position = "{541, 1651}";
},
{
name = _t.uni0615_2;
position = "{581, 1364}";
},
{
name = _t.uni0615_3;
position = "{581, 1364}";
}
);
layerId = "F74B8AD3-7B55-4203-B0B4-8E4700CE7707";
shapes = (
{
closed = 1;
nodes = (
(766,1520,l),
(275,1330,l),
(279,1459,l),
(770,1649,l)
);
}
);
width = 0;
}
);
unicode = 1614;
},
{
color = (255, 153, 153, 255);
glyphname = uni064F;
layers = (
{
anchors = (
{
name = _t.uni0615;
position = "{591, 1299}";
},
{
name = t.uni0615;
position = "{570, 1910}";
},
{
name = _t.uni0615_2;
position = "{591, 1299}";
},
{
name = _t.uni0615_3;
position = "{591, 1299}";
}
);
layerId = "F74B8AD3-7B55-4203-B0B4-8E4700CE7707";
shapes = (
{
closed = 1;
nodes = (
(307,1338,l),
(376,1364,o),
(445,1392,o),
(507,1431,c),
(462,1470,o),
(416,1526,o),
(416,1589,cs),
(416,1680,o),
(504,1742,o),
(589,1742,cs),
(670,1742,o),
(732,1688,o),
(732,1605,cs),
(732,1431,o),
(480,1303,o),
(343,1253,c)
);
},
{
closed = 1;
nodes = (
(604,1513,o),
(634,1550,o),
(634,1592,cs),
(634,1623,o),
(615,1643,o),
(584,1643,cs),
(554,1643,o),
(515,1622,o),
(515,1588,cs),
(515,1550,o),
(546,1509,o),
(574,1486,c)
);
}
);
width = 0;
}
);
unicode = 1615;
},
{
color = (255, 153, 153, 255);
glyphname = uni0650;
layers = (
{
anchors = (
{
name = _b.uni064D;
position = "{571, -44}";
},
{
name = b.uni064D;
position = "{619, -324}";
},
{
name = _b.uni064D_2;
position = "{571, -44}";
},
{
name = _b.uni064D_3;
position = "{571, -44}";
}
);
layerId = "F74B8AD3-7B55-4203-B0B4-8E4700CE7707";
shapes = (
{
closed = 1;
nodes = (
(814,-173,l),
(323,-363,l),
(327,-234,l),
(818,-44,l)
);
}
);
width = 0;
}
);
unicode = 1616;
},
{
color = (255, 153, 153, 255);
glyphname = uni0651;
layers = (
{
anchors = (
{
name = _t.uni0615;
position = "{598, 1463}";
},
{
name = t.uni0615;
position = "{570, 1849}";
},
{
name = _t.uni0615_2;
position = "{598, 1463}";
},
{
name = _t.uni0615_3;
position = "{598, 1463}";
}
);
layerId = "F74B8AD3-7B55-4203-B0B4-8E4700CE7707";
shapes = (
{
closed = 1;
nodes = (
(409,1744,l),
(403,1704,o),
(394,1661,o),
(394,1629,cs),
(394,1584,o),
(411,1569,o),
(451,1569,cs),
(520,1569,o),
(515,1612,o),
(515,1666,cs),
(515,1740,l),
(622,1755,l),
(622,1718,o),
(621,1680,o),
(621,1663,cs),
(621,1591,o),
(638,1569,o),
(679,1569,cs),
(715,1569,o),
(732,1586,o),
(732,1630,cs),
(732,1672,o),
(717,1723,o),
(706,1770,c),
(811,1807,l),
(823,1743,o),
(841,1676,o),
(841,1616,cs),
(841,1502,o),
(776,1434,o),
(672,1434,cs),
(628,1434,o),
(590,1446,o),
(563,1469,c),
(530,1449,o),
(491,1438,o),
(447,1438,cs),
(345,1438,o),
(283,1499,o),
(283,1603,cs),
(283,1635,o),
(289,1675,o),
(302,1732,c)
);
}
);
width = 0;
}
);
unicode = 1617;
},
{
color = (255, 153, 153, 255);
glyphname = uni0652;
layers = (
{
anchors = (
{
name = _t.uni0615;
position = "{603, 1222}";
},
{
name = t.uni0615;
position = "{577, 1799}";
},
{
name = _t.uni0615_2;
position = "{603, 1222}";
},
{
name = _t.uni0615_3;
position = "{603, 1222}";
}
);
layerId = "F74B8AD3-7B55-4203-B0B4-8E4700CE7707";
shapes = (
{
closed = 1;
nodes = (
(701,1675,o),
(800,1564,o),
(800,1446,cs),
(800,1334,o),
(711,1251,o),
(593,1251,cs),
(476,1251,o),
(390,1333,o),
(390,1446,cs),
(390,1566,o),
(487,1675,o),
(594,1675,cs)
);
},
{
closed = 1;
nodes = (
(500,1415,o),
(542,1385,o),
(594,1385,cs),
(646,1385,o),
(693,1415,o),
(693,1451,cs),
(693,1491,o),
(637,1541,o),
(590,1541,cs),
(545,1541,o),
(500,1497,o),
(500,1455,cs)
);
}
);
width = 0;
}
);
unicode = 1618;
},
{
color = (255, 153, 153, 255);
glyphname = uni0653;
layers = (
{
anchors = (
{
name = _t.uni0615;
position = "{461, 1539}";
},
{
name = t.uni0615;
position = "{461, 1995}";
},
{
name = _t.uni0615_2;
position = "{461, 1539}";
},
{
name = _t.uni0615_3;
position = "{461, 1539}";
}
);
layerId = "F74B8AD3-7B55-4203-B0B4-8E4700CE7707";
shapes = (
{
closed = 1;
nodes = (
(818,1698,l),
(753,1643,o),
(671,1594,o),
(583,1594,cs),
(507,1594,o),
(433,1619,o),
(357,1619,cs),
(290,1619,o),
(228,1583,o),
(181,1537,c),
(79,1640,l),
(134,1727,o),
(216,1816,o),
(327,1816,cs),
(407,1816,o),
(482,1784,o),
(562,1784,cs),
(627,1784,o),
(694,1811,o),
(751,1841,c)
);
}
);
width = 0;
}
);
unicode = 1619;
},
{
color = (255, 153, 153, 255);
glyphname = uni0657;
layers = (
{
anchors = (
{
name = _t.uni0615;
position = "{513, 1370}";
},
{
name = t.uni0615;
position = "{573, 2089}";
},
{
name = _t.uni0615_2;
position = "{513, 1370}";
},
{
name = _t.uni0615_3;
position = "{513, 1370}";
}
);
layerId = "F74B8AD3-7B55-4203-B0B4-8E4700CE7707";
shapes = (
{
closed = 1;
nodes = (
(767,1830,l),
(699,1804,o),
(630,1777,o),
(568,1739,c),
(613,1700,o),
(656,1646,o),
(656,1583,cs),
(656,1489,o),
(565,1424,o),
(477,1424,cs),
(390,1424,o),
(330,1483,o),
(330,1570,cs),
(330,1748,o),
(584,1872,o),
(727,1924,c)
);
},
{
closed = 1;
nodes = (
(433,1548,o),
(452,1528,o),
(483,1528,cs),
(513,1528,o),
(552,1548,o),
(552,1582,cs),
(552,1619,o),
(511,1657,o),
(484,1677,c),
(457,1652,o),
(433,1617,o),
(433,1579,cs)
);
}
);
width = 0;
}
);
unicode = 1623;
},
{
color = (255, 153, 153, 255);
glyphname = uni065A;
layers = (
{
anchors = (
{
name = _t.uni0615;
position = "{573, 1350}";
},
{
name = t.uni0615;
position = "{571, 1862}";
},
{
name = _t.uni0615_2;
position = "{573, 1350}";
},
{
name = _t.uni0615_3;
position = "{573, 1350}";
}
);
layerId = "F74B8AD3-7B55-4203-B0B4-8E4700CE7707";
shapes = (
{
closed = 1;
nodes = (
(532,1420,l),
(486,1523,o),
(420,1639,o),
(322,1785,c),
(452,1818,l),
(496,1753,o),
(536,1684,o),
(578,1601,c),
(616,1681,o),
(662,1763,o),
(714,1845,c),
(808,1771,l),
(734,1667,o),
(680,1561,o),
(632,1424,c)
);
}
);
width = 1135;
}
);
unicode = 1626;
},
{
color = (255, 153, 153, 255);
glyphname = afii57392;
layers = (
{
layerId = "F74B8AD3-7B55-4203-B0B4-8E4700CE7707";
shapes = (
{
closed = 1;
nodes = (
(666,667,o),
(608,725,o),
(535,725,cs),
(464,725,o),
(411,671,o),
(411,599,cs),
(411,523,o),
(467,465,o),
(540,465,cs),
(612,465,o),
(666,521,o),
(666,596,cs)
);
},
{
closed = 1;
nodes = (
(883,393,o),
(738,244,o),
(541,244,cs),
(342,244,o),
(192,398,o),
(192,604,cs),
(192,802,o),
(335,946,o),
(533,946,cs),
(732,946,o),
(883,795,o),
(883,597,cs)
);
}
);
width = 1077;
}
);
unicode = 1632;
},
{
color = (255, 153, 153, 255);
glyphname = afii57393;
layers = (
{
layerId = "F74B8AD3-7B55-4203-B0B4-8E4700CE7707";
shapes = (
{
closed = 1;
nodes = (
(361,1486,l),
(479,989,o),
(542,496,o),
(552,20,c),
(345,-35,l),
(312,434,o),
(249,899,o),
(113,1339,c)
);
}
);
width = 756;
}
);
unicode = 1633;
},
{
color = (255, 153, 153, 255);
glyphname = afii57394;
layers = (
{
layerId = "F74B8AD3-7B55-4203-B0B4-8E4700CE7707";
shapes = (
{
closed = 1;
nodes = (
(354,1487,l),
(384,1273,l),
(413,1086,o),
(505,989,o),
(653,989,cs),
(803,989,o),
(896,1088,o),
(907,1263,cs),
(908,1279,o),
(908,1297,o),
(908,1313,cs),
(908,1441,l),
(1114,1424,l),
(1114,1385,o),
(1113,1297,o),
(1111,1263,cs),
(1090,904,o),
(927,702,o),
(650,702,cs),
(589,702,o),
(545,710,o),
(497,730,c),
(500,690,o),
(504,650,o),
(507,610,c),
(528,360,o),
(539,174,o),
(541,17,c),
(339,-27,l),
(303,454,o),
(223,925,o),
(107,1338,c)
);
}
);
width = 1217;
}
);
unicode = 1634;
},
{
color = (255, 153, 153, 255);
glyphname = afii57395;
layers = (
{
layerId = "F74B8AD3-7B55-4203-B0B4-8E4700CE7707";
shapes = (
{
closed = 1;
nodes = (
(347,1481,l),
(353,1448,o),
(386,1287,o),
(393,1253,c),
(433,1077,o),
(489,984,o),
(600,984,cs),
(692,984,o),
(745,1069,o),
(752,1188,c),
(754,1415,l),
(966,1415,l),
(966,1169,ls),
(966,1055,o),
(1008,993,o),
(1085,993,cs),
(1165,993,o),
(1208,1058,o),
(1208,1179,cs),
(1208,1248,o),
(1208,1400,o),
(1206,1455,c),
(1424,1435,l),
(1424,1416,o),
(1424,1387,o),
(1423,1368,c),
(1423,1345,o),
(1423,1333,o),
(1423,1310,cs),
(1423,1276,o),
(1423,1256,o),
(1423,1222,c),
(1423,1167,ls),
(1423,896,o),
(1292,725,o),
(1085,725,cs),
(998,725,o),
(922,755,o),
(859,815,c),
(800,755,o),
(702,716,o),
(608,716,cs),
(568,716,o),
(532,722,o),
(497,735,c),
(525,441,o),
(538,194,o),
(542,15,c),
(340,-29,l),
(304,476,o),
(226,940,o),
(111,1333,c)
);
}
);
width = 1492;
}
);
unicode = 1635;
},
{
color = (255, 153, 153, 255);
glyphname = afii57396;
layers = (
{
layerId = "F74B8AD3-7B55-4203-B0B4-8E4700CE7707";
shapes = (
{
closed = 1;
nodes = (
(882,-13,l),
(825,-22,o),
(765,-27,o),
(702,-27,cs),
(620,-27,o),
(543,-18,o),
(472,0,cs),
(267,52,o),
(133,173,o),
(133,306,cs),
(133,428,o),
(236,601,o),
(384,729,c),
(241,799,o),
(157,913,o),
(157,1035,cs),
(157,1191,o),
(302,1351,o),
(509,1422,cs),
(583,1447,o),
(658,1460,o),
(732,1460,cs),
(764,1460,o),
(799,1457,o),
(867,1450,c),
(814,1199,l),
(566,1199,o),
(360,1138,o),
(360,1064,cs),
(360,1028,o),
(489,960,o),
(627,923,cs),
(675,910,o),
(724,900,o),
(774,893,c),
(746,652,l),
(682,634,o),
(631,615,o),
(586,593,cs),
(463,533,o),
(340,415,o),
(340,361,cs),
(340,318,o),
(485,253,o),
(626,235,cs),
(685,227,o),
(739,224,o),
(789,224,cs),
(836,224,o),
(891,227,o),
(967,233,c)
);
}
);
width = 1056;
}
);
unicode = 1636;
},
{
color = (255, 153, 153, 255);
glyphname = afii57397;
layers = (
{
layerId = "F74B8AD3-7B55-4203-B0B4-8E4700CE7707";
shapes = (
{
closed = 1;
nodes = (
(281,-39,o),
(100,171,o),
(100,506,cs),
(100,703,o),
(163,938,o),
(257,1098,cs),
(367,1284,o),
(575,1464,o),
(684,1464,cs),
(785,1464,o),
(957,1308,o),
(1055,1127,cs),
(1125,997,o),
(1163,842,o),
(1163,675,cs),
(1163,255,o),
(922,-39,o),
(575,-39,cs)
);
},
{
closed = 1;
nodes = (
(819,243,o),
(942,375,o),
(942,596,cs),
(942,700,o),
(915,815,o),
(868,909,cs),
(805,1034,o),
(678,1178,o),
(630,1178,cs),
(584,1178,o),
(463,1044,o),
(399,923,cs),
(344,820,o),
(309,686,o),
(309,571,cs),
(309,364,o),
(421,243,o),
(616,243,cs)
);
}
);
width = 1257;
}
);
unicode = 1637;
},
{
color = (255, 153, 153, 255);
glyphname = afii57398;
layers = (
{
layerId = "F74B8AD3-7B55-4203-B0B4-8E4700CE7707";
shapes = (
{
closed = 1;
nodes = (
(1001,-56,l),
(873,196,o),
(781,545,o),
(781,828,cs),
(781,934,o),
(788,1040,o),
(799,1146,c),
(701,1129,o),
(602,1121,o),
(503,1121,cs),
(365,1121,o),
(227,1142,o),
(97,1188,c),
(102,1460,l),
(252,1421,o),
(407,1394,o),
(562,1394,cs),
(678,1394,o),
(793,1417,o),
(904,1447,c),
(999,1264,l),
(988,1181,o),
(979,1098,o),
(979,1015,cs),
(979,722,o),
(1046,427,o),
(1189,170,c)
);
}
);
width = 1305;
}
);
unicode = 1638;
},
{
color = (255, 153, 153, 255);
glyphname = afii57399;
layers = (
{
layerId = "F74B8AD3-7B55-4203-B0B4-8E4700CE7707";
shapes = (
{
closed = 1;
nodes = (
(231,1488,l),
(427,1176,o),
(552,900,o),
(646,593,c),
(743,880,o),
(873,1179,o),
(1055,1487,c),
(1236,1268,l),
(975,902,o),
(776,357,o),
(744,-11,c),
(555,-30,l),
(503,458,o),
(335,894,o),
(48,1269,c)
);
}
);
width = 1301;
}
);
unicode = 1639;
},
{
color = (255, 153, 153, 255);
glyphname = afii57400;
layers = (
{
layerId = "F74B8AD3-7B55-4203-B0B4-8E4700CE7707";
shapes = (
{
closed = 1;
nodes = (
(48,189,l),
(335,564,o),
(503,1000,o),
(555,1488,c),
(744,1469,l),
(776,1101,o),
(975,556,o),
(1236,190,c),
(1055,-29,l),
(873,279,o),
(743,578,o),
(646,865,c),
(552,558,o),
(427,282,o),
(231,-30,c)
);
}
);
width = 1301;
}
);
unicode = 1640;
},
{
color = (255, 153, 153, 255);
glyphname = afii57401;
layers = (
{
layerId = "F74B8AD3-7B55-4203-B0B4-8E4700CE7707";
shapes = (
{
closed = 1;
nodes = (
(548,913,o),
(607,919,o),
(671,934,c),
(647,1122,o),
(582,1218,o),
(483,1218,cs),
(388,1218,o),
(314,1138,o),
(314,1040,cs),
(314,957,o),
(371,913,o),
(501,913,cs)
);
},
{
closed = 1;
nodes = (
(737,1469,o),
(884,1239,o),
(884,870,cs),
(884,625,o),
(956,306,o),
(1046,133,c),
(862,-48,l),
(746,209,o),
(691,440,o),
(680,684,c),
(598,665,o),
(534,657,o),
(477,657,cs),
(242,657,o),
(110,774,o),
(110,1010,cs),
(110,1271,o),
(273,1469,o),
(498,1469,cs)
);
}
);
width = 1179;
}
);
unicode = 1641;
},
{
color = (255, 153, 153, 255);
glyphname = afii57381;
layers = (
{
layerId = "F74B8AD3-7B55-4203-B0B4-8E4700CE7707";
shapes = (
{
closed = 1;
nodes = (
(846,1450,l),
(1032,1366,l),
(426,25,l),
(240,109,l)
);
},
{
closed = 1;
nodes = (
(726,344,o),
(797,416,o),
(889,416,cs),
(981,416,o),
(1052,344,o),
(1052,252,cs),
(1052,160,o),
(981,89,o),
(889,89,cs),
(795,89,o),
(726,158,o),
(726,252,cs)
);
},
{
closed = 1;
nodes = (
(219,1310,o),
(290,1382,o),
(382,1382,cs),
(474,1382,o),
(545,1310,o),
(545,1218,cs),
(545,1126,o),
(474,1055,o),
(382,1055,cs),
(288,1055,o),
(219,1124,o),
(219,1218,cs)
);
}
);
width = 1288;
}
);
unicode = 1642;
},
{
color = (255, 153, 153, 255);
glyphname = uni066B;
layers = (
{
layerId = "F74B8AD3-7B55-4203-B0B4-8E4700CE7707";
shapes = (
{
closed = 1;
nodes = (
(523,851,l),
(695,773,l),
(206,-347,l),
(34,-268,l)
);
}
);
width = 822;
}
);
unicode = 1643;
},
{
color = (255, 153, 153, 255);
glyphname = uni066C;
layers = (
{
layerId = "F74B8AD3-7B55-4203-B0B4-8E4700CE7707";
shapes = (
{
closed = 1;
nodes = (
(101,253,o),
(191,325,o),
(292,325,cs),
(437,325,o),
(501,201,o),
(501,75,cs),
(501,-107,o),
(366,-271,o),
(237,-395,c),
(114,-331,l),
(197,-240,o),
(262,-140,o),
(292,-43,c),
(183,-43,o),
(101,35,o),
(101,145,cs)
);
}
);
width = 588;
}
);
unicode = 1644;
},
{
color = (255, 153, 153, 255);
glyphname = afii63167;
layers = (
{
layerId = "F74B8AD3-7B55-4203-B0B4-8E4700CE7707";
shapes = (
{
closed = 1;
nodes = (
(143,1069,l),
(645,1069,l),
(800,1546,l),
(955,1069,l),
(1455,1069,l),
(1055,770,l),
(1209,295,l),
(800,592,l),
(390,295,l),
(543,772,l)
);
}
);
width = 1584;
}
);
unicode = 1645;
},
{
color = (255, 153, 153, 255);
glyphname = uni066E;
layers = (
{
anchors = (
{
name = b.uni064D_3;
position = "{957, -217}";
},
{
name = t.uni0615_3;
position = "{1007, 1455}";
}
);
layerId = "F74B8AD3-7B55-4203-B0B4-8E4700CE7707";
shapes = (
{
closed = 1;
nodes = (
(235,-57,o),
(70,61,o),
(70,436,cs),
(70,499,o),
(80,588,o),
(105,743,c),
(276,724,l),
(259,629,o),
(249,542,o),
(249,483,cs),
(249,273,o),
(356,202,o),
(671,202,cs),
(709,202,ls),
(1038,202,o),
(1245,211,o),
(1378,234,cs),
(1527,260,o),
(1573,293,o),
(1573,379,cs),
(1573,431,o),
(1554,524,o),
(1521,639,c),
(1747,775,l),
(1790,582,o),
(1805,488,o),
(1805,417,cs),
(1805,153,o),
(1658,11,o),
(1332,-33,cs),
(1229,-47,o),
(1069,-56,o),
(924,-56,cs),
(842,-56,l),
(823,-57,o),
(802,-57,o),
(759,-57,cs)
);
}
);
width = 1837;
}
);
unicode = 1646;
},
{
color = (255, 153, 153, 255);
glyphname = uni066F;
layers = (
{
anchors = (
{
name = b.uni064D_3;
position = "{335, -721}";
},
{
name = t.uni0615_3;
position = "{121, 1402}";
}
);
layerId = "F74B8AD3-7B55-4203-B0B4-8E4700CE7707";
shapes = (
{
closed = 1;
nodes = (
(1063,33,ls),
(798,33,o),
(702,113,o),
(702,331,cs),
(702,591,o),
(867,823,o),
(1051,823,cs),
(1212,823,o),
(1359,652,o),
(1422,403,cs),
(1442,320,o),
(1449,232,o),
(1449,147,c),
(1449,-265,o),
(1217,-482,o),
(775,-482,cs),
(343,-482,o),
(75,-263,o),
(75,91,cs),
(75,200,o),
(107,348,o),
(182,577,c),
(340,515,l),
(288,337,o),
(262,222,o),
(262,146,cs),
(262,-88,o),
(447,-223,o),
(766,-223,cs),
(1029,-223,o),
(1236,-120,o),
(1241,33,c)
);
},
{
closed = 1;
nodes = (
(899,317,o),
(957,293,o),
(1120,293,cs),
(1216,293,l),
(1171,469,o),
(1099,575,o),
(1028,575,cs),
(961,575,o),
(899,485,o),
(899,389,cs)
);
}
);
width = 1511;
}
);
unicode = 1647;
},
{
color = (255, 153, 153, 255);
glyphname = uni0670;
layers = (
{
anchors = (
{
name = _t.uni0615;
position = "{636, 1500}";
},
{
name = t.uni0615;
position = "{636, 1997}";
},
{
name = _t.uni0615_2;
position = "{636, 1500}";
},
{
name = _t.uni0615_3;
position = "{636, 1500}";
}
);
layerId = "F74B8AD3-7B55-4203-B0B4-8E4700CE7707";
shapes = (
{
closed = 1;
nodes = (
(594,1567,l),
(556,1927,l),
(694,1987,l),
(690,1861,o),
(687,1734,o),
(685,1608,c)
);
}
);
width = 0;
}
);
unicode = 1648;
},
{
color = (255, 153, 153, 255);
glyphname = uni0674;
layers = (
{
layerId = "F74B8AD3-7B55-4203-B0B4-8E4700CE7707";
shapes = (
{
closed = 1;
nodes = (
(61,1951,l),
(131,1976,l),
(114,2022,o),
(106,2057,o),
(106,2093,cs),
(106,2218,o),
(200,2327,o),
(306,2327,cs),
(376,2327,o),
(442,2279,o),
(492,2196,c),
(435,2127,l),
(390,2138,o),
(344,2160,o),
(302,2160,cs),
(267,2160,o),
(244,2145,o),
(244,2118,cs),
(244,2096,o),
(260,2064,o),
(292,2029,c),
(354,2045,o),
(429,2057,o),
(520,2064,c),
(486,1903,l),
(330,1873,o),
(184,1833,o),
(50,1783,c)
);
}
);
width = 551;
}
);
unicode = 1652;
},
{
color = (255, 153, 153, 255);
glyphname = uni06A1;
layers = (
{
anchors = (
{
name = b.uni064D_3;
position = "{653, -312}";
},
{
name = t.uni0615_3;
position = "{670, 1670}";
}
);
layerId = "F74B8AD3-7B55-4203-B0B4-8E4700CE7707";
shapes = (
{
closed = 1;
nodes = (
(70,509,o),
(80,593,o),
(106,743,c),
(272,725,l),
(263,656,o),
(249,584,o),
(249,523,cs),
(249,319,o),
(403,202,o),
(671,202,cs),
(1157,202,ls),
(1334,202,o),
(1507,281,o),
(1552,382,c),
(1482,376,o),
(1449,374,o),
(1413,374,cs),
(1166,374,o),
(1042,471,o),
(1042,664,cs),
(1042,881,o),
(1200,1091,o),
(1364,1091,cs),
(1514,1091,o),
(1689,916,o),
(1749,706,cs),
(1767,642,o),
(1777,569,o),
(1777,492,cs),
(1777,194,o),
(1630,36,o),
(1288,-28,cs),
(1175,-49,o),
(1051,-59,o),
(891,-59,cs),
(288,-59,o),
(70,72,o),
(70,433,cs)
);
},
{
closed = 1;
nodes = (
(1231,647,o),
(1320,593,o),
(1442,593,cs),
(1479,593,o),
(1517,598,o),
(1554,602,c),
(1517,732,o),
(1417,853,o),
(1347,853,cs),
(1294,853,o),
(1231,781,o),
(1231,720,cs)
);
}
);
width = 1851;
}
);
unicode = 1697;
},
{
color = (255, 153, 153, 255);
glyphname = uni06A9;
layers = (
{
anchors = (
{
name = b.uni064D_3;
position = "{750, -196}";
},
{
name = t.uni0615_3;
position = "{1125, 1475}";
}
);
layerId = "F74B8AD3-7B55-4203-B0B4-8E4700CE7707";
shapes = (
{
closed = 1;
nodes = (
(1684,92,o),
(1468,-33,o),
(974,-46,cs),
(918,-47,o),
(862,-48,o),
(750,-48,cs),
(252,-48,o),
(70,84,o),
(70,446,cs),
(70,524,o),
(79,603,o),
(106,753,c),
(274,735,l),
(256,631,o),
(249,568,o),
(249,508,cs),
(249,193,o),
(594,213,o),
(819,213,cs),
(916,213,o),
(1493,212,o),
(1493,325,cs),
(1493,392,o),
(1341,590,o),
(1172,746,cs),
(1110,803,o),
(1041,858,o),
(968,910,c),
(1030,1140,l),
(1881,1507,l),
(1846,1237,l),
(1264,984,l),
(1476,798,o),
(1684,486,o),
(1684,355,cs)
);
}
);
width = 1878;
}
);
unicode = 1705;
},
{
color = (255, 153, 153, 255);
glyphname = afii57514;
layers = (
{
anchors = (
{
name = b.uni064D_3;
position = "{758, -683}";
},
{
name = t.uni0615_3;
position = "{727, 1237}";
}
);
layerId = "F74B8AD3-7B55-4203-B0B4-8E4700CE7707";
shapes = (
{
closed = 1;
nodes = (
(336,-486,o),
(99,-288,o),
(99,89,cs),
(99,234,o),
(150,407,o),
(205,574,c),
(365,510,l),
(323,381,o),
(286,248,o),
(286,142,cs),
(286,-118,o),
(461,-227,o),
(707,-227,cs),
(918,-227,o),
(1175,-137,o),
(1175,101,cs),
(1175,239,o),
(1143,400,o),
(1103,569,c),
(1316,633,l),
(1346,464,o),
(1377,293,o),
(1377,151,cs),
(1377,-281,o),
(1108,-486,o),
(698,-486,cs)
);
}
);
width = 1475;
}
);
unicode = 1722;
},
{
glyphname = uni06F4;
layers = (
{
layerId = "F74B8AD3-7B55-4203-B0B4-8E4700CE7707";
shapes = (
{
closed = 1;
nodes = (
(1194,734,l),
(1058,674,o),
(923,641,o),
(819,641,cs),
(714,641,o),
(604,668,o),
(509,718,c),
(533,540,o),
(544,382,o),
(544,237,cs),
(544,138,o),
(538,59,o),
(525,-12,c),
(369,-30,l),
(360,385,o),
(210,1008,o),
(43,1322,c),
(258,1451,l),
(313,1349,o),
(358,1251,o),
(393,1154,c),
(498,1345,o),
(658,1460,o),
(819,1460,cs),
(943,1460,o),
(1060,1385,o),
(1146,1249,c),
(1084,1156,l),
(1008,1183,o),
(922,1218,o),
(841,1218,cs),
(723,1218,o),
(611,1126,o),
(551,979,c),
(622,917,o),
(727,886,o),
(863,886,cs),
(955,886,o),
(1058,909,o),
(1172,953,c)
);
}
);
width = 1244;
}
);
unicode = 1780;
},
{
color = (255, 153, 153, 255);
glyphname = uni06F5;
layers = (
{
layerId = "F74B8AD3-7B55-4203-B0B4-8E4700CE7707";
shapes = (
{
closed = 1;
nodes = (
(419,1256,l),
(586,1458,l),
(785,1269,o),
(956,1074,o),
(1061,919,cs),
(1193,722,o),
(1258,556,o),
(1258,412,cs),
(1258,173,o),
(1091,-30,o),
(896,-30,cs),
(805,-30,o),
(719,17,o),
(655,99,c),
(581,16,o),
(488,-31,o),
(392,-31,cs),
(211,-31,o),
(81,123,o),
(81,337,cs),
(81,552,o),
(232,871,o),
(483,1197,c)
);
},
{
closed = 1;
nodes = (
(295,289,o),
(341,225,o),
(407,225,cs),
(498,225,o),
(570,349,o),
(581,523,c),
(749,524,l),
(763,344,o),
(835,220,o),
(925,220,cs),
(990,220,o),
(1039,290,o),
(1042,376,c),
(1031,537,o),
(876,808,o),
(638,1062,c),
(420,795,o),
(295,546,o),
(295,381,cs)
);
}
);
width = 1328;
}
);
unicode = 1781;
},
{
color = (255, 153, 153, 255);
glyphname = uni06F6;
layers = (
{
layerId = "F74B8AD3-7B55-4203-B0B4-8E4700CE7707";
shapes = (
{
closed = 1;
nodes = (
(86,64,l),
(207,339,o),
(307,510,o),
(451,689,c),
(261,762,o),
(167,875,o),
(167,1028,cs),
(167,1249,o),
(367,1461,o),
(576,1461,cs),
(657,1461,o),
(758,1421,o),
(861,1348,c),
(803,1234,l),
(767,1240,o),
(738,1243,o),
(714,1243,cs),
(555,1243,o),
(422,1157,o),
(369,1019,c),
(433,965,o),
(535,926,o),
(612,926,cs),
(682,926,o),
(849,980,o),
(1017,1057,c),
(1052,806,l),
(725,642,o),
(394,294,o),
(239,-49,c)
);
}
);
width = 1124;
}
);
unicode = 1782;
},
{
glyphname = quoteleft;
layers = (
{
layerId = "F74B8AD3-7B55-4203-B0B4-8E4700CE7707";
shapes = (
{
closed = 1;
nodes = (
(104,1199,ls),
(104,1248,o),
(133,1352,o),
(182,1450,o),
(248,1538,o),
(286,1570,q),
(422,1491,l),
(385,1432,o),
(333,1292,o),
(333,1199,qs),
(333,1048,l),
(104,1048,l)
);
}
);
width = 479;
}
);
leftKerningGroup = minute2;
rightKerningGroup = minute;
unicode = 8216;
},
{
glyphname = quoteright;
layers = (
{
layerId = "F74B8AD3-7B55-4203-B0B4-8E4700CE7707";
shapes = (
{
closed = 1;
nodes = (
(377,1381,ls),
(377,1332,o),
(348,1228,o),
(299,1129,o),
(232,1042,o),
(194,1009,q),
(58,1088,l),
(77,1118,o),
(109,1182,o),
(133,1253,o),
(147,1334,o),
(147,1381,qs),
(147,1536,l),
(377,1536,l)
);
}
);
width = 470;
}
);
leftKerningGroup = minute2;
rightKerningGroup = minute;
unicode = 8217;
},
{
glyphname = quotesinglbase;
layers = (
{
layerId = "F74B8AD3-7B55-4203-B0B4-8E4700CE7707";
shapes = (
{
closed = 1;
nodes = (
(384,66,l),
(384,17,o),
(355,-86,o),
(306,-185,o),
(239,-272,o),
(202,-305,q),
(66,-226,l),
(103,-166,o),
(147,-27,o),
(147,65,qs),
(147,229,l),
(385,229,l)
);
}
);
width = 508;
}
);
leftKerningGroup = comma2;
rightKerningGroup = comma;
unicode = 8218;
},
{
glyphname = quotereversed;
layers = (
{
layerId = "F74B8AD3-7B55-4203-B0B4-8E4700CE7707";
shapes = (
{
closed = 1;
nodes = (
(72,1536,l),
(302,1536,l),
(302,1381,ls),
(302,1334,o),
(316,1253,o),
(340,1182,o),
(372,1118,o),
(391,1088,q),
(255,1009,l),
(217,1042,o),
(150,1129,o),
(101,1228,o),
(72,1332,o),
(72,1381,qs)
);
}
);
width = 429;
}
);
leftKerningGroup = minute2;
rightKerningGroup = minute;
unicode = 8219;
},
{
glyphname = quotedblbase;
layers = (
{
layerId = "F74B8AD3-7B55-4203-B0B4-8E4700CE7707";
shapes = (
{
closed = 1;
nodes = (
(384,66,l),
(384,15,o),
(357,-95,o),
(311,-199,o),
(246,-291,o),
(209,-325,q),
(66,-246,l),
(103,-182,o),
(147,-33,o),
(147,65,qs),
(147,263,l),
(385,263,l)
);
},
{
closed = 1;
nodes = (
(728,66,l),
(728,15,o),
(699,-95,o),
(650,-199,o),
(583,-291,o),
(545,-325,q),
(402,-246,l),
(439,-182,o),
(491,-33,o),
(491,65,qs),
(491,263,l),
(729,263,l)
);
}
);
width = 825;
}
);
leftKerningGroup = comma2;
rightKerningGroup = comma;
unicode = 8222;
},
{
glyphname = dagger;
layers = (
{
layerId = "F74B8AD3-7B55-4203-B0B4-8E4700CE7707";
shapes = (
{
closed = 1;
nodes = (
(1047,841,l),
(694,841,l),
(694,0,l),
(405,0,l),
(405,841,l),
(57,841,l),
(57,1082,l),
(405,1082,l),
(405,1456,l),
(694,1456,l),
(694,1082,l),
(1047,1082,l)
);
}
);
width = 1102;
}
);
unicode = 8224;
},
{
glyphname = daggerdbl;
layers = (
{
layerId = "F74B8AD3-7B55-4203-B0B4-8E4700CE7707";
shapes = (
{
closed = 1;
nodes = (
(1087,0,l),
(734,0,l),
(734,-416,l),
(444,-416,l),
(444,0,l),
(98,0,l),
(98,233,l),
(444,233,l),
(444,848,l),
(98,848,l),
(98,1082,l),
(444,1082,l),
(444,1456,l),
(734,1456,l),
(734,1082,l),
(1087,1082,l),
(1087,848,l),
(734,848,l),
(734,233,l),
(1087,233,l)
);
}
);
width = 1185;
}
);
unicode = 8225;
},
{
glyphname = bullet;
layers = (
{
layerId = "F74B8AD3-7B55-4203-B0B4-8E4700CE7707";
shapes = (
{
closed = 1;
nodes = (
(135,778,ls),
(135,829,o),
(168,913,o),
(230,975,o),
(317,1009,o),
(371,1009,qs),
(427,1009,o),
(516,975,o),
(577,913,o),
(610,829,o),
(610,778,qs),
(610,728,ls),
(610,678,o),
(577,594,o),
(516,534,o),
(428,500,o),
(373,500,qs),
(318,500,o),
(230,534,o),
(168,594,o),
(135,678,o),
(135,728,qs)
);
}
);
width = 736;
}
);
unicode = 8226;
},
{
glyphname = perthousand;
layers = (
{
layerId = "F74B8AD3-7B55-4203-B0B4-8E4700CE7707";
shapes = (
{
closed = 1;
nodes = (
(813,357,ls),
(813,418,o),
(857,528,o),
(938,609,o),
(1055,657,o),
(1128,657,qs),
(1205,657,o),
(1319,600,o),
(1356,552,q),
(1393,600,o),
(1507,657,o),
(1583,657,qs),
(1658,657,o),
(1776,609,o),
(1857,528,o),
(1900,418,o),
(1900,357,qs),
(1900,280,ls),
(1900,218,o),
(1857,109,o),
(1776,28,o),
(1659,-20,o),
(1585,-20,qs),
(1508,-20,o),
(1393,37,o),
(1356,85,q),
(1319,37,o),
(1206,-20,o),
(1130,-20,qs),
(1056,-20,o),
(939,28,o),
(857,109,o),
(813,218,o),
(813,280,qs)
);
},
{
closed = 1;
nodes = (
(88,1175,ls),
(88,1237,o),
(129,1346,o),
(207,1428,o),
(319,1476,o),
(389,1476,qs),
(464,1476,o),
(581,1428,o),
(662,1346,o),
(705,1237,o),
(705,1175,qs),
(705,1099,ls),
(705,1038,o),
(662,929,o),
(581,848,o),
(465,800,o),
(391,800,qs),
(320,800,o),
(208,848,o),
(130,929,o),
(88,1038,o),
(88,1099,qs)
);
},
{
closed = 1;
nodes = (
(1005,280,ls),
(1005,254,o),
(1023,206,o),
(1055,169,o),
(1101,147,o),
(1130,147,qs),
(1166,147,o),
(1213,169,o),
(1242,206,o),
(1253,254,o),
(1253,280,qs),
(1253,357,ls),
(1253,383,o),
(1238,431,o),
(1206,468,o),
(1159,490,o),
(1128,490,qs),
(1097,490,o),
(1051,468,o),
(1020,431,o),
(1005,383,o),
(1005,357,qs)
);
},
{
closed = 1;
nodes = (
(1460,280,ls),
(1460,254,o),
(1478,206,o),
(1510,169,o),
(1556,147,o),
(1585,147,qs),
(1621,147,o),
(1668,169,o),
(1697,206,o),
(1708,254,o),
(1708,280,qs),
(1708,357,ls),
(1708,383,o),
(1693,431,o),
(1661,468,o),
(1614,490,o),
(1583,490,qs),
(1552,490,o),
(1506,468,o),
(1475,431,o),
(1460,383,o),
(1460,357,qs)
);
},
{
closed = 1;
nodes = (
(266,1099,ls),
(266,1073,o),
(281,1025,o),
(312,989,o),
(359,967,o),
(391,967,qs),
(422,967,o),
(468,989,o),
(498,1025,o),
(513,1073,o),
(513,1099,qs),
(513,1175,ls),
(513,1202,o),
(498,1250,o),
(467,1287,o),
(420,1309,o),
(389,1309,qs),
(357,1309,o),
(311,1287,o),
(281,1250,o),
(266,1202,o),
(266,1175,qs)
);
},
{
closed = 1;
nodes = (
(470,109,l),
(329,185,l),
(1040,1323,l),
(1181,1247,l)
);
}
);
width = 1966;
}
);
unicode = 8240;
},
{
glyphname = guilsinglleft;
layers = (
{
layerId = "F74B8AD3-7B55-4203-B0B4-8E4700CE7707";
shapes = (
{
closed = 1;
nodes = (
(334,524,l),
(574,125,l),
(388,125,l),
(108,515,l),
(108,534,l),
(388,924,l),
(574,924,l)
);
}
);
width = 638;
}
);
unicode = 8249;
},
{
glyphname = guilsinglright;
layers = (
{
layerId = "F74B8AD3-7B55-4203-B0B4-8E4700CE7707";
shapes = (
{
closed = 1;
nodes = (
(267,923,l),
(547,533,l),
(547,514,l),
(267,124,l),
(80,124,l),
(320,523,l),
(80,923,l)
);
}
);
width = 618;
}
);
unicode = 8250;
},
{
glyphname = fraction;
layers = (
{
layerId = "F74B8AD3-7B55-4203-B0B4-8E4700CE7707";
shapes = (
{
closed = 1;
nodes = (
(171,109,l),
(30,185,l),
(741,1323,l),
(882,1247,l)
);
}
);
width = 913;
}
);
unicode = 8260;
},
{
glyphname = uni2074;
layers = (
{
layerId = "F74B8AD3-7B55-4203-B0B4-8E4700CE7707";
shapes = (
{
closed = 1;
nodes = (
(616,994,l),
(706,994,l),
(706,827,l),
(616,827,l),
(616,668,l),
(411,668,l),
(411,827,l),
(68,827,l),
(55,962,l),
(411,1455,l),
(411,1457,l),
(616,1457,l)
);
},
{
closed = 1;
nodes = (
(251,994,l),
(411,994,l),
(411,1202,l),
(399,1184,l)
);
}
);
width = 763;
}
);
unicode = 8308;
},
{
glyphname = nsuperior;
layers = (
{
layerId = "F74B8AD3-7B55-4203-B0B4-8E4700CE7707";
shapes = (
{
closed = 1;
nodes = (
(255,1454,l),
(287,1331,l),
(322,1394,o),
(434,1466,o),
(509,1466,qs),
(571,1466,o),
(669,1431,o),
(737,1356,o),
(773,1240,o),
(773,1159,qs),
(773,653,l),
(561,653,l),
(561,1094,ls),
(561,1146,o),
(544,1219,o),
(511,1263,o),
(464,1283,o),
(433,1283,qs),
(382,1283,o),
(317,1240,o),
(300,1204,q),
(300,653,l),
(87,653,l),
(87,1454,l)
);
}
);
width = 856;
}
);
unicode = 8319;
},
{
glyphname = lira;
layers = (
{
layerId = "F74B8AD3-7B55-4203-B0B4-8E4700CE7707";
shapes = (
{
closed = 1;
nodes = (
(841,468,l),
(569,468,l),
(570,437,l),
(570,377,o),
(541,280,o),
(508,241,q),
(1161,241,l),
(1161,0,l),
(102,0,l),
(102,241,l),
(194,241,l),
(218,247,o),
(246,283,o),
(261,332,o),
(266,391,o),
(266,420,q),
(264,468,l),
(102,468,l),
(102,627,l),
(259,627,l),
(255,737,l),
(102,737,l),
(102,896,l),
(250,896,l),
(246,1039,l),
(246,1142,o),
(312,1305,o),
(432,1416,o),
(599,1475,o),
(700,1475,qs),
(809,1475,o),
(978,1415,o),
(1094,1305,o),
(1154,1152,o),
(1154,1058,q),
(867,1058,l),
(867,1107,o),
(840,1174,o),
(794,1215,o),
(733,1233,o),
(699,1233,qs),
(632,1233,o),
(546,1135,o),
(546,1039,q),
(551,896,l),
(841,896,l),
(841,737,l),
(558,737,l),
(562,627,l),
(841,627,l)
);
}
);
width = 1217;
}
);
unicode = 8356;
},
{
glyphname = peseta;
layers = (
{
layerId = "F74B8AD3-7B55-4203-B0B4-8E4700CE7707";
shapes = (
{
closed = 1;
nodes = (
(445,516,l),
(445,0,l),
(142,0,l),
(142,1456,l),
(549,1456,ls),
(681,1456,o),
(879,1386,o),
(1011,1263,o),
(1078,1093,o),
(1078,994,qs),
(1078,890,o),
(1011,715,o),
(879,587,o),
(681,516,o),
(549,516,qs)
);
},
{
closed = 1;
nodes = (
(445,767,l),
(549,767,ls),
(613,767,o),
(699,805,o),
(751,868,o),
(773,949,o),
(773,992,qs),
(773,1032,o),
(751,1109,o),
(699,1169,o),
(613,1205,o),
(549,1205,qs),
(445,1205,l)
);
},
{
closed = 1;
nodes = (
(1453,1348,l),
(1453,1082,l),
(1638,1082,l),
(1638,870,l),
(1453,870,l),
(1453,330,ls),
(1453,296,o),
(1467,252,o),
(1495,227,o),
(1536,218,o),
(1564,218,qs),
(1590,218,o),
(1633,222,o),
(1649,225,q),
(1649,6,l),
(1613,-5,o),
(1528,-20,o),
(1474,-20,qs),
(1403,-20,o),
(1289,15,o),
(1208,91,o),
(1164,213,o),
(1164,299,qs),
(1164,870,l),
(1006,870,l),
(1006,1082,l),
(1164,1082,l),
(1164,1348,l)
);
}
);
width = 1762;
}
);
unicode = 8359;
},
{
glyphname = Euro;
layers = (
{
layerId = "F74B8AD3-7B55-4203-B0B4-8E4700CE7707";
shapes = (
{
closed = 1;
nodes = (
(894,516,l),
(559,516,l),
(562,432,o),
(609,319,o),
(689,250,o),
(799,221,o),
(866,221,qs),
(917,221,o),
(1012,236,o),
(1056,252,q),
(1092,10,l),
(1032,-4,o),
(903,-19,o),
(836,-19,qs),
(713,-19,o),
(504,48,o),
(351,182,o),
(262,382,o),
(258,516,q),
(89,516,l),
(89,668,l),
(258,668,l),
(258,792,l),
(89,792,l),
(89,944,l),
(260,944,l),
(269,1075,o),
(363,1274,o),
(519,1407,o),
(730,1475,o),
(856,1475,qs),
(916,1475,o),
(1033,1458,o),
(1092,1444,q),
(1056,1201,l),
(1015,1215,o),
(919,1233,o),
(871,1233,qs),
(803,1233,o),
(695,1200,o),
(616,1130,o),
(568,1020,o),
(561,944,q),
(894,944,l),
(894,792,l),
(559,792,l),
(559,668,l),
(894,668,l)
);
}
);
width = 1175;
}
);
unicode = 8364;
},
{
glyphname = uni2105;
layers = (
{
layerId = "F74B8AD3-7B55-4203-B0B4-8E4700CE7707";
shapes = (
{
closed = 1;
nodes = (
(693,1065,l),
(693,1012,o),
(655,917,o),
(581,843,o),
(471,800,o),
(398,800,qs),
(325,800,o),
(214,848,o),
(139,929,o),
(101,1038,o),
(101,1099,qs),
(101,1176,ls),
(101,1238,o),
(139,1347,o),
(214,1429,o),
(324,1477,o),
(396,1477,qs),
(469,1477,o),
(581,1433,o),
(655,1360,o),
(693,1263,o),
(693,1210,q),
(500,1210,l),
(500,1228,o),
(487,1264,o),
(462,1293,o),
(423,1310,o),
(396,1310,qs),
(370,1310,o),
(331,1288,o),
(305,1251,o),
(293,1203,o),
(293,1176,qs),
(293,1099,ls),
(293,1073,o),
(306,1025,o),
(332,989,o),
(371,967,o),
(398,967,qs),
(424,967,o),
(463,985,o),
(488,1013,o),
(500,1048,o),
(500,1065,q)
);
},
{
closed = 1;
nodes = (
(791,357,ls),
(791,418,o),
(832,528,o),
(913,609,o),
(1031,657,o),
(1108,657,qs),
(1186,657,o),
(1304,609,o),
(1384,528,o),
(1424,418,o),
(1424,357,qs),
(1424,280,ls),
(1424,218,o),
(1384,109,o),
(1305,28,o),
(1187,-20,o),
(1110,-20,qs),
(1032,-20,o),
(913,28,o),
(832,109,o),
(791,218,o),
(791,280,qs)
);
},
{
closed = 1;
nodes = (
(984,280,ls),
(984,254,o),
(1002,206,o),
(1035,169,o),
(1081,147,o),
(1110,147,qs),
(1146,147,o),
(1193,169,o),
(1221,206,o),
(1232,254,o),
(1232,280,qs),
(1232,357,ls),
(1232,383,o),
(1217,431,o),
(1186,468,o),
(1139,490,o),
(1108,490,qs),
(1076,490,o),
(1030,468,o),
(999,431,o),
(984,383,o),
(984,357,qs)
);
},
{
closed = 1;
nodes = (
(455,109,l),
(314,185,l),
(1025,1323,l),
(1166,1247,l)
);
}
);
width = 1504;
}
);
unicode = 8453;
},
{
glyphname = uni2113;
layers = (
{
layerId = "F74B8AD3-7B55-4203-B0B4-8E4700CE7707";
shapes = (
{
closed = 1;
nodes = (
(744,-21,l),
(612,-21,o),
(418,43,o),
(290,162,o),
(228,329,o),
(228,431,qs),
(228,447,l),
(139,432,o),
(42,432,q),
(42,619,l),
(93,619,o),
(186,628,o),
(228,636,q),
(228,1043,ls),
(228,1151,o),
(280,1320,o),
(377,1437,o),
(516,1498,o),
(602,1498,qs),
(676,1498,o),
(800,1450,o),
(890,1360,o),
(941,1232,o),
(941,1151,qs),
(941,1109,ls),
(941,1039,o),
(888,884,o),
(784,734,o),
(631,598,o),
(532,546,q),
(532,491,ls),
(532,434,o),
(553,345,o),
(602,283,o),
(684,251,o),
(744,251,q)
);
},
{
closed = 1;
nodes = (
(532,784,l),
(609,855,o),
(681,1026,o),
(681,1107,qs),
(681,1151,ls),
(681,1199,o),
(639,1255,o),
(609,1255,qs),
(574,1255,o),
(532,1174,o),
(532,1089,qs)
);
}
);
width = 1011;
}
);
unicode = 8467;
},
{
glyphname = uni2116;
layers = (
{
layerId = "F74B8AD3-7B55-4203-B0B4-8E4700CE7707";
shapes = (
{
closed = 1;
nodes = (
(1923,417,l),
(1326,417,l),
(1326,564,l),
(1923,564,l)
);
},
{
closed = 1;
nodes = (
(1281,1112,ls),
(1281,1189,o),
(1329,1321,o),
(1419,1417,o),
(1547,1472,o),
(1627,1472,qs),
(1708,1472,o),
(1836,1417,o),
(1926,1321,o),
(1974,1189,o),
(1974,1112,qs),
(1974,1044,ls),
(1974,967,o),
(1926,836,o),
(1837,740,o),
(1709,686,o),
(1629,686,qs),
(1549,686,o),
(1420,740,o),
(1330,836,o),
(1281,967,o),
(1281,1044,qs)
);
},
{
closed = 1;
nodes = (
(1456,1044,ls),
(1456,1000,o),
(1477,922,o),
(1520,865,o),
(1585,832,o),
(1629,832,qs),
(1672,832,o),
(1736,865,o),
(1778,922,o),
(1799,1000,o),
(1799,1044,qs),
(1799,1112,ls),
(1799,1155,o),
(1778,1233,o),
(1735,1290,o),
(1670,1324,o),
(1627,1324,qs),
(1584,1324,o),
(1520,1290,o),
(1477,1233,o),
(1456,1155,o),
(1456,1112,qs)
);
},
{
closed = 1;
nodes = (
(1159,0,l),
(841,0,l),
(419,947,l),
(419,0,l),
(128,0,l),
(128,1456,l),
(446,1456,l),
(869,507,l),
(869,1456,l),
(1159,1456,l)
);
}
);
width = 2077;
}
);
unicode = 8470;
},
{
glyphname = trademark;
layers = (
{
layerId = "F74B8AD3-7B55-4203-B0B4-8E4700CE7707";
shapes = (
{
closed = 1;
nodes = (
(1016,1266,l),
(905,914,l),
(833,914,l),
(722,1267,l),
(722,914,l),
(594,914,l),
(594,1456,l),
(752,1456,l),
(869,1088,l),
(995,1456,l),
(1144,1456,l),
(1144,914,l),
(1016,914,l)
);
},
{
closed = 1;
nodes = (
(523,1348,l),
(394,1348,l),
(394,917,l),
(252,917,l),
(252,1348,l),
(116,1348,l),
(116,1456,l),
(523,1456,l)
);
}
);
width = 1293;
}
);
unicode = 8482;
},
{
glyphname = estimated;
layers = (
{
layerId = "F74B8AD3-7B55-4203-B0B4-8E4700CE7707";
shapes = (
{
closed = 1;
nodes = (
(1042,94,l),
(957,41,o),
(771,-20,o),
(672,-20,qs),
(600,-20,o),
(465,20,o),
(349,94,o),
(253,196,o),
(185,321,o),
(148,464,o),
(148,541,qs),
(148,618,o),
(189,761,o),
(262,886,o),
(361,988,o),
(478,1062,o),
(606,1102,o),
(672,1102,qs),
(775,1102,o),
(955,1020,o),
(1089,876,o),
(1167,678,o),
(1167,561,qs),
(1167,514,l),
(399,514,l),
(399,186,l),
(454,135,o),
(594,76,o),
(672,76,qs),
(766,76,o),
(951,135,o),
(1040,198,q)
);
},
{
closed = 1;
nodes = (
(597,1008,o),
(456,943,o),
(399,886,q),
(399,609,l),
(939,609,l),
(939,895,l),
(886,947,o),
(749,1008,o),
(672,1008,qs)
);
}
);
width = 1296;
}
);
unicode = 8494;
},
{
glyphname = partialdiff;
layers = (
{
layerId = "F74B8AD3-7B55-4203-B0B4-8E4700CE7707";
shapes = (
{
closed = 1;
nodes = (
(646,1036,o),
(785,981,o),
(845,921,q),
(830,1008,o),
(771,1150,o),
(685,1251,o),
(575,1305,o),
(511,1305,qs),
(471,1305,o),
(411,1299,o),
(356,1287,o),
(302,1267,o),
(268,1254,q),
(223,1461,l),
(251,1474,o),
(313,1501,o),
(388,1523,o),
(479,1537,o),
(535,1537,qs),
(670,1537,o),
(882,1429,o),
(1030,1219,o),
(1108,910,o),
(1109,710,q),
(1109,651,ls),
(1109,509,o),
(1042,264,o),
(911,83,o),
(721,-21,o),
(598,-21,qs),
(475,-21,o),
(286,59,o),
(156,201,o),
(89,396,o),
(89,510,qs),
(89,531,ls),
(89,640,o),
(152,825,o),
(273,960,o),
(450,1036,o),
(565,1036,qs)
);
},
{
closed = 1;
nodes = (
(538,803,o),
(454,757,o),
(402,678,o),
(379,574,o),
(379,516,qs),
(379,495,ls),
(379,436,o),
(402,333,o),
(454,256,o),
(538,212,o),
(598,212,qs),
(659,212,o),
(744,267,o),
(797,360,o),
(820,485,o),
(820,555,qs),
(820,669,l),
(809,692,o),
(772,740,o),
(718,779,o),
(646,803,o),
(600,803,qs)
);
}
);
width = 1172;
}
);
unicode = 8706;
},
{
glyphname = product;
layers = (
{
layerId = "F74B8AD3-7B55-4203-B0B4-8E4700CE7707";
shapes = (
{
closed = 1;
nodes = (
(1263,-253,l),
(973,-253,l),
(973,1228,l),
(454,1228,l),
(454,-253,l),
(164,-253,l),
(164,1456,l),
(1263,1456,l)
);
}
);
width = 1419;
}
);
unicode = 8719;
},
{
glyphname = summation;
layers = (
{
layerId = "F74B8AD3-7B55-4203-B0B4-8E4700CE7707";
shapes = (
{
closed = 1;
nodes = (
(931,582,l),
(454,-36,l),
(1236,-36,l),
(1236,-269,l),
(57,-269,l),
(57,-118,l),
(627,599,l),
(57,1305,l),
(57,1456,l),
(1201,1456,l),
(1201,1222,l),
(457,1222,l),
(931,615,l)
);
}
);
width = 1284;
}
);
unicode = 8721;
},
{
glyphname = minus;
layers = (
{
layerId = "F74B8AD3-7B55-4203-B0B4-8E4700CE7707";
shapes = (
{
closed = 1;
nodes = (
(1010,596,l),
(147,596,l),
(147,832,l),
(1010,832,l)
);
}
);
width = 1138;
}
);
unicode = 8722;
},
{
glyphname = radical;
layers = (
{
layerId = "F74B8AD3-7B55-4203-B0B4-8E4700CE7707";
shapes = (
{
closed = 1;
nodes = (
(582,294,l),
(904,1456,l),
(1135,1456,l),
(713,0,l),
(467,0,l),
(281,523,l),
(55,523,l),
(55,759,l),
(443,759,l)
);
}
);
width = 1157;
}
);
unicode = 8730;
},
{
glyphname = infinity;
layers = (
{
layerId = "F74B8AD3-7B55-4203-B0B4-8E4700CE7707";
shapes = (
{
closed = 1;
nodes = (
(2045,530,ls),
(2045,414,o),
(1973,214,o),
(1839,65,o),
(1648,-20,o),
(1530,-20,qs),
(1444,-20,o),
(1303,32,o),
(1189,119,o),
(1102,232,o),
(1069,292,q),
(1036,232,o),
(949,119,o),
(835,32,o),
(694,-20,o),
(608,-20,qs),
(489,-20,o),
(299,65,o),
(166,214,o),
(94,414,o),
(94,530,qs),
(94,550,ls),
(94,665,o),
(166,867,o),
(299,1016,o),
(488,1102,o),
(606,1102,qs),
(692,1102,o),
(834,1051,o),
(948,967,o),
(1036,858,o),
(1069,799,q),
(1102,858,o),
(1189,967,o),
(1303,1051,o),
(1445,1102,o),
(1532,1102,qs),
(1650,1102,o),
(1839,1016,o),
(1973,867,o),
(2045,665,o),
(2045,550,qs)
);
},
{
closed = 1;
nodes = (
(1763,550,ls),
(1763,614,o),
(1731,728,o),
(1668,812,o),
(1576,861,o),
(1517,861,qs),
(1466,861,o),
(1383,824,o),
(1318,766,o),
(1269,696,o),
(1236,630,o),
(1217,575,o),
(1214,562,q),
(1214,533,l),
(1216,519,o),
(1236,462,o),
(1269,392,o),
(1319,319,o),
(1384,259,o),
(1465,220,o),
(1515,220,qs),
(1575,220,o),
(1667,267,o),
(1730,351,o),
(1763,464,o),
(1763,530,qs)
);
},
{
closed = 1;
nodes = (
(375,530,ls),
(375,464,o),
(407,351,o),
(470,267,o),
(563,220,o),
(623,220,qs),
(672,220,o),
(754,259,o),
(819,319,o),
(868,392,o),
(902,462,o),
(921,519,o),
(923,533,q),
(923,562,l),
(920,575,o),
(902,630,o),
(869,696,o),
(820,766,o),
(755,824,o),
(672,861,o),
(621,861,qs),
(562,861,o),
(470,812,o),
(407,728,o),
(375,614,o),
(375,550,qs)
);
}
);
width = 2143;
}
);
unicode = 8734;
},
{
glyphname = integral;
layers = (
{
layerId = "F74B8AD3-7B55-4203-B0B4-8E4700CE7707";
shapes = (
{
closed = 1;
nodes = (
(433,-47,l),
(433,-145,o),
(381,-291,o),
(282,-388,o),
(141,-437,o),
(53,-437,qs),
(14,-437,o),
(-53,-429,o),
(-91,-419,q),
(-75,-191,l),
(-55,-196,o),
(-16,-203,o),
(10,-203,qs),
(76,-203,o),
(143,-130,o),
(143,-47,qs),
(143,1177,ls),
(143,1270,o),
(197,1412,o),
(300,1508,o),
(448,1557,o),
(542,1557,qs),
(583,1557,o),
(660,1545,o),
(701,1536,q),
(677,1314,l),
(656,1319,o),
(612,1324,o),
(580,1324,qs),
(508,1324,o),
(433,1248,o),
(433,1177,qs)
);
}
);
width = 591;
}
);
unicode = 8747;
},
{
glyphname = approxequal;
layers = (
{
layerId = "F74B8AD3-7B55-4203-B0B4-8E4700CE7707";
shapes = (
{
closed = 1;
nodes = (
(101,914,l),
(149,964,o),
(281,1020,o),
(347,1020,q),
(387,1021,o),
(451,1010,o),
(508,990,o),
(563,963,o),
(595,947,qs),
(625,932,o),
(677,907,o),
(731,888,o),
(791,878,o),
(828,878,qs),
(894,878,o),
(1008,944,o),
(1056,1004,q),
(1056,767,l),
(1008,717,o),
(901,661,o),
(835,661,qs),
(798,661,o),
(738,671,o),
(684,690,o),
(632,715,o),
(602,730,qs),
(570,746,o),
(515,773,o),
(458,793,o),
(394,804,o),
(354,803,q),
(321,803,o),
(252,786,o),
(185,753,o),
(125,707,o),
(101,677,q)
);
},
{
closed = 1;
nodes = (
(101,494,l),
(149,544,o),
(273,600,o),
(339,600,q),
(379,601,o),
(443,590,o),
(501,570,o),
(556,543,o),
(588,527,qs),
(618,512,o),
(670,487,o),
(723,468,o),
(783,458,o),
(820,458,qs),
(886,458,o),
(1008,524,o),
(1056,584,q),
(1056,347,l),
(1008,297,o),
(894,241,o),
(828,241,qs),
(791,241,o),
(731,251,o),
(677,270,o),
(625,295,o),
(595,310,qs),
(563,326,o),
(508,353,o),
(451,373,o),
(387,384,o),
(347,383,q),
(281,383,o),
(149,317,o),
(101,257,q)
);
}
);
width = 1181;
}
);
unicode = 8776;
},
{
glyphname = notequal;
layers = (
{
layerId = "F74B8AD3-7B55-4203-B0B4-8E4700CE7707";
shapes = (
{
closed = 1;
nodes = (
(1030,313,l),
(476,313,l),
(361,98,l),
(242,160,l),
(324,313,l),
(136,313,l),
(136,549,l),
(451,549,l),
(557,746,l),
(136,746,l),
(136,982,l),
(684,982,l),
(799,1195,l),
(918,1133,l),
(836,982,l),
(1030,982,l),
(1030,746,l),
(709,746,l),
(603,549,l),
(1030,549,l)
);
}
);
width = 1172;
}
);
unicode = 8800;
},
{
glyphname = lozenge;
layers = (
{
layerId = "F74B8AD3-7B55-4203-B0B4-8E4700CE7707";
shapes = (
{
closed = 1;
nodes = (
(399,1456,l),
(646,1456,l),
(1015,727,l),
(647,0,l),
(400,0,l),
(31,727,l)
);
},
{
closed = 1;
nodes = (
(522,1152,l),
(318,727,l),
(524,303,l),
(727,727,l)
);
}
);
width = 1042;
}
);
unicode = 9674;
},
{
glyphname = quotedblx;
layers = (
{
layerId = "F74B8AD3-7B55-4203-B0B4-8E4700CE7707";
shapes = (
{
closed = 1;
nodes = (
(253,653,l),
(90,653,l),
(90,1081,l),
(253,1081,l)
);
},
{
closed = 1;
nodes = (
(567,653,l),
(404,653,l),
(404,1081,l),
(567,1081,l)
);
}
);
width = 657;
}
);
unicode = 60930;
},
{
glyphname = commaaccent;
layers = (
{
layerId = "F74B8AD3-7B55-4203-B0B4-8E4700CE7707";
shapes = (
{
closed = 1;
nodes = (
(340,203,ls),
(340,156,o),
(318,58,o),
(279,-35,o),
(226,-118,o),
(195,-149,q),
(52,-70,l),
(69,-43,o),
(97,13,o),
(117,75,o),
(128,146,o),
(128,189,qs),
(128,275,l),
(340,275,l)
);
}
);
width = 470;
}
);
unicode = 63171;
},
{
glyphname = fi;
layers = (
{
layerId = "F74B8AD3-7B55-4203-B0B4-8E4700CE7707";
shapes = (
{
closed = 1;
nodes = (
(181,0,l),
(181,870,l),
(20,870,l),
(20,1082,l),
(181,1082,l),
(181,1127,ls),
(181,1231,o),
(245,1392,o),
(367,1501,o),
(543,1557,o),
(655,1557,qs),
(740,1557,o),
(898,1524,o),
(983,1498,q),
(941,1259,l),
(914,1267,o),
(856,1283,o),
(791,1297,o),
(717,1305,o),
(673,1305,qs),
(572,1305,o),
(471,1215,o),
(471,1127,qs),
(471,1082,l),
(684,1082,l),
(684,870,l),
(471,870,l),
(471,0,l)
);
},
{
closed = 1;
nodes = (
(1118,0,l),
(828,0,l),
(828,1082,l),
(1118,1082,l)
);
}
);
width = 1246;
}
);
unicode = 64257;
},
{
color = (255, 153, 153, 255);
glyphname = uniFB8F;
layers = (
{
anchors = (
{
name = b.uni064D_3;
position = "{750, -196}";
},
{
name = t.uni0615_3;
position = "{1170, 1478}";
}
);
layerId = "F74B8AD3-7B55-4203-B0B4-8E4700CE7707";
shapes = (
{
closed = 1;
nodes = (
(1911,-30,ls),
(1772,-30,o),
(1660,13,o),
(1584,95,c),
(1463,-3,o),
(1162,-63,o),
(787,-63,cs),
(269,-63,o),
(70,78,o),
(70,445,cs),
(70,523,o),
(80,604,o),
(106,753,c),
(271,735,l),
(255,620,o),
(249,558,o),
(249,498,cs),
(249,195,o),
(576,198,o),
(797,198,cs),
(835,198,ls),
(1162,198,o),
(1493,275,o),
(1493,350,cs),
(1493,400,o),
(1312,620,o),
(1164,756,cs),
(1112,804,o),
(1050,853,o),
(969,911,c),
(1030,1140,l),
(1881,1507,l),
(1846,1237,l),
(1265,984,l),
(1419,850,o),
(1570,665,o),
(1643,519,cs),
(1674,457,o),
(1696,387,o),
(1734,329,cs),
(1793,240,o),
(1836,230,o),
(1911,230,cs),
(1969,230,l),
(1969,-30,l)
);
}
);
width = 1954;
}
);
unicode = 64399;
},
{
color = (255, 153, 153, 255);
glyphname = uniFB9F;
layers = (
{
anchors = (
{
name = b.uni064D_3;
position = "{595, -760}";
},
{
name = t.uni0615_3;
position = "{703, 1406}";
}
);
layerId = "F74B8AD3-7B55-4203-B0B4-8E4700CE7707";
shapes = (
{
closed = 1;
nodes = (
(1564,230,l),
(1564,-30,l),
(1518,-30,ls),
(1460,-30,o),
(1408,-19,o),
(1368,0,c),
(1333,-349,o),
(1102,-538,o),
(692,-538,cs),
(320,-538,o),
(99,-324,o),
(99,37,cs),
(99,158,o),
(130,307,o),
(204,522,c),
(363,458,l),
(311,292,o),
(285,178,o),
(285,90,cs),
(285,-150,o),
(431,-279,o),
(701,-279,cs),
(975,-279,o),
(1163,-145,o),
(1163,49,cs),
(1163,163,o),
(1137,303,o),
(1113,417,c),
(1108,442,o),
(1097,495,o),
(1092,517,c),
(1303,581,l),
(1352,318,ls),
(1363,261,o),
(1415,230,o),
(1507,230,cs)
);
}
);
width = 1549;
}
);
unicode = 64415;
},
{
color = (255, 153, 153, 255);
glyphname = uniFBE8;
layers = (
{
anchors = (
{
name = b.uni064D_3;
position = "{303, -183}";
},
{
name = t.uni0615_3;
position = "{311, 1393}";
}
);
layerId = "F74B8AD3-7B55-4203-B0B4-8E4700CE7707";
shapes = (
{
closed = 1;
nodes = (
(-15,230,l),
(21,230,ls),
(104,230,o),
(157,234,o),
(210,240,c),
(311,254,o),
(366,290,o),
(366,360,cs),
(366,425,o),
(340,509,o),
(318,581,cs),
(314,595,o),
(304,629,o),
(300,641,c),
(521,779,l),
(560,601,o),
(578,486,o),
(578,401,cs),
(578,102,o),
(424,-30,o),
(20,-30,cs),
(-15,-30,l)
);
}
);
width = 646;
}
);
unicode = 64488;
},
{
color = (255, 153, 153, 255);
glyphname = uniFBE9;
layers = (
{
anchors = (
{
name = b.uni064D_3;
position = "{350, -137}";
},
{
name = t.uni0615_3;
position = "{315, 1337}";
}
);
layerId = "F74B8AD3-7B55-4203-B0B4-8E4700CE7707";
shapes = (
{
closed = 1;
nodes = (
(318,553,l),
(528,644,l),
(528,378,ls),
(528,282,o),
(578,230,o),
(671,230,cs),
(732,230,l),
(732,-30,l),
(678,-30,ls),
(553,-30,o),
(475,7,o),
(423,101,c),
(350,11,o),
(245,-30,o),
(98,-30,cs),
(33,-30,l),
(-15,-30,l),
(-15,230,l),
(18,230,l),
(113,230,ls),
(256,230,o),
(313,287,o),
(317,394,c)
);
}
);
width = 717;
}
);
unicode = 64489;
},
{
color = (255, 153, 153, 255);
glyphname = uniFE73;
layers = (
{
anchors = (
{
name = b.uni064D_3;
position = "{416, -166}";
},
{
name = t.uni0615_3;
position = "{342, 1052}";
}
);
layerId = "F74B8AD3-7B55-4203-B0B4-8E4700CE7707";
shapes = (
{
closed = 1;
nodes = (
(687,230,l),
(687,-30,l),
(628,-30,ls),
(501,-30,o),
(336,21,o),
(237,107,c),
(125,209,o),
(83,358,o),
(80,531,c),
(286,531,l),
(296,318,o),
(432,230,o),
(613,230,cs)
);
}
);
width = 672;
}
);
unicode = 65139;
},
{
color = (255, 153, 153, 255);
glyphname = uniFE8E;
layers = (
{
anchors = (
{
name = b.uni064D_3;
position = "{306, -199}";
},
{
name = t.uni0615_3;
position = "{244, 1539}";
}
);
layerId = "F74B8AD3-7B55-4203-B0B4-8E4700CE7707";
shapes = (
{
closed = 1;
nodes = (
(514,-30,ls),
(236,-30,o),
(136,58,o),
(136,451,cs),
(136,581,o),
(140,712,o),
(140,842,cs),
(140,1028,o),
(137,1244,o),
(132,1351,c),
(378,1504,l),
(373,1347,o),
(366,1135,o),
(362,978,cs),
(358,821,o),
(354,664,o),
(349,507,cs),
(348,485,o),
(348,463,o),
(348,444,cs),
(348,266,o),
(383,230,o),
(520,230,cs),
(576,230,l),
(576,-30,l)
);
}
);
width = 561;
}
);
unicode = 65166;
},
{
color = (255, 153, 153, 255);
glyphname = uniFEA2;
layers = (
{
anchors = (
{
name = b.uni064D_3;
position = "{580, -770}";
},
{
name = t.uni0615_3;
position = "{649, 1302}";
}
);
layerId = "F74B8AD3-7B55-4203-B0B4-8E4700CE7707";
shapes = (
{
closed = 1;
nodes = (
(314,-377,o),
(601,-437,o),
(815,-437,cs),
(961,-437,o),
(1107,-412,o),
(1249,-381,c),
(1208,-641,l),
(1077,-673,o),
(944,-697,o),
(809,-697,cs),
(473,-697,o),
(109,-540,o),
(109,-154,cs),
(109,242,o),
(427,466,o),
(767,585,c),
(675,624,o),
(517,686,o),
(418,686,cs),
(330,686,o),
(239,597,o),
(186,534,c),
(56,642,l),
(136,779,o),
(272,937,o),
(445,937,cs),
(734,937,o),
(988,693,o),
(1313,687,c),
(1218,427,l),
(1191,427,o),
(1163,429,o),
(1136,429,cs),
(1118,429,o),
(1100,429,o),
(1080,427,c),
(1110,315,o),
(1179,230,o),
(1324,230,cs),
(1401,230,l),
(1401,-30,l),
(1326,-30,ls),
(1034,-30,o),
(928,157,o),
(898,395,c),
(625,325,o),
(314,150,o),
(314,-109,cs)
);
}
);
width = 1386;
}
);
unicode = 65186;
},
{
color = (255, 153, 153, 255);
glyphname = uniFEA3;
layers = (
{
anchors = (
{
name = b.uni064D_3;
position = "{513, -194}";
},
{
name = t.uni0615_3;
position = "{565, 1220}";
}
);
layerId = "F74B8AD3-7B55-4203-B0B4-8E4700CE7707";
shapes = (
{
closed = 1;
nodes = (
(-15,-30,l),
(-15,230,l),
(48,230,ls),
(219,230,o),
(523,318,o),
(839,459,c),
(633,547,o),
(476,597,o),
(409,597,cs),
(355,597,o),
(269,538,o),
(186,444,c),
(56,554,l),
(179,749,o),
(315,848,o),
(461,848,cs),
(556,848,o),
(667,814,o),
(861,725,cs),
(1035,645,o),
(1159,610,o),
(1313,595,c),
(1218,337,l),
(1045,332,o),
(898,256,o),
(631,126,c),
(439,29,o),
(217,-30,o),
(48,-30,cs)
);
}
);
width = 1337;
}
);
unicode = 65187;
},
{
color = (255, 153, 153, 255);
glyphname = uniFEA4;
layers = (
{
anchors = (
{
name = b.uni064D_3;
position = "{513, -194}";
},
{
name = t.uni0615_3;
position = "{565, 1220}";
}
);
layerId = "F74B8AD3-7B55-4203-B0B4-8E4700CE7707";
shapes = (
{
closed = 1;
nodes = (
(-15,-30,l),
(-15,230,l),
(48,230,ls),
(219,230,o),
(523,318,o),
(839,459,c),
(633,547,o),
(476,597,o),
(409,597,cs),
(355,597,o),
(269,538,o),
(186,444,c),
(56,554,l),
(179,749,o),
(315,848,o),
(461,848,cs),
(556,848,o),
(667,814,o),
(861,725,cs),
(1035,645,o),
(1159,610,o),
(1313,595,c),
(1218,337,l),
(1171,336,o),
(1127,329,o),
(1081,318,c),
(1125,260,o),
(1193,230,o),
(1283,230,cs),
(1366,230,l),
(1366,-30,l),
(1285,-30,ls),
(1085,-30,o),
(950,68,o),
(891,250,c),
(816,217,o),
(732,175,o),
(631,126,cs),
(439,29,o),
(217,-30,o),
(48,-30,cs)
);
}
);
width = 1351;
}
);
unicode = 65188;
},
{
color = (255, 153, 153, 255);
glyphname = uniFEAA;
layers = (
{
anchors = (
{
name = b.uni064D_3;
position = "{437, -199}";
},
{
name = t.uni0615_3;
position = "{562, 1285}";
}
);
layerId = "F74B8AD3-7B55-4203-B0B4-8E4700CE7707";
shapes = (
{
closed = 1;
nodes = (
(72,258,l),
(216,230,o),
(308,218,o),
(394,218,cs),
(548,218,o),
(695,258,o),
(695,300,cs),
(695,381,o),
(529,785,o),
(490,886,c),
(665,1038,l),
(741,840,o),
(813,640,o),
(886,441,cs),
(941,291,o),
(998,230,o),
(1083,230,cs),
(1116,230,l),
(1116,-30,l),
(1080,-30,ls),
(949,-30,o),
(864,8,o),
(806,93,c),
(721,13,o),
(566,-37,o),
(401,-37,cs),
(290,-37,o),
(180,-15,o),
(72,6,c)
);
}
);
width = 1101;
}
);
unicode = 65194;
},
{
color = (255, 153, 153, 255);
glyphname = uniFEAE;
layers = (
{
anchors = (
{
name = b.uni064D_3;
position = "{322, -607}";
},
{
name = t.uni0615_3;
position = "{507, 966}";
}
);
layerId = "F74B8AD3-7B55-4203-B0B4-8E4700CE7707";
shapes = (
{
closed = 1;
nodes = (
(-30,-279,l),
(186,-260,o),
(518,-159,o),
(518,53,cs),
(518,155,o),
(469,351,o),
(436,473,c),
(641,571,l),
(686,382,l),
(716,265,o),
(743,230,o),
(859,230,cs),
(925,230,l),
(925,-30,l),
(869,-30,ls),
(812,-30,o),
(763,-26,o),
(718,-9,c),
(658,-314,o),
(335,-513,o),
(-2,-514,c)
);
}
);
width = 910;
}
);
unicode = 65198;
},
{
color = (255, 153, 153, 255);
glyphname = uniFEB2;
layers = (
{
anchors = (
{
name = b.uni064D_3;
position = "{681, -716}";
},
{
name = t.uni0615_3;
position = "{1810, 1130}";
}
);
layerId = "F74B8AD3-7B55-4203-B0B4-8E4700CE7707";
shapes = (
{
closed = 1;
nodes = (
(1451,-30,o),
(1394,-19,o),
(1341,3,c),
(1341,-358,o),
(987,-547,o),
(664,-547,cs),
(301,-547,o),
(73,-342,o),
(73,27,cs),
(73,190,o),
(128,365,o),
(178,519,c),
(338,442,l),
(298,326,o),
(259,204,o),
(259,80,cs),
(259,-176,o),
(433,-288,o),
(672,-288,cs),
(871,-288,o),
(1137,-200,o),
(1137,40,cs),
(1137,198,o),
(1101,354,o),
(1066,507,c),
(1276,572,l),
(1282,528,o),
(1291,484,o),
(1299,440,cs),
(1322,309,o),
(1338,230,o),
(1493,230,cs),
(1593,230,o),
(1697,265,o),
(1697,383,cs),
(1697,529,l),
(1906,616,l),
(1906,540,o),
(1905,464,o),
(1905,388,cs),
(1905,273,o),
(1941,230,o),
(2058,230,cs),
(2177,230,o),
(2194,289,o),
(2194,394,cs),
(2194,550,l),
(2403,644,l),
(2405,555,o),
(2405,467,o),
(2405,378,cs),
(2405,255,o),
(2422,230,o),
(2548,230,cs),
(2604,230,l),
(2604,-30,l),
(2555,-30,ls),
(2458,-30,o),
(2365,7,o),
(2306,87,c),
(2250,10,o),
(2161,-30,o),
(2066,-30,cs),
(1960,-30,o),
(1855,1,o),
(1791,91,c),
(1720,6,o),
(1617,-30,o),
(1508,-30,cs)
);
}
);
width = 2589;
}
);
unicode = 65202;
},
{
color = (255, 153, 153, 255);
glyphname = uniFEB3;
layers = (
{
anchors = (
{
name = b.uni064D_3;
position = "{759, -196}";
},
{
name = t.uni0615_3;
position = "{859, 1123}";
}
);
layerId = "F74B8AD3-7B55-4203-B0B4-8E4700CE7707";
shapes = (
{
closed = 1;
nodes = (
(1282,229,o),
(1322,247,o),
(1322,289,cs),
(1322,340,o),
(1274,463,o),
(1199,596,c),
(1387,750,l),
(1474,560,o),
(1517,407,o),
(1517,299,cs),
(1517,95,o),
(1387,-30,o),
(1173,-30,cs),
(1078,-30,o),
(982,14,o),
(923,77,c),
(852,8,o),
(754,-30,o),
(645,-30,cs),
(538,-30,o),
(441,17,o),
(368,95,c),
(280,20,o),
(151,-30,o),
(29,-30,cs),
(-15,-30,l),
(-15,230,l),
(36,230,ls),
(186,230,o),
(267,284,o),
(267,383,cs),
(267,530,l),
(475,616,l),
(475,394,ls),
(475,282,o),
(529,230,o),
(645,230,cs),
(762,230,o),
(832,288,o),
(832,383,cs),
(832,530,l),
(1040,616,l),
(1040,394,ls),
(1040,263,o),
(1070,229,o),
(1186,229,cs)
);
}
);
width = 1599;
}
);
unicode = 65203;
},
{
color = (255, 153, 153, 255);
glyphname = uniFEB4;
layers = (
{
anchors = (
{
name = b.uni064D_3;
position = "{759, -196}";
},
{
name = t.uni0615_3;
position = "{873, 1123}";
}
);
layerId = "F74B8AD3-7B55-4203-B0B4-8E4700CE7707";
shapes = (
{
closed = 1;
nodes = (
(-15,-30,l),
(-15,230,l),
(36,230,ls),
(186,230,o),
(267,284,o),
(267,383,cs),
(267,531,l),
(475,616,l),
(475,394,ls),
(475,282,o),
(529,230,o),
(645,230,cs),
(763,230,o),
(832,287,o),
(832,383,cs),
(832,531,l),
(1040,616,l),
(1040,394,ls),
(1040,265,o),
(1071,230,o),
(1188,230,cs),
(1289,230,o),
(1307,255,o),
(1307,394,cs),
(1307,547,l),
(1514,640,l),
(1514,398,ls),
(1514,255,o),
(1535,230,o),
(1657,230,cs),
(1703,230,l),
(1703,-30,l),
(1668,-30,ls),
(1569,-30,o),
(1479,9,o),
(1420,71,c),
(1362,9,o),
(1269,-30,o),
(1173,-30,cs),
(1076,-30,o),
(981,13,o),
(922,77,c),
(852,9,o),
(754,-30,o),
(645,-30,cs),
(535,-30,o),
(440,12,o),
(368,93,c),
(280,18,o),
(154,-30,o),
(29,-30,cs)
);
}
);
width = 1688;
}
);
unicode = 65204;
},
{
color = (255, 153, 153, 255);
glyphname = uniFEBA;
layers = (
{
anchors = (
{
name = b.uni064D_3;
position = "{681, -716}";
},
{
name = t.uni0615_3;
position = "{2058, 1253}";
}
);
layerId = "F74B8AD3-7B55-4203-B0B4-8E4700CE7707";
shapes = (
{
closed = 1;
nodes = (
(1861,577,o),
(1694,384,o),
(1564,209,c),
(1597,208,o),
(1628,208,o),
(1667,208,cs),
(1838,208,ls),
(1980,208,o),
(2310,211,o),
(2310,381,cs),
(2310,496,o),
(2181,577,o),
(2072,577,cs)
);
},
{
closed = 1;
nodes = (
(2651,-30,l),
(2603,-30,ls),
(2491,-30,o),
(2415,-17,o),
(2329,54,c),
(2131,-54,o),
(1921,-54,o),
(1706,-54,cs),
(1695,-54,ls),
(1566,-54,o),
(1452,-52,o),
(1331,-6,c),
(1275,-359,o),
(1022,-557,o),
(651,-557,cs),
(297,-557,o),
(73,-343,o),
(73,14,cs),
(73,158,o),
(126,342,o),
(178,509,c),
(336,430,l),
(295,304,o),
(259,178,o),
(259,71,cs),
(259,-176,o),
(433,-298,o),
(670,-298,cs),
(922,-298,o),
(1137,-165,o),
(1137,99,cs),
(1137,215,o),
(1102,358,o),
(1065,499,c),
(1269,563,l),
(1322,359,ls),
(1332,319,o),
(1356,268,o),
(1376,247,c),
(1539,516,o),
(1744,829,o),
(2105,829,cs),
(2340,829,o),
(2521,626,o),
(2521,401,cs),
(2521,348,o),
(2507,288,o),
(2490,237,c),
(2522,230,o),
(2555,230,o),
(2590,230,cs),
(2651,230,l)
);
}
);
width = 2636;
}
);
unicode = 65210;
},
{
color = (255, 153, 153, 255);
glyphname = uniFEBB;
layers = (
{
anchors = (
{
name = b.uni064D_3;
position = "{699, -200}";
},
{
name = t.uni0615_3;
position = "{1118, 1242}";
}
);
layerId = "F74B8AD3-7B55-4203-B0B4-8E4700CE7707";
shapes = (
{
closed = 1;
nodes = (
(1428,829,o),
(1623,645,o),
(1623,410,cs),
(1623,-48,o),
(1148,-60,o),
(840,-60,cs),
(790,-60,ls),
(494,-60,o),
(388,-36,o),
(299,57,c),
(239,0,o),
(147,-30,o),
(29,-30,cs),
(-15,-30,l),
(-15,230,l),
(36,230,ls),
(166,230,o),
(189,250,o),
(189,361,cs),
(189,531,l),
(397,616,l),
(397,345,ls),
(397,289,o),
(420,253,o),
(459,230,c),
(716,654,o),
(933,829,o),
(1181,829,cs)
);
},
{
closed = 1;
nodes = (
(996,577,o),
(821,439,o),
(655,198,c),
(769,198,l),
(940,198,ls),
(1269,198,o),
(1412,243,o),
(1412,348,cs),
(1412,465,o),
(1281,577,o),
(1144,577,cs)
);
}
);
width = 1690;
}
);
unicode = 65211;
},
{
color = (255, 153, 153, 255);
glyphname = uniFEBC;
layers = (
{
anchors = (
{
name = b.uni064D_3;
position = "{699, -200}";
},
{
name = t.uni0615_3;
position = "{1148, 1242}";
}
);
layerId = "F74B8AD3-7B55-4203-B0B4-8E4700CE7707";
shapes = (
{
closed = 1;
nodes = (
(997,577,o),
(820,442,o),
(654,200,c),
(692,198,o),
(731,198,o),
(769,198,cs),
(940,198,ls),
(1268,198,o),
(1412,243,o),
(1412,348,cs),
(1412,463,o),
(1283,577,o),
(1145,577,cs)
);
},
{
closed = 1;
nodes = (
(1428,829,o),
(1623,645,o),
(1623,410,cs),
(1623,357,o),
(1614,304,o),
(1592,235,c),
(1620,230,o),
(1652,230,o),
(1685,230,cs),
(1734,230,l),
(1734,-30,l),
(1685,-30,ls),
(1583,-30,o),
(1521,-24,o),
(1431,52,c),
(1294,-31,o),
(1137,-60,o),
(765,-60,cs),
(496,-60,o),
(389,-34,o),
(299,57,c),
(239,1,o),
(147,-30,o),
(29,-30,cs),
(-15,-30,l),
(-15,230,l),
(36,230,ls),
(166,230,o),
(189,250,o),
(189,361,cs),
(189,531,l),
(397,616,l),
(397,342,ls),
(397,289,o),
(423,251,o),
(458,229,c),
(716,654,o),
(933,829,o),
(1181,829,cs)
);
}
);
width = 1719;
}
);
unicode = 65212;
},
{
color = (255, 153, 153, 255);
glyphname = uniFEC2;
layers = (
{
anchors = (
{
name = b.uni064D_3;
position = "{641, -196}";
},
{
name = t.uni0615_3;
position = "{475, 1534}";
}
);
layerId = "F74B8AD3-7B55-4203-B0B4-8E4700CE7707";
shapes = (
{
closed = 1;
nodes = (
(66,259,l),
(130,252,o),
(195,246,o),
(259,240,c),
(298,306,o),
(341,368,o),
(381,420,c),
(357,1343,l),
(596,1507,l),
(596,657,l),
(726,766,o),
(863,829,o),
(989,829,cs),
(1223,829,o),
(1424,627,o),
(1424,392,cs),
(1424,340,o),
(1415,289,o),
(1393,238,c),
(1424,232,o),
(1454,230,o),
(1488,230,cs),
(1541,230,l),
(1541,-30,l),
(1497,-30,ls),
(1387,-30,o),
(1310,-10,o),
(1229,55,c),
(1099,-3,o),
(906,-33,o),
(642,-33,cs),
(498,-33,o),
(313,-23,o),
(94,3,c)
);
},
{
closed = 1;
nodes = (
(817,577,o),
(644,456,o),
(465,229,c),
(522,228,o),
(589,226,o),
(654,226,cs),
(688,226,o),
(721,226,o),
(752,227,cs),
(1045,236,o),
(1211,292,o),
(1211,397,cs),
(1211,496,o),
(1100,577,o),
(965,577,cs)
);
}
);
width = 1526;
}
);
unicode = 65218;
},
{
color = (255, 153, 153, 255);
glyphname = uniFEC3;
layers = (
{
anchors = (
{
name = b.uni064D_3;
position = "{501, -196}";
},
{
name = t.uni0615_3;
position = "{312, 1543}";
}
);
layerId = "F74B8AD3-7B55-4203-B0B4-8E4700CE7707";
shapes = (
{
closed = 1;
nodes = (
(87,230,l),
(131,300,o),
(174,364,o),
(218,422,c),
(193,1343,l),
(432,1507,l),
(432,658,l),
(561,771,o),
(690,829,o),
(818,829,cs),
(1052,829,o),
(1264,617,o),
(1264,381,cs),
(1264,106,o),
(1020,-30,o),
(531,-30,cs),
(-15,-30,l),
(-15,230,l)
);
},
{
closed = 1;
nodes = (
(646,577,o),
(484,461,o),
(302,230,c),
(586,230,ls),
(884,230,o),
(1045,289,o),
(1045,399,cs),
(1045,497,o),
(931,577,o),
(792,577,cs)
);
}
);
width = 1330;
}
);
unicode = 65219;
},
{
color = (255, 153, 153, 255);
glyphname = uniFEC4;
layers = (
{
anchors = (
{
name = b.uni064D_3;
position = "{501, -196}";
},
{
name = t.uni0615_3;
position = "{309, 1531}";
}
);
layerId = "F74B8AD3-7B55-4203-B0B4-8E4700CE7707";
shapes = (
{
closed = 1;
nodes = (
(87,230,l),
(125,291,o),
(169,358,o),
(218,425,c),
(193,1343,l),
(432,1507,l),
(432,662,l),
(545,760,o),
(674,829,o),
(818,829,cs),
(1053,829,o),
(1264,616,o),
(1264,381,cs),
(1264,331,o),
(1254,282,o),
(1234,236,c),
(1268,230,o),
(1299,230,o),
(1323,230,cs),
(1369,230,l),
(1369,-30,l),
(1323,-30,ls),
(1216,-30,o),
(1146,-12,o),
(1065,55,c),
(892,-31,o),
(710,-30,o),
(531,-30,cs),
(-15,-30,l),
(-15,230,l)
);
},
{
closed = 1;
nodes = (
(601,577,o),
(428,395,o),
(302,230,c),
(586,230,ls),
(725,230,o),
(1045,233,o),
(1045,399,cs),
(1045,517,o),
(906,577,o),
(792,577,cs)
);
}
);
width = 1354;
}
);
unicode = 65220;
},
{
color = (255, 153, 153, 255);
glyphname = uniFECA;
layers = (
{
anchors = (
{
name = b.uni064D_3;
position = "{616, -850}";
},
{
name = t.uni0615_3;
position = "{580, 1266}";
}
);
layerId = "F74B8AD3-7B55-4203-B0B4-8E4700CE7707";
shapes = (
{
closed = 1;
nodes = (
(86,543,l),
(132,785,l),
(292,856,o),
(515,900,o),
(673,900,cs),
(821,900,o),
(1055,846,o),
(1055,642,cs),
(1055,470,o),
(902,390,o),
(791,291,c),
(878,238,o),
(974,230,o),
(1077,230,cs),
(1205,230,l),
(1205,-30,l),
(1046,-30,ls),
(868,-30,o),
(706,46,o),
(576,160,c),
(457,76,o),
(344,-57,o),
(344,-201,cs),
(344,-414,o),
(633,-472,o),
(810,-472,cs),
(911,-472,o),
(1057,-452,o),
(1212,-424,c),
(1088,-701,l),
(968,-726,o),
(856,-740,o),
(748,-740,cs),
(445,-740,o),
(122,-601,o),
(122,-246,cs),
(122,-31,o),
(251,166,o),
(408,301,c)
);
},
{
closed = 1;
nodes = (
(602,425,l),
(680,476,o),
(838,591,o),
(838,637,cs),
(838,651,o),
(727,654,o),
(701,654,cs),
(609,654,o),
(475,631,o),
(366,603,c)
);
}
);
width = 1187;
}
);
unicode = 65226;
},
{
color = (255, 153, 153, 255);
glyphname = uniFECB;
layers = (
{
anchors = (
{
name = b.uni064D_3;
position = "{484, -195}";
},
{
name = t.uni0615_3;
position = "{550, 1229}";
}
);
layerId = "F74B8AD3-7B55-4203-B0B4-8E4700CE7707";
shapes = (
{
closed = 1;
nodes = (
(-15,230,l),
(73,230,ls),
(162,230,o),
(231,232,o),
(294,239,c),
(245,344,o),
(220,434,o),
(220,517,cs),
(220,728,o),
(377,894,o),
(582,894,cs),
(696,894,o),
(844,825,o),
(976,712,c),
(912,574,l),
(762,619,o),
(664,642,o),
(595,642,cs),
(487,642,o),
(421,596,o),
(416,531,c),
(420,452,o),
(478,347,o),
(570,278,c),
(987,355,l),
(928,92,l),
(650,25,o),
(257,-30,o),
(110,-30,cs),
(-15,-30,l)
);
}
);
width = 1068;
}
);
unicode = 65227;
},
{
color = (255, 153, 153, 255);
glyphname = uniFECC;
layers = (
{
anchors = (
{
name = b.uni064D_3;
position = "{584, -195}";
},
{
name = t.uni0615_3;
position = "{611, 1200}";
}
);
layerId = "F74B8AD3-7B55-4203-B0B4-8E4700CE7707";
shapes = (
{
closed = 1;
nodes = (
(86,543,l),
(131,754,l),
(295,824,o),
(516,870,o),
(661,870,cs),
(896,870,o),
(1055,765,o),
(1055,611,cs),
(1055,469,o),
(914,366,o),
(799,290,c),
(866,249,o),
(939,230,o),
(1046,230,cs),
(1164,230,l),
(1164,-30,l),
(1046,-30,ls),
(891,-30,o),
(719,37,o),
(576,155,c),
(384,33,o),
(249,-30,o),
(42,-30,cs),
(-15,-30,l),
(-15,230,l),
(43,230,ls),
(168,230,o),
(275,242,o),
(401,305,c)
);
},
{
closed = 1;
nodes = (
(609,423,l),
(733,499,o),
(838,585,o),
(838,609,cs),
(838,617,o),
(761,624,o),
(660,624,cs),
(583,624,o),
(486,613,o),
(382,590,c)
);
}
);
width = 1151;
}
);
unicode = 65228;
},
{
color = (255, 153, 153, 255);
glyphname = uniFEDA;
layers = (
{
anchors = (
{
name = b.uni064D_3;
position = "{750, -196}";
},
{
name = t.uni0615_3;
position = "{978, 1522}";
}
);
layerId = "F74B8AD3-7B55-4203-B0B4-8E4700CE7707";
shapes = (
{
closed = 1;
nodes = (
(78,538,o),
(96,641,o),
(115,743,c),
(287,726,l),
(271,651,o),
(257,574,o),
(257,497,cs),
(257,198,o),
(549,196,o),
(772,196,cs),
(1257,196,ls),
(1399,196,o),
(1621,199,o),
(1621,394,cs),
(1621,1396,l),
(1840,1484,l),
(1840,454,ls),
(1840,394,o),
(1840,454,o),
(1840,394,cs),
(1840,293,o),
(1894,230,o),
(1983,230,cs),
(2087,230,l),
(2087,-30,l),
(1983,-30,ls),
(1884,-30,o),
(1787,7,o),
(1716,83,c),
(1589,-43,o),
(1375,-65,o),
(1137,-65,cs),
(1106,-65,o),
(1076,-65,o),
(1045,-65,cs),
(860,-64,ls),
(829,-64,o),
(799,-64,o),
(768,-64,cs),
(421,-64,o),
(78,15,o),
(78,434,cs)
);
},
{
closed = 1;
nodes = (
(684,867,l),
(778,867,o),
(933,889,o),
(995,911,c),
(903,952,o),
(782,990,o),
(782,1112,cs),
(782,1212,o),
(978,1342,o),
(1168,1368,c),
(1123,1169,l),
(1059,1161,o),
(992,1139,o),
(963,1118,c),
(1056,1086,o),
(1181,1051,o),
(1181,930,cs),
(1181,842,o),
(1068,745,o),
(913,703,cs),
(855,687,o),
(797,679,o),
(741,678,c)
);
}
);
width = 2071;
}
);
unicode = 65242;
},
{
color = (255, 153, 153, 255);
glyphname = uniFEDB;
layers = (
{
anchors = (
{
name = b.uni064D_3;
position = "{310, -191}";
},
{
name = t.uni0615_3;
position = "{301, 1495}";
}
);
layerId = "F74B8AD3-7B55-4203-B0B4-8E4700CE7707";
shapes = (
{
closed = 1;
nodes = (
(-15,-30,l),
(-15,230,l),
(181,230,ls),
(417,230,o),
(549,264,o),
(549,325,cs),
(549,458,o),
(352,677,o),
(24,910,c),
(86,1140,l),
(937,1507,l),
(902,1237,l),
(321,984,l),
(568,770,o),
(740,512,o),
(740,355,cs),
(740,91,o),
(564,-30,o),
(181,-30,cs)
);
}
);
width = 950;
}
);
unicode = 65243;
},
{
color = (255, 153, 153, 255);
glyphname = uniFEDC;
layers = (
{
anchors = (
{
name = b.uni064D_3;
position = "{310, -191}";
},
{
name = t.uni0615_3;
position = "{254, 1482}";
}
);
layerId = "F74B8AD3-7B55-4203-B0B4-8E4700CE7707";
shapes = (
{
closed = 1;
nodes = (
(-15,230,l),
(68,230,ls),
(238,230,o),
(566,239,o),
(566,350,cs),
(566,506,o),
(169,821,o),
(42,911,c),
(103,1140,l),
(954,1507,l),
(919,1237,l),
(337,984,l),
(475,861,o),
(633,684,o),
(716,518,cs),
(747,456,o),
(767,387,o),
(805,329,cs),
(864,242,o),
(909,230,o),
(987,230,c),
(1042,230,l),
(1042,-30,l),
(984,-30,ls),
(863,-30,o),
(744,4,o),
(657,93,c),
(514,-31,o),
(248,-30,o),
(68,-30,cs),
(-15,-30,l)
);
}
);
width = 1027;
}
);
unicode = 65244;
},
{
color = (255, 153, 153, 255);
glyphname = uniFEDE;
layers = (
{
anchors = (
{
name = b.uni064D_3;
position = "{681, -716}";
},
{
name = t.uni0615_3;
position = "{593, 1241}";
}
);
layerId = "F74B8AD3-7B55-4203-B0B4-8E4700CE7707";
shapes = (
{
closed = 1;
nodes = (
(283,-545,o),
(75,-353,o),
(75,28,cs),
(75,135,o),
(103,282,o),
(166,520,c),
(325,452,l),
(278,275,o),
(254,160,o),
(254,83,cs),
(254,-205,o),
(447,-285,o),
(720,-285,cs),
(1016,-285,o),
(1094,-171,o),
(1094,-15,c),
(1095,1387,l),
(1305,1488,l),
(1305,378,ls),
(1305,282,o),
(1355,230,o),
(1448,230,cs),
(1541,230,l),
(1541,-30,l),
(1455,-30,ls),
(1400,-30,o),
(1348,-19,o),
(1302,4,c),
(1283,-346,o),
(1157,-545,o),
(701,-545,cs)
);
}
);
width = 1526;
}
);
unicode = 65246;
},
{
color = (255, 153, 153, 255);
glyphname = uniFEDF;
layers = (
{
anchors = (
{
name = b.uni064D_3;
position = "{279, -196}";
},
{
name = t.uni0615_3;
position = "{385, 1538}";
}
);
layerId = "F74B8AD3-7B55-4203-B0B4-8E4700CE7707";
shapes = (
{
closed = 1;
nodes = (
(288,1387,l),
(498,1488,l),
(498,378,ls),
(498,116,o),
(344,-30,o),
(68,-30,cs),
(-15,-30,l),
(-15,230,l),
(83,230,ls),
(229,230,o),
(287,276,o),
(287,394,c)
);
}
);
width = 635;
}
);
unicode = 65247;
},
{
color = (255, 153, 153, 255);
glyphname = uniFEE0;
layers = (
{
anchors = (
{
name = b.uni064D_3;
position = "{279, -196}";
},
{
name = t.uni0615_3;
position = "{392, 1538}";
}
);
layerId = "F74B8AD3-7B55-4203-B0B4-8E4700CE7707";
shapes = (
{
closed = 1;
nodes = (
(298,1387,l),
(508,1488,l),
(508,378,ls),
(508,282,o),
(558,230,o),
(651,230,cs),
(733,230,l),
(733,-30,l),
(658,-30,ls),
(554,-30,o),
(463,8,o),
(405,97,c),
(322,7,o),
(203,-30,o),
(78,-30,cs),
(-15,-30,l),
(-15,230,l),
(93,230,ls),
(242,230,o),
(297,279,o),
(297,394,c)
);
}
);
width = 718;
}
);
unicode = 65248;
},
{
color = (255, 153, 153, 255);
glyphname = uniFEE2;
layers = (
{
anchors = (
{
name = b.uni064D_3;
position = "{724, -296}";
},
{
name = t.uni0615_3;
position = "{769, 1182}";
}
);
layerId = "F74B8AD3-7B55-4203-B0B4-8E4700CE7707";
shapes = (
{
closed = 1;
nodes = (
(931,236,o),
(938,244,o),
(938,259,cs),
(938,361,o),
(852,485,o),
(781,485,cs),
(741,485,o),
(690,437,o),
(638,353,c),
(771,273,o),
(857,236,o),
(918,236,cs)
);
},
{
closed = 1;
nodes = (
(1013,735,o),
(1097,517,o),
(1152,379,c),
(1195,265,o),
(1210,230,o),
(1266,230,cs),
(1321,230,l),
(1321,-30,l),
(1266,-30,ls),
(1178,-30,o),
(1110,-7,o),
(1049,46,c),
(1007,3,o),
(950,-24,o),
(888,-24,cs),
(789,-24,o),
(627,46,o),
(452,170,c),
(345,164,o),
(295,100,o),
(287,6,c),
(279,-675,l),
(69,-776,l),
(69,-4,ls),
(69,215,o),
(195,360,o),
(403,392,c),
(486,527,o),
(634,735,o),
(819,735,cs)
);
}
);
width = 1306;
}
);
unicode = 65250;
},
{
color = (255, 153, 153, 255);
glyphname = uniFEE3;
layers = (
{
anchors = (
{
name = b.uni064D_3;
position = "{504, -195}";
},
{
name = t.uni0615_3;
position = "{573, 1132}";
}
);
layerId = "F74B8AD3-7B55-4203-B0B4-8E4700CE7707";
shapes = (
{
closed = 1;
nodes = (
(-15,230,l),
(17,230,ls),
(87,230,o),
(177,291,o),
(241,368,c),
(349,504,o),
(479,729,o),
(669,729,cs),
(838,729,o),
(994,548,o),
(994,311,cs),
(994,111,o),
(883,-30,o),
(738,-30,cs),
(643,-30,o),
(476,39,o),
(320,145,c),
(212,22,o),
(121,-30,o),
(17,-30,cs),
(-15,-30,l)
);
},
{
closed = 1;
nodes = (
(778,230,o),
(785,238,o),
(785,253,cs),
(785,354,o),
(699,479,o),
(628,479,cs),
(588,479,o),
(537,431,o),
(484,347,c),
(619,266,o),
(706,230,o),
(765,230,cs)
);
}
);
width = 1050;
}
);
unicode = 65251;
},
{
color = (255, 153, 153, 255);
glyphname = uniFEE4;
layers = (
{
anchors = (
{
name = b.uni064D_3;
position = "{524, -195}";
},
{
name = t.uni0615_3;
position = "{569, 1189}";
}
);
layerId = "F74B8AD3-7B55-4203-B0B4-8E4700CE7707";
shapes = (
{
closed = 1;
nodes = (
(1117,230,l),
(1117,-30,l),
(1075,-30,ls),
(986,-30,o),
(919,-7,o),
(858,45,c),
(817,3,o),
(760,-25,o),
(697,-25,cs),
(582,-25,o),
(405,74,o),
(296,144,c),
(231,58,o),
(140,-30,o),
(22,-30,cs),
(-15,-30,l),
(-15,230,l),
(22,230,ls),
(99,230,o),
(178,337,o),
(234,416,cs),
(320,538,o),
(464,734,o),
(628,734,cs),
(819,734,o),
(918,492,o),
(972,345,c),
(993,290,o),
(1018,230,o),
(1075,230,cs)
);
},
{
closed = 1;
nodes = (
(740,235,o),
(747,243,o),
(747,258,cs),
(747,337,o),
(676,484,o),
(590,484,cs),
(538,484,o),
(482,410,o),
(447,352,c),
(529,301,o),
(648,235,o),
(727,235,cs)
);
}
);
width = 1102;
}
);
unicode = 65252;
},
{
color = (255, 153, 153, 255);
glyphname = uniFEEA;
layers = (
{
anchors = (
{
name = b.uni064D_3;
position = "{484, -194}";
},
{
name = t.uni0615_3;
position = "{687, 1264}";
}
);
layerId = "F74B8AD3-7B55-4203-B0B4-8E4700CE7707";
shapes = (
{
closed = 1;
nodes = (
(624,67,l),
(589,64,o),
(552,62,o),
(515,62,cs),
(260,62,o),
(97,159,o),
(97,314,cs),
(97,468,o),
(294,669,o),
(579,806,c),
(570,901,l),
(787,1000,l),
(800,797,o),
(822,538,o),
(850,344,cs),
(866,235,o),
(946,230,o),
(1031,230,cs),
(1078,230,l),
(1078,-30,l),
(1031,-30,ls),
(863,-30,o),
(763,21,o),
(696,122,c)
);
},
{
closed = 1;
nodes = (
(661,305,l),
(645,392,o),
(627,479,o),
(612,567,c),
(526,535,o),
(429,496,o),
(361,440,c),
(316,406,o),
(286,370,o),
(286,358,cs),
(286,334,o),
(411,305,o),
(572,305,cs)
);
}
);
width = 1063;
}
);
unicode = 65258;
},
{
color = (255, 153, 153, 255);
glyphname = uniFEEB;
layers = (
{
anchors = (
{
name = b.uni064D_3;
position = "{530, -197}";
},
{
name = t.uni0615_3;
position = "{625, 1352}";
}
);
layerId = "F74B8AD3-7B55-4203-B0B4-8E4700CE7707";
shapes = (
{
closed = 1;
nodes = (
(-15,230,l),
(266,230,l),
(223,299,o),
(203,368,o),
(203,447,cs),
(203,554,o),
(247,664,o),
(332,770,c),
(269,799,l),
(370,1027,l),
(973,798,o),
(1324,506,o),
(1324,234,cs),
(1324,48,o),
(1182,-79,o),
(974,-79,cs),
(879,-79,o),
(739,-46,o),
(531,24,c),
(416,-12,o),
(295,-30,o),
(172,-30,cs),
(-15,-30,l)
);
},
{
closed = 1;
nodes = (
(366,395,o),
(439,326,o),
(582,268,c),
(679,305,o),
(733,373,o),
(733,457,cs),
(733,560,o),
(645,668,o),
(552,679,c),
(546,679,ls),
(456,679,o),
(366,576,o),
(366,473,cs)
);
},
{
closed = 1;
nodes = (
(1096,150,o),
(1154,187,o),
(1154,235,cs),
(1154,307,o),
(1065,409,o),
(896,529,c),
(900,503,o),
(902,483,o),
(902,463,c),
(901,373,o),
(865,286,o),
(793,196,c),
(892,166,o),
(969,150,o),
(1020,150,cs)
);
}
);
width = 1395;
}
);
unicode = 65259;
},
{
color = (255, 153, 153, 255);
glyphname = uniFEEC;
layers = (
{
anchors = (
{
name = b.uni064D_3;
position = "{587, -697}";
},
{
name = t.uni0615_3;
position = "{512, 1247}";
}
);
layerId = "F74B8AD3-7B55-4203-B0B4-8E4700CE7707";
shapes = (
{
closed = 1;
nodes = (
(-5,230,l),
(190,230,l),
(196,306,o),
(201,358,o),
(210,403,c),
(272,667,o),
(430,885,o),
(567,885,cs),
(716,885,o),
(857,678,o),
(863,463,c),
(863,459,ls),
(863,248,o),
(618,-27,o),
(428,-30,c),
(465,-108,o),
(518,-182,o),
(574,-235,c),
(597,-18,o),
(777,230,o),
(948,230,c),
(998,230,l),
(998,-30,l),
(948,-30,ls),
(828,-30,o),
(767,-122,o),
(767,-301,cs),
(767,-334,o),
(769,-387,o),
(771,-432,c),
(645,-597,l),
(428,-423,o),
(274,-216,o),
(217,-30,c),
(-5,-30,l)
);
},
{
closed = 1;
nodes = (
(656,550,o),
(610,642,o),
(564,642,cs),
(510,642,o),
(439,521,o),
(403,370,cs),
(394,332,o),
(389,291,o),
(383,230,c),
(544,230,o),
(656,326,o),
(656,459,cs)
);
}
);
width = 992;
}
);
unicode = 65260;
},
{
color = (255, 153, 153, 255);
glyphname = uniFEEE;
layers = (
{
anchors = (
{
name = b.uni064D_3;
position = "{392, -607}";
},
{
name = t.uni0615_3;
position = "{453, 1152}";
}
);
layerId = "F74B8AD3-7B55-4203-B0B4-8E4700CE7707";
shapes = (
{
closed = 1;
nodes = (
(38,-310,l),
(336,-260,o),
(552,-156,o),
(609,-30,c),
(531,-30,ls),
(222,-30,o),
(87,71,o),
(87,302,cs),
(87,537,o),
(252,758,o),
(428,758,cs),
(621,758,o),
(791,525,o),
(824,230,c),
(907,230,l),
(907,-30,l),
(816,-30,l),
(756,-311,o),
(514,-478,o),
(85,-521,c)
);
},
{
closed = 1;
nodes = (
(287,269,o),
(354,230,o),
(487,230,cs),
(611,230,l),
(576,398,o),
(492,504,o),
(400,504,cs),
(340,504,o),
(287,429,o),
(287,344,cs)
);
}
);
width = 893;
}
);
unicode = 65262;
},
{
color = (255, 153, 153, 255);
glyphname = uniFEF0;
layers = (
{
anchors = (
{
name = b.uni064D_3;
position = "{681, -716}";
},
{
name = t.uni0615_3;
position = "{779, 811}";
}
);
layerId = "F74B8AD3-7B55-4203-B0B4-8E4700CE7707";
shapes = (
{
closed = 1;
nodes = (
(77,137,o),
(108,288,o),
(184,511,c),
(342,449,l),
(290,277,o),
(264,164,o),
(264,78,cs),
(264,-164,o),
(432,-289,o),
(745,-289,cs),
(959,-289,o),
(1133,-236,o),
(1197,-154,c),
(1214,-133,o),
(1224,-108,o),
(1224,-98,cs),
(1224,-67,o),
(1086,-39,o),
(890,-30,c),
(852,230,l),
(1538,230,l),
(1538,-30,l),
(1400,-30,l),
(1411,-58,o),
(1416,-88,o),
(1416,-122,cs),
(1416,-302,o),
(1248,-457,o),
(1002,-520,c),
(923,-539,o),
(827,-550,o),
(726,-550,cs),
(314,-550,o),
(77,-342,o),
(77,19,cs)
);
}
);
width = 1523;
}
);
unicode = 65264;
},
{
color = (255, 153, 153, 255);
glyphname = uniFEFB;
layers = (
{
anchors = (
{
name = b.uni064D_2_ligComponent_1;
position = "{925, -198}";
},
{
name = b.uni064D_2_ligComponent_2;
position = "{288, -202}";
},
{
name = t.uni0615_2_ligComponent_1;
position = "{975, 1535}";
},
{
name = t.uni0615_2_ligComponent_2;
position = "{219, 1484}";
}
);
layerId = "F74B8AD3-7B55-4203-B0B4-8E4700CE7707";
shapes = (
{
closed = 1;
nodes = (
(98,230,l),
(429,230,l),
(376,613,o),
(292,929,o),
(172,1215,c),
(345,1410,l),
(483,990,o),
(570,593,o),
(595,230,c),
(828,235,o),
(877,294,o),
(877,531,cs),
(877,801,o),
(861,1080,o),
(843,1349,c),
(1070,1504,l),
(1070,1369,o),
(1072,1120,o),
(1074,984,cs),
(1076,827,o),
(1078,669,o),
(1078,511,cs),
(1078,160,o),
(944,16,o),
(613,-18,c),
(524,-26,o),
(427,-30,o),
(291,-30,c)
);
}
);
width = 1219;
}
);
unicode = 65275;
},
{
color = (255, 153, 153, 255);
glyphname = uniFEFC;
layers = (
{
anchors = (
{
name = b.uni064D_2_ligComponent_1;
position = "{925, -198}";
},
{
name = b.uni064D_2_ligComponent_2;
position = "{288, -202}";
},
{
name = t.uni0615_2_ligComponent_1;
position = "{984, 1535}";
},
{
name = t.uni0615_2_ligComponent_2;
position = "{221, 1478}";
}
);
layerId = "F74B8AD3-7B55-4203-B0B4-8E4700CE7707";
shapes = (
{
closed = 1;
nodes = (
(98,230,l),
(429,230,l),
(376,608,o),
(292,932,o),
(172,1215,c),
(345,1410,l),
(485,983,o),
(570,596,o),
(604,230,c),
(813,237,o),
(877,308,o),
(877,535,cs),
(877,655,o),
(871,775,o),
(865,895,cs),
(862,972,o),
(859,1050,o),
(855,1127,cs),
(850,1225,o),
(848,1290,o),
(845,1349,c),
(1070,1504,l),
(1070,1433,o),
(1071,1339,o),
(1071,1265,cs),
(1072,1113,o),
(1072,962,o),
(1073,838,cs),
(1073,731,o),
(1078,625,o),
(1078,518,cs),
(1078,317,o),
(1128,230,o),
(1243,230,cs),
(1308,230,l),
(1308,-30,l),
(1243,-30,ls),
(1123,-30,o),
(1020,34,o),
(963,143,c),
(872,22,o),
(699,-30,o),
(391,-30,cs),
(291,-30,l)
);
}
);
width = 1293;
}
);
unicode = 65276;
},
{
glyphname = uniFFFC;
layers = (
{
layerId = "F74B8AD3-7B55-4203-B0B4-8E4700CE7707";
shapes = (
{
closed = 1;
nodes = (
(821,468,ls),
(821,419,o),
(788,339,o),
(727,281,o),
(643,249,o),
(592,249,qs),
(540,249,o),
(455,281,o),
(394,339,o),
(360,419,o),
(360,468,qs),
(360,580,ls),
(360,628,o),
(394,709,o),
(454,767,o),
(539,799,o),
(590,799,qs),
(641,799,o),
(726,767,o),
(787,709,o),
(821,628,o),
(821,580,qs)
);
},
{
closed = 1;
nodes = (
(888,252,l),
(888,801,l),
(1076,801,ls),
(1174,801,o),
(1288,728,o),
(1288,651,qs),
(1288,613,o),
(1246,551,o),
(1204,535,q),
(1254,522,o),
(1306,452,o),
(1306,407,qs),
(1306,330,o),
(1201,252,o),
(1109,252,qs)
);
},
{
closed = 1;
nodes = (
(729,580,ls),
(729,649,o),
(655,727,o),
(590,727,qs),
(526,727,o),
(452,649,o),
(452,580,qs),
(452,468,ls),
(452,399,o),
(526,321,o),
(592,321,qs),
(656,321,o),
(729,399,o),
(729,468,qs)
);
},
{
closed = 1;
nodes = (
(1683,803,l),
(1775,803,l),
(1775,425,ls),
(1775,385,o),
(1747,322,o),
(1697,278,o),
(1628,254,o),
(1588,254,qs),
(1500,254,o),
(1391,335,o),
(1391,418,q),
(1484,418,l),
(1484,371,o),
(1540,327,o),
(1588,327,qs),
(1629,327,o),
(1683,381,o),
(1683,425,qs)
);
},
{
closed = 1;
nodes = (
(87,-398,l),
(87,-83,l),
(200,-83,l),
(200,-285,l),
(396,-285,l),
(396,-398,l)
);
},
{
closed = 1;
nodes = (
(1716,-398,l),
(1716,-285,l),
(1915,-285,l),
(1915,-83,l),
(2026,-83,l),
(2026,-398,l)
);
},
{
closed = 1;
nodes = (
(87,1169,l),
(87,1454,l),
(396,1454,l),
(396,1338,l),
(200,1338,l),
(200,1169,l)
);
},
{
closed = 1;
nodes = (
(1716,1338,l),
(1716,1454,l),
(2026,1454,l),
(2026,1169,l),
(1915,1169,l),
(1915,1338,l)
);
},
{
closed = 1;
nodes = (
(983,496,l),
(983,327,l),
(1109,327,ls),
(1161,327,o),
(1212,371,o),
(1212,410,qs),
(1212,448,o),
(1163,494,o),
(1114,496,q),
(1109,496,l)
);
},
{
closed = 1;
nodes = (
(1317,1338,l),
(1317,1454,l),
(1595,1454,l),
(1595,1338,l)
);
},
{
closed = 1;
nodes = (
(918,1338,l),
(918,1454,l),
(1195,1454,l),
(1195,1338,l)
);
},
{
closed = 1;
nodes = (
(519,1338,l),
(519,1454,l),
(795,1454,l),
(795,1338,l)
);
},
{
closed = 1;
nodes = (
(1317,-398,l),
(1317,-285,l),
(1595,-285,l),
(1595,-398,l)
);
},
{
closed = 1;
nodes = (
(918,-398,l),
(918,-285,l),
(1195,-285,l),
(1195,-398,l)
);
},
{
closed = 1;
nodes = (
(519,-398,l),
(519,-285,l),
(795,-285,l),
(795,-398,l)
);
},
{
closed = 1;
nodes = (
(983,566,l),
(1076,566,ls),
(1194,566,o),
(1194,646,qs),
(1194,687,o),
(1136,717,o),
(1076,717,qs),
(983,717,l)
);
},
{
closed = 1;
nodes = (
(200,416,l),
(87,416,l),
(87,668,l),
(200,668,l)
);
},
{
closed = 1;
nodes = (
(200,794,l),
(87,794,l),
(87,1044,l),
(200,1044,l)
);
},
{
closed = 1;
nodes = (
(200,41,l),
(87,41,l),
(87,290,l),
(200,290,l)
);
},
{
closed = 1;
nodes = (
(2026,416,l),
(1915,416,l),
(1915,668,l),
(2026,668,l)
);
},
{
closed = 1;
nodes = (
(2026,794,l),
(1915,794,l),
(1915,1044,l),
(2026,1044,l)
);
},
{
closed = 1;
nodes = (
(2026,41,l),
(1915,41,l),
(1915,290,l),
(2026,290,l)
);
}
);
width = 2092;
}
);
unicode = 65532;
},
{
glyphname = uniFFFD;
layers = (
{
layerId = "F74B8AD3-7B55-4203-B0B4-8E4700CE7707";
shapes = (
{
closed = 1;
nodes = (
(1048,1618,l),
(2007,643,l),
(1048,-332,l),
(92,643,l)
);
},
{
closed = 1;
nodes = (
(1131,402,l),
(1131,427,o),
(1136,467,o),
(1151,500,o),
(1176,528,o),
(1197,542,q),
(1231,560,o),
(1291,612,o),
(1336,675,o),
(1363,749,o),
(1363,790,qs),
(1363,854,o),
(1320,957,o),
(1239,1030,o),
(1121,1069,o),
(1047,1069,qs),
(983,1069,o),
(873,1039,o),
(790,974,o),
(742,873,o),
(741,803,q),
(944,803,l),
(945,830,o),
(962,869,o),
(991,894,o),
(1027,906,o),
(1047,906,qs),
(1104,906,o),
(1160,842,o),
(1160,790,qs),
(1160,738,o),
(1107,661,o),
(1067,635,q),
(1032,610,o),
(980,567,o),
(946,516,o),
(929,450,o),
(929,402,q)
);
},
{
closed = 1;
nodes = (
(1131,311,l),
(929,311,l),
(929,141,l),
(1131,141,l)
);
},
{
closed = 1;
nodes = (
(1056,-551,l),
(1060,-551,l),
(1060,-555,l),
(1056,-555,l)
);
},
{
closed = 1;
nodes = (
(1054,2163,l),
(1058,2163,l),
(1058,2159,l),
(1054,2159,l)
);
}
);
width = 2101;
}
);
unicode = 65533;
},
{
color = (255, 153, 153, 255);
glyphname = arabic_dot;
layers = (
{
layerId = "F74B8AD3-7B55-4203-B0B4-8E4700CE7707";
shapes = (
{
closed = 1;
nodes = (
(-67,103,l),
(97,267,l),
(262,102,l),
(98,-62,l)
);
}
);
width = 193;
}
);
},
{
color = (255, 153, 153, 255);
glyphname = arabic_2dots;
layers = (
{
layerId = "F74B8AD3-7B55-4203-B0B4-8E4700CE7707";
shapes = (
{
closed = 1;
nodes = (
(247,103,l),
(411,267,l),
(576,102,l),
(412,-62,l)
);
},
{
closed = 1;
nodes = (
(-57,103,l),
(107,267,l),
(272,102,l),
(108,-62,l)
);
}
);
width = 514;
}
);
},
{
color = (255, 153, 153, 255);
glyphname = arabic_3dots;
layers = (
{
layerId = "F74B8AD3-7B55-4203-B0B4-8E4700CE7707";
shapes = (
{
closed = 1;
nodes = (
(96,335,l),
(257,496,l),
(419,334,l),
(258,173,l)
);
},
{
closed = 1;
nodes = (
(250,84,l),
(411,245,l),
(573,83,l),
(412,-78,l)
);
},
{
closed = 1;
nodes = (
(-53,84,l),
(107,245,l),
(269,83,l),
(108,-78,l)
);
}
);
width = 514;
}
);
},
{
color = (255, 153, 153, 255);
glyphname = arabic_3dots_a;
layers = (
{
layerId = "F74B8AD3-7B55-4203-B0B4-8E4700CE7707";
shapes = (
{
closed = 1;
nodes = (
(96,-134,l),
(258,27,l),
(419,-134,l),
(257,-295,l)
);
},
{
closed = 1;
nodes = (
(250,117,l),
(412,278,l),
(573,118,l),
(411,-44,l)
);
},
{
closed = 1;
nodes = (
(-53,117,l),
(108,278,l),
(269,118,l),
(107,-44,l)
);
}
);
width = 514;
}
);
},
{
color = (255, 153, 153, 255);
glyphname = uni066E.fina;
layers = (
{
anchors = (
{
name = b.uni064D_3;
position = "{828, -217}";
},
{
name = t.uni0615_3;
position = "{925, 1467}";
}
);
layerId = "F74B8AD3-7B55-4203-B0B4-8E4700CE7707";
shapes = (
{
closed = 1;
nodes = (
(70,516,o),
(80,601,o),
(105,743,c),
(275,724,l),
(267,650,o),
(249,577,o),
(249,503,cs),
(249,188,o),
(637,198,o),
(861,198,cs),
(1013,198,o),
(1543,166,o),
(1543,394,cs),
(1543,550,l),
(1753,644,l),
(1753,474,ls),
(1753,366,o),
(1752,230,o),
(1897,230,cs),
(1946,230,l),
(1946,-30,l),
(1897,-30,ls),
(1793,-30,o),
(1697,22,o),
(1637,111,c),
(1442,-64,o),
(1107,-58,o),
(860,-58,cs),
(471,-58,o),
(70,-75,o),
(70,436,cs)
);
}
);
width = 1931;
}
);
},
{
color = (255, 153, 153, 255);
glyphname = uni06A1.fina;
layers = (
{
anchors = (
{
name = b.uni064D_3;
position = "{623, -269}";
},
{
name = t.uni0615_3;
position = "{746, 1613}";
}
);
layerId = "F74B8AD3-7B55-4203-B0B4-8E4700CE7707";
shapes = (
{
closed = 1;
nodes = (
(272,725,l),
(256,616,o),
(249,544,o),
(249,496,cs),
(249,281,o),
(400,202,o),
(806,202,cs),
(969,202,o),
(1085,214,o),
(1268,248,c),
(1209,339,o),
(1178,434,o),
(1178,528,cs),
(1178,748,o),
(1347,922,o),
(1561,922,cs),
(1757,922,o),
(1908,776,o),
(1908,586,cs),
(1908,473,o),
(1854,355,o),
(1753,245,c),
(1828,235,o),
(1902,230,o),
(1975,230,cs),
(2040,230,l),
(2040,-30,l),
(1975,-30,ls),
(1778,-30,o),
(1630,0,o),
(1494,66,c),
(1322,-5,o),
(1009,-58,o),
(757,-58,cs),
(728,-58,ls),
(246,-58,o),
(70,68,o),
(70,415,cs),
(70,500,o),
(81,596,o),
(106,743,c)
);
},
{
closed = 1;
nodes = (
(1469,671,o),
(1369,594,o),
(1369,526,cs),
(1369,474,o),
(1427,394,o),
(1512,330,c),
(1621,399,o),
(1688,483,o),
(1688,552,cs),
(1688,618,o),
(1629,671,o),
(1556,671,cs)
);
}
);
width = 2025;
}
);
},
{
color = (255, 153, 153, 255);
glyphname = uni06A1.init;
layers = (
{
anchors = (
{
name = b.uni064D_3;
position = "{347, -205}";
},
{
name = t.uni0615_3;
position = "{427, 1646}";
}
);
layerId = "F74B8AD3-7B55-4203-B0B4-8E4700CE7707";
shapes = (
{
closed = 1;
nodes = (
(-15,230,l),
(34,230,l),
(206,230,ls),
(456,230,o),
(581,277,o),
(609,383,c),
(521,376,o),
(477,374,o),
(440,374,cs),
(195,374,o),
(91,462,o),
(91,665,cs),
(91,907,o),
(239,1091,o),
(432,1091,cs),
(659,1091,o),
(826,837,o),
(826,493,cs),
(826,320,o),
(784,198,o),
(697,117,c),
(580,15,o),
(377,-30,o),
(32,-30,cs),
(-15,-30,l)
);
},
{
closed = 1;
nodes = (
(280,624,o),
(342,593,o),
(502,593,cs),
(543,593,o),
(578,595,o),
(606,601,c),
(570,756,o),
(495,853,o),
(413,853,cs),
(342,853,o),
(280,782,o),
(280,703,cs)
);
}
);
width = 914;
}
);
},
{
color = (255, 153, 153, 255);
glyphname = uni06A1.medi;
layers = (
{
anchors = (
{
name = b.uni064D_3;
position = "{527, -205}";
},
{
name = t.uni0615_3;
position = "{562, 1428}";
}
);
layerId = "F74B8AD3-7B55-4203-B0B4-8E4700CE7707";
shapes = (
{
closed = 1;
nodes = (
(-15,230,l),
(46,230,ls),
(138,230,o),
(207,230,o),
(290,236,c),
(234,321,o),
(206,412,o),
(206,501,cs),
(206,732,o),
(376,902,o),
(607,902,cs),
(791,902,o),
(936,753,o),
(936,563,cs),
(936,458,o),
(883,343,o),
(788,234,c),
(859,230,o),
(931,230,o),
(1003,230,cs),
(1069,230,l),
(1069,-30,l),
(989,-30,ls),
(798,-30,o),
(661,-30,o),
(523,46,c),
(356,-30,o),
(257,-30,o),
(46,-30,cs),
(-15,-30,l)
);
},
{
closed = 1;
nodes = (
(498,651,o),
(397,574,o),
(397,505,cs),
(397,451,o),
(455,371,o),
(539,310,c),
(648,379,o),
(716,462,o),
(716,533,cs),
(716,598,o),
(658,651,o),
(588,651,cs)
);
}
);
width = 1052;
}
);
},
{
color = (255, 153, 153, 255);
glyphname = uni066F.fina;
layers = (
{
anchors = (
{
name = b.uni064D_3;
position = "{539, -812}";
},
{
name = t.uni0615_3;
position = "{404, 1249}";
}
);
layerId = "F74B8AD3-7B55-4203-B0B4-8E4700CE7707";
shapes = (
{
closed = 1;
nodes = (
(1063,-30,ls),
(798,-30,o),
(702,50,o),
(702,268,cs),
(702,528,o),
(867,760,o),
(1051,760,cs),
(1212,760,o),
(1360,589,o),
(1422,340,cs),
(1430,308,o),
(1436,270,o),
(1441,230,c),
(1541,230,l),
(1541,-30,l),
(1442,-30,l),
(1402,-368,o),
(1174,-545,o),
(775,-545,cs),
(343,-545,o),
(75,-326,o),
(75,28,cs),
(75,137,o),
(107,285,o),
(182,514,c),
(340,452,l),
(288,274,o),
(262,159,o),
(262,83,cs),
(262,-151,o),
(447,-286,o),
(766,-286,cs),
(1029,-286,o),
(1236,-183,o),
(1241,-30,c)
);
},
{
closed = 1;
nodes = (
(899,254,o),
(957,230,o),
(1120,230,cs),
(1216,230,l),
(1171,406,o),
(1099,512,o),
(1028,512,cs),
(961,512,o),
(899,422,o),
(899,326,cs)
);
}
);
width = 1526;
}
);
},
{
color = (255, 153, 153, 255);
glyphname = arabic_gaf_bar;
layers = (
{
layerId = "F74B8AD3-7B55-4203-B0B4-8E4700CE7707";
shapes = (
{
closed = 1;
nodes = (
(760,1837,l),
(-18,1527,l),
(7,1717,l),
(785,2027,l)
);
}
);
width = 751;
}
);
},
{
color = (255, 153, 153, 255);
glyphname = NameMe.302;
layers = (
{
layerId = "F74B8AD3-7B55-4203-B0B4-8E4700CE7707";
shapes = (
{
closed = 1;
nodes = (
(241,1133,l),
(451,1234,l),
(451,378,ls),
(451,282,o),
(501,230,o),
(594,230,cs),
(660,230,l),
(660,-30,l),
(601,-30,ls),
(497,-30,o),
(406,8,o),
(348,97,c),
(265,7,o),
(146,-30,o),
(21,-30,cs),
(-15,-30,l),
(-15,230,l),
(36,230,ls),
(185,230,o),
(240,279,o),
(240,394,c)
);
}
);
width = 645;
}
);
},
{
color = (255, 153, 153, 255);
glyphname = NameMe.303;
layers = (
{
layerId = "F74B8AD3-7B55-4203-B0B4-8E4700CE7707";
shapes = (
{
closed = 1;
nodes = (
(233,1296,l),
(443,1397,l),
(443,378,ls),
(443,116,o),
(289,-30,o),
(34,-30,cs),
(-15,-30,l),
(-15,230,l),
(49,230,ls),
(174,230,o),
(232,276,o),
(232,394,c)
);
}
);
width = 574;
}
);
},
{
color = (255, 153, 153, 255);
glyphname = NameMe.65564;
layers = (
{
anchors = (
{
name = b.uni064D_3;
position = "{306, -199}";
},
{
name = t.uni0615_3;
position = "{246, 1353}";
}
);
layerId = "F74B8AD3-7B55-4203-B0B4-8E4700CE7707";
shapes = (
{
closed = 1;
nodes = (
(372,1300,l),
(371,1273,o),
(369,1219,o),
(368,1185,cs),
(365,1106,o),
(361,1025,o),
(361,946,cs),
(360,886,o),
(358,827,o),
(355,767,cs),
(352,660,o),
(348,552,o),
(348,444,cs),
(348,266,o),
(383,230,o),
(520,230,cs),
(576,230,l),
(576,-30,l),
(514,-30,ls),
(236,-30,o),
(136,58,o),
(136,451,cs),
(136,580,o),
(140,708,o),
(140,837,cs),
(140,936,o),
(139,1054,o),
(138,1146,c)
);
}
);
width = 561;
}
);
},
{
color = (255, 153, 153, 255);
glyphname = NameMe.65565;
layers = (
{
layerId = "F74B8AD3-7B55-4203-B0B4-8E4700CE7707";
shapes = (
{
closed = 1;
nodes = (
(100,-222,l),
(194,-222,o),
(349,-200,o),
(411,-178,c),
(319,-137,o),
(198,-99,o),
(198,23,cs),
(198,123,o),
(394,253,o),
(584,279,c),
(539,80,l),
(475,72,o),
(408,50,o),
(379,29,c),
(472,-3,o),
(597,-38,o),
(597,-159,cs),
(597,-247,o),
(484,-344,o),
(329,-386,cs),
(271,-402,o),
(213,-410,o),
(157,-411,c)
);
}
);
width = 722;
}
);
},
{
glyphname = zero.sup;
layers = (
{
layerId = "F74B8AD3-7B55-4203-B0B4-8E4700CE7707";
shapes = (
{
closed = 1;
nodes = (
(690,310,ls),
(690,227,o),
(645,107,o),
(563,27,o),
(450,-11,o),
(382,-11,qs),
(313,-11,o),
(199,27,o),
(117,107,o),
(71,227,o),
(71,310,qs),
(71,475,ls),
(71,557,o),
(116,679,o),
(198,760,o),
(312,800,o),
(380,800,qs),
(448,800,o),
(562,760,o),
(644,679,o),
(690,557,o),
(690,475,qs)
);
},
{
closed = 1;
nodes = (
(486,484,ls),
(486,566,o),
(429,634,o),
(380,634,qs),
(332,634,o),
(277,567,o),
(277,484,qs),
(277,302,ls),
(277,218,o),
(332,153,o),
(382,153,qs),
(406,153,o),
(444,168,o),
(471,203,o),
(486,260,o),
(486,302,qs)
);
}
);
width = 762;
}
);
},
{
glyphname = largerighthook;
layers = (
{
layerId = "F74B8AD3-7B55-4203-B0B4-8E4700CE7707";
shapes = (
{
closed = 1;
nodes = (
(-102,835,l),
(181,835,ls),
(317,835,o),
(539,762,o),
(697,616,o),
(784,396,o),
(784,248,qs),
(784,140,o),
(728,-71,o),
(600,-238,o),
(392,-341,o),
(241,-341,q),
(240,-120,l),
(296,-120,o),
(378,-87,o),
(434,-32,o),
(469,40,o),
(488,118,o),
(495,198,o),
(495,233,q),
(496,419,o),
(334,599,o),
(181,599,qs),
(-102,599,l)
);
}
);
width = 835;
}
);
},
{
glyphname = circumflexgravecomb;
layers = (
{
layerId = "F74B8AD3-7B55-4203-B0B4-8E4700CE7707";
shapes = (
{
closed = 1;
nodes = (
(865,1254,l),
(650,1254,l),
(499,1381,l),
(348,1254,l),
(132,1254,l),
(417,1485,l),
(580,1485,l)
);
},
{
closed = 1;
nodes = (
(206,1389,l),
(39,1389,l),
(-187,1660,l),
(43,1660,l)
);
}
);
width = 1031;
}
);
},
{
glyphname = circumflexacutecomb;
layers = (
{
layerId = "F74B8AD3-7B55-4203-B0B4-8E4700CE7707";
shapes = (
{
closed = 1;
nodes = (
(416,1490,l),
(579,1490,l),
(864,1260,l),
(648,1260,l),
(497,1386,l),
(346,1260,l),
(131,1260,l)
);
},
{
closed = 1;
nodes = (
(953,1666,l),
(1184,1666,l),
(957,1394,l),
(790,1394,l)
);
}
);
width = 1031;
}
);
},
{
glyphname = brevegravecomb;
layers = (
{
layerId = "F74B8AD3-7B55-4203-B0B4-8E4700CE7707";
shapes = (
{
closed = 1;
nodes = (
(809,1456,l),
(809,1390,o),
(759,1281,o),
(666,1203,o),
(534,1159,o),
(452,1159,qs),
(369,1159,o),
(237,1203,o),
(145,1281,o),
(95,1390,o),
(95,1456,q),
(299,1456,l),
(299,1433,o),
(316,1390,o),
(353,1357,o),
(411,1338,o),
(452,1338,qs),
(493,1338,o),
(551,1357,o),
(587,1390,o),
(603,1433,o),
(603,1456,q)
);
},
{
closed = 1;
nodes = (
(584,1491,l),
(358,1491,l),
(151,1710,l),
(427,1710,l)
);
}
);
width = 925;
}
);
},
{
glyphname = commaaccentrotate;
layers = (
{
layerId = "F74B8AD3-7B55-4203-B0B4-8E4700CE7707";
shapes = (
{
closed = 1;
nodes = (
(133,1234,ls),
(133,1286,o),
(155,1385,o),
(193,1469,o),
(246,1537,o),
(277,1558,q),
(426,1480,l),
(400,1433,o),
(359,1303,o),
(359,1222,q),
(358,1097,l),
(133,1097,l)
);
}
);
width = 513;
}
);
},
{
glyphname = onequarter.ref1;
layers = (
{
layerId = "F74B8AD3-7B55-4203-B0B4-8E4700CE7707";
shapes = (
{
closed = 1;
nodes = (
(1302,326,l),
(1392,326,l),
(1392,159,l),
(1302,159,l),
(1302,0,l),
(1097,0,l),
(1097,159,l),
(754,159,l),
(741,294,l),
(1097,787,l),
(1097,789,l),
(1302,789,l)
);
},
{
closed = 1;
nodes = (
(937,326,l),
(1097,326,l),
(1097,534,l),
(1085,516,l)
);
},
{
closed = 1;
nodes = (
(494,664,l),
(290,664,l),
(290,1212,l),
(101,1171,l),
(101,1329,l),
(475,1450,l),
(494,1450,l)
);
}
);
width = 2048;
}
);
},
{
glyphname = onehalf.ref1;
layers = (
{
layerId = "F74B8AD3-7B55-4203-B0B4-8E4700CE7707";
shapes = (
{
closed = 1;
nodes = (
(1477,0,l),
(857,0,l),
(857,138,l),
(1144,395,l),
(1200,444,o),
(1249,528,o),
(1249,551,qs),
(1249,589,o),
(1202,635,o),
(1154,635,qs),
(1127,635,o),
(1086,617,o),
(1059,587,o),
(1045,548,o),
(1045,526,q),
(839,526,l),
(839,582,o),
(882,681,o),
(961,756,o),
(1074,800,o),
(1145,800,qs),
(1293,800,o),
(1454,671,o),
(1454,552,qs),
(1454,508,o),
(1428,435,o),
(1374,365,o),
(1292,293,o),
(1237,250,qs),
(1126,164,l),
(1477,164,l)
);
},
{
closed = 1;
nodes = (
(477,670,l),
(273,670,l),
(273,1218,l),
(84,1177,l),
(84,1335,l),
(458,1456,l),
(477,1456,l)
);
}
);
width = 2048;
}
);
},
{
glyphname = threequarters.ref1;
layers = (
{
layerId = "F74B8AD3-7B55-4203-B0B4-8E4700CE7707";
shapes = (
{
closed = 1;
nodes = (
(1460,326,l),
(1550,326,l),
(1550,159,l),
(1460,159,l),
(1460,0,l),
(1255,0,l),
(1255,159,l),
(912,159,l),
(899,294,l),
(1255,787,l),
(1255,789,l),
(1460,789,l)
);
},
{
closed = 1;
nodes = (
(1095,326,l),
(1255,326,l),
(1255,534,l),
(1243,516,l)
);
},
{
closed = 1;
nodes = (
(319,1137,l),
(407,1137,ls),
(464,1137,o),
(520,1185,o),
(520,1225,qs),
(520,1239,o),
(509,1266,o),
(484,1288,o),
(443,1302,o),
(414,1302,qs),
(372,1302,o),
(313,1271,o),
(313,1242,q),
(108,1242,l),
(108,1297,o),
(157,1382,o),
(240,1438,o),
(348,1467,o),
(408,1467,qs),
(478,1467,o),
(594,1438,o),
(678,1381,o),
(724,1296,o),
(724,1241,qs),
(724,1180,o),
(651,1095,o),
(589,1072,q),
(659,1053,o),
(739,966,o),
(739,888,qs),
(739,832,o),
(688,746,o),
(599,687,o),
(478,656,o),
(408,656,qs),
(352,656,o),
(240,682,o),
(150,741,o),
(94,835,o),
(94,903,q),
(300,903,l),
(300,887,o),
(317,857,o),
(348,834,o),
(392,820,o),
(420,820,qs),
(480,820,o),
(533,873,o),
(533,908,qs),
(533,959,o),
(467,1001,o),
(407,1001,qs),
(319,1001,l)
);
}
);
width = 2048;
}
);
},
{
glyphname = franc.ref1;
layers = (
{
layerId = "F74B8AD3-7B55-4203-B0B4-8E4700CE7707";
shapes = (
{
closed = 1;
nodes = (
(686,217,l),
(-13,217,l),
(-13,400,l),
(686,400,l)
);
}
);
width = 2048;
}
);
},
{
glyphname = uni20AB.ref1;
layers = (
{
layerId = "F74B8AD3-7B55-4203-B0B4-8E4700CE7707";
shapes = (
{
closed = 1;
nodes = (
(1198,1219,l),
(499,1219,l),
(499,1402,l),
(1198,1402,l)
);
}
);
width = 2048;
}
);
},
{
glyphname = oneeighth.ref1;
layers = (
{
layerId = "F74B8AD3-7B55-4203-B0B4-8E4700CE7707";
shapes = (
{
closed = 1;
nodes = (
(1485,519,o),
(1426,432,o),
(1374,406,q),
(1434,378,o),
(1503,284,o),
(1503,218,qs),
(1503,160,o),
(1457,74,o),
(1375,17,o),
(1262,-11,o),
(1195,-11,qs),
(1129,-11,o),
(1015,17,o),
(931,74,o),
(884,160,o),
(884,218,qs),
(884,284,o),
(955,379,o),
(1015,406,q),
(962,433,o),
(902,519,o),
(902,576,qs),
(902,631,o),
(946,715,o),
(1023,771,o),
(1130,800,o),
(1193,800,qs),
(1257,800,o),
(1364,771,o),
(1442,715,o),
(1485,631,o),
(1485,576,qs)
);
},
{
closed = 1;
nodes = (
(1299,280,o),
(1240,319,o),
(1193,319,qs),
(1147,319,o),
(1090,280,o),
(1090,238,qs),
(1090,198,o),
(1147,153,o),
(1195,153,qs),
(1242,153,o),
(1299,198,o),
(1299,238,qs)
);
},
{
closed = 1;
nodes = (
(1280,635,o),
(1193,635,qs),
(1108,635,o),
(1108,562,qs),
(1108,527,o),
(1152,485,o),
(1195,485,qs),
(1238,485,o),
(1280,527,o),
(1280,562,qs)
);
},
{
closed = 1;
nodes = (
(490,646,l),
(286,646,l),
(286,1194,l),
(97,1153,l),
(97,1311,l),
(471,1432,l),
(490,1432,l)
);
}
);
width = 2048;
}
);
},
{
glyphname = threeeighths.ref1;
layers = (
{
layerId = "F74B8AD3-7B55-4203-B0B4-8E4700CE7707";
shapes = (
{
closed = 1;
nodes = (
(1641,519,o),
(1582,432,o),
(1530,406,q),
(1590,378,o),
(1659,284,o),
(1659,218,qs),
(1659,160,o),
(1613,74,o),
(1531,17,o),
(1418,-11,o),
(1351,-11,qs),
(1285,-11,o),
(1171,17,o),
(1087,74,o),
(1040,160,o),
(1040,218,qs),
(1040,284,o),
(1111,379,o),
(1171,406,q),
(1118,433,o),
(1058,519,o),
(1058,576,qs),
(1058,631,o),
(1102,715,o),
(1179,771,o),
(1286,800,o),
(1349,800,qs),
(1413,800,o),
(1520,771,o),
(1598,715,o),
(1641,631,o),
(1641,576,qs)
);
},
{
closed = 1;
nodes = (
(1455,280,o),
(1396,319,o),
(1349,319,qs),
(1303,319,o),
(1246,280,o),
(1246,238,qs),
(1246,198,o),
(1303,153,o),
(1351,153,qs),
(1398,153,o),
(1455,198,o),
(1455,238,qs)
);
},
{
closed = 1;
nodes = (
(1436,635,o),
(1349,635,qs),
(1264,635,o),
(1264,562,qs),
(1264,527,o),
(1308,485,o),
(1351,485,qs),
(1394,485,o),
(1436,527,o),
(1436,562,qs)
);
},
{
closed = 1;
nodes = (
(297,1130,l),
(385,1130,ls),
(442,1130,o),
(498,1178,o),
(498,1218,qs),
(498,1232,o),
(487,1259,o),
(462,1281,o),
(421,1295,o),
(392,1295,qs),
(350,1295,o),
(291,1264,o),
(291,1235,q),
(86,1235,l),
(86,1290,o),
(135,1375,o),
(218,1431,o),
(326,1460,o),
(386,1460,qs),
(456,1460,o),
(572,1431,o),
(656,1374,o),
(702,1289,o),
(702,1234,qs),
(702,1173,o),
(629,1088,o),
(567,1065,q),
(637,1046,o),
(717,959,o),
(717,881,qs),
(717,825,o),
(666,739,o),
(577,680,o),
(456,649,o),
(386,649,qs),
(330,649,o),
(218,675,o),
(128,734,o),
(72,828,o),
(72,896,q),
(278,896,l),
(278,880,o),
(295,850,o),
(326,827,o),
(370,813,o),
(398,813,qs),
(458,813,o),
(511,866,o),
(511,901,qs),
(511,952,o),
(445,994,o),
(385,994,qs),
(297,994,l)
);
}
);
width = 2048;
}
);
},
{
glyphname = fiveeighths.ref1;
layers = (
{
layerId = "F74B8AD3-7B55-4203-B0B4-8E4700CE7707";
shapes = (
{
closed = 1;
nodes = (
(1622,519,o),
(1563,432,o),
(1511,406,q),
(1571,378,o),
(1640,284,o),
(1640,218,qs),
(1640,160,o),
(1594,74,o),
(1512,17,o),
(1399,-11,o),
(1332,-11,qs),
(1266,-11,o),
(1152,17,o),
(1068,74,o),
(1021,160,o),
(1021,218,qs),
(1021,284,o),
(1092,379,o),
(1152,406,q),
(1099,433,o),
(1039,519,o),
(1039,576,qs),
(1039,631,o),
(1083,715,o),
(1160,771,o),
(1267,800,o),
(1330,800,qs),
(1394,800,o),
(1501,771,o),
(1579,715,o),
(1622,631,o),
(1622,576,qs)
);
},
{
closed = 1;
nodes = (
(1436,280,o),
(1377,319,o),
(1330,319,qs),
(1284,319,o),
(1227,280,o),
(1227,238,qs),
(1227,198,o),
(1284,153,o),
(1332,153,qs),
(1379,153,o),
(1436,198,o),
(1436,238,qs)
);
},
{
closed = 1;
nodes = (
(1417,635,o),
(1330,635,qs),
(1245,635,o),
(1245,562,qs),
(1245,527,o),
(1289,485,o),
(1332,485,qs),
(1375,485,o),
(1417,527,o),
(1417,562,qs)
);
},
{
closed = 1;
nodes = (
(105,1044,l),
(159,1452,l),
(662,1452,l),
(662,1290,l),
(326,1290,l),
(305,1155,l),
(312,1158,o),
(339,1167,o),
(374,1176,o),
(416,1182,o),
(437,1182,qs),
(569,1182,o),
(707,1050,o),
(707,928,qs),
(707,875,o),
(670,776,o),
(593,699,o),
(477,652,o),
(398,652,qs),
(339,652,o),
(228,684,o),
(141,745,o),
(88,832,o),
(87,886,q),
(293,886,l),
(295,847,o),
(351,816,o),
(398,816,qs),
(429,816,o),
(469,834,o),
(493,866,o),
(502,906,o),
(502,929,qs),
(502,980,o),
(443,1041,o),
(382,1041,qs),
(332,1041,o),
(281,1014,o),
(268,1004,q)
);
}
);
width = 2048;
}
);
},
{
glyphname = seveneighths.ref1;
layers = (
{
layerId = "F74B8AD3-7B55-4203-B0B4-8E4700CE7707";
shapes = (
{
closed = 1;
nodes = (
(1568,519,o),
(1509,432,o),
(1457,406,q),
(1517,378,o),
(1586,284,o),
(1586,218,qs),
(1586,160,o),
(1540,74,o),
(1458,17,o),
(1345,-11,o),
(1278,-11,qs),
(1212,-11,o),
(1098,17,o),
(1014,74,o),
(967,160,o),
(967,218,qs),
(967,284,o),
(1038,379,o),
(1098,406,q),
(1045,433,o),
(985,519,o),
(985,576,qs),
(985,631,o),
(1029,715,o),
(1106,771,o),
(1213,800,o),
(1276,800,qs),
(1340,800,o),
(1447,771,o),
(1525,715,o),
(1568,631,o),
(1568,576,qs)
);
},
{
closed = 1;
nodes = (
(1382,280,o),
(1323,319,o),
(1276,319,qs),
(1230,319,o),
(1173,280,o),
(1173,238,qs),
(1173,198,o),
(1230,153,o),
(1278,153,qs),
(1325,153,o),
(1382,198,o),
(1382,238,qs)
);
},
{
closed = 1;
nodes = (
(1363,635,o),
(1276,635,qs),
(1191,635,o),
(1191,562,qs),
(1191,527,o),
(1235,485,o),
(1278,485,qs),
(1321,485,o),
(1363,527,o),
(1363,562,qs)
);
},
{
closed = 1;
nodes = (
(730,1328,l),
(399,654,l),
(183,654,l),
(515,1277,l),
(91,1277,l),
(91,1443,l),
(730,1443,l)
);
}
